<svg width="24" height="30" viewBox="0 0 24 30" fill="none" xmlns="http://www.w3.org/2000/svg">
<path d="M19.5309 15.9823C19.5594 13.7927 20.7442 11.7209 22.6238 10.5741C21.438 8.89337 19.4519 7.82776 17.3856 7.7636C15.1817 7.53402 13.0451 9.07243 11.922 9.07243C10.7772 9.07243 9.04806 7.78639 7.18605 7.82441C4.759 7.90224 2.49638 9.2717 1.31557 11.3776C-1.2227 15.739 0.670621 22.1488 3.10208 25.6743C4.31858 27.4006 5.74033 29.3289 7.60066 29.2605C9.42111 29.1856 10.101 28.1085 12.2984 28.1085C14.4755 28.1085 15.1134 29.2605 17.0114 29.2171C18.9649 29.1856 20.1956 27.4831 21.3694 25.7404C22.2435 24.5104 22.9161 23.1509 23.3623 21.7123C21.0667 20.7487 19.5336 18.4559 19.5309 15.9823Z" fill="white"/>
<path d="M15.9458 5.44509C17.0109 4.17615 17.5356 2.54514 17.4085 0.898438C15.7813 1.06805 14.2782 1.83988 13.1987 3.06014C12.1432 4.25239 11.5938 5.8547 11.6977 7.43846C13.3255 7.4551 14.9257 6.70419 15.9458 5.44509Z" fill="white"/>
</svg>
