<svg width="194" height="66" viewBox="0 0 194 66" fill="none" xmlns="http://www.w3.org/2000/svg">
<rect x="1" y="0.75" width="192" height="64" rx="32" fill="#22262A"/>
<rect x="1" y="0.75" width="192" height="64" rx="32" stroke="#F5FFFB"/>
<path d="M126.025 30.8V33.7842H124.141V35.7411H126.025V42.3906C126.025 44.6611 127.06 45.5693 129.664 45.5693C130.122 45.5693 130.558 45.5152 130.939 45.4504V43.515C130.612 43.5474 130.405 43.5691 130.046 43.5691C128.88 43.5691 128.368 43.0285 128.368 41.7959V35.7411H130.939V33.7842H128.368V30.8H126.025Z" fill="white"/>
<path d="M137.572 45.7315C141.036 45.7315 143.161 43.4285 143.161 39.6119C143.161 35.8168 141.025 33.503 137.572 33.503C134.107 33.503 131.972 35.8168 131.972 39.6119C131.972 43.4285 134.096 45.7315 137.572 45.7315ZM137.572 43.6664C135.535 43.6664 134.391 42.1851 134.391 39.6119C134.391 37.0602 135.535 35.5682 137.572 35.5682C139.598 35.5682 140.753 37.0602 140.753 39.6119C140.753 42.1743 139.598 43.6664 137.572 43.6664Z" fill="white"/>
<path d="M144.978 45.5044H147.32V38.5523C147.32 36.898 148.573 35.7844 150.349 35.7844C150.763 35.7844 151.46 35.8601 151.656 35.9249V33.6328C151.406 33.5679 150.959 33.5355 150.611 33.5355C149.064 33.5355 147.745 34.3788 147.408 35.5357H147.233V33.7301H144.978V45.5044Z" fill="white"/>
<path d="M157.472 35.4817C159.204 35.4817 160.337 36.6818 160.392 38.5307H154.4C154.531 36.6926 155.74 35.4817 157.472 35.4817ZM160.381 42.3257C159.945 43.2447 158.976 43.7529 157.559 43.7529C155.686 43.7529 154.476 42.4446 154.4 40.3795V40.2498H162.778V39.4389C162.778 35.7411 160.784 33.503 157.483 33.503C154.139 33.503 152.014 35.8925 152.014 39.6551C152.014 43.4177 154.095 45.7315 157.494 45.7315C160.207 45.7315 162.102 44.434 162.636 42.3257H160.381Z" fill="white"/>
<path d="M110.665 41.1564C110.846 44.0476 113.274 45.8966 116.887 45.8966C120.749 45.8966 123.165 43.9579 123.165 40.865C123.165 38.4332 121.787 37.0884 118.445 36.3152L116.65 35.8781C114.527 35.3851 113.669 34.7239 113.669 33.5696C113.669 32.1128 115.001 31.1603 117 31.1603C118.897 31.1603 120.207 32.0904 120.444 33.5808H122.905C122.759 30.8577 120.342 28.9414 117.034 28.9414C113.477 28.9414 111.106 30.8577 111.106 33.7377C111.106 36.1135 112.449 37.5255 115.396 38.2091L117.497 38.7134C119.653 39.2176 120.602 39.9573 120.602 41.19C120.602 42.6244 119.111 43.6666 117.079 43.6666C114.9 43.6666 113.386 42.6916 113.172 41.1564H110.665Z" fill="white"/>
<path d="M86.4015 33.5355C84.7891 33.5355 83.3946 34.3356 82.6756 35.6763H82.5013V33.7301H80.2462V49.4184H82.5884V43.7204H82.7736C83.3946 44.9638 84.7346 45.699 86.4233 45.699C89.4192 45.699 91.3257 43.3528 91.3257 39.6119C91.3257 35.8709 89.4192 33.5355 86.4015 33.5355ZM85.7369 43.6123C83.7759 43.6123 82.5449 42.077 82.5449 39.6227C82.5449 37.1575 83.7759 35.6222 85.7478 35.6222C87.7306 35.6222 88.9181 37.1251 88.9181 39.6119C88.9181 42.1094 87.7306 43.6123 85.7369 43.6123Z" fill="white"/>
<path d="M99.5217 33.5355C97.9094 33.5355 96.5149 34.3356 95.7959 35.6763H95.6216V33.7301H93.3664V49.4184H95.7087V43.7204H95.8939C96.5149 44.9638 97.8549 45.699 99.5435 45.699C102.539 45.699 104.446 43.3528 104.446 39.6119C104.446 35.8709 102.539 33.5355 99.5217 33.5355ZM98.8572 43.6123C96.8962 43.6123 95.6651 42.077 95.6651 39.6227C95.6651 37.1575 96.8962 35.6222 98.8681 35.6222C100.851 35.6222 102.038 37.1251 102.038 39.6119C102.038 42.1094 100.851 43.6123 98.8572 43.6123Z" fill="white"/>
<path d="M76.0437 45.5044H78.7311L72.8482 29.3336H70.1269L64.2439 45.5044H66.841L68.3428 41.2124H74.5532L76.0437 45.5044ZM71.3576 32.2697H71.5496L73.9096 39.1056H68.9864L71.3576 32.2697Z" fill="white"/>
<path d="M65.8145 17.1338V24.9347H68.6524C70.9947 24.9347 72.3511 23.5021 72.3511 21.0099C72.3511 18.5556 70.9838 17.1338 68.6524 17.1338H65.8145ZM67.0346 18.2367H68.5163C70.145 18.2367 71.1091 19.2638 71.1091 21.0262C71.1091 22.8156 70.1613 23.8319 68.5163 23.8319H67.0346V18.2367Z" fill="white"/>
<path d="M76.5051 25.0482C78.2373 25.0482 79.2995 23.8968 79.2995 21.9884C79.2995 20.0909 78.2318 18.934 76.5051 18.934C74.7729 18.934 73.7052 20.0909 73.7052 21.9884C73.7052 23.8968 74.7674 25.0482 76.5051 25.0482ZM76.5051 24.0157C75.4865 24.0157 74.9145 23.2751 74.9145 21.9884C74.9145 20.7126 75.4865 19.9666 76.5051 19.9666C77.5183 19.9666 78.0957 20.7126 78.0957 21.9884C78.0957 23.2697 77.5183 24.0157 76.5051 24.0157Z" fill="white"/>
<path d="M88.3451 19.0476H87.1739L86.1172 23.54H86.0246L84.8044 19.0476H83.6823L82.4621 23.54H82.375L81.3128 19.0476H80.1253L81.7594 24.9347H82.9632L84.1834 20.5991H84.276L85.5016 24.9347H86.7164L88.3451 19.0476Z" fill="white"/>
<path d="M89.6938 24.9347H90.8649V21.4911C90.8649 20.5721 91.4151 19.999 92.2812 19.999C93.1473 19.999 93.5613 20.4693 93.5613 21.4154V24.9347H94.7324V21.1235C94.7324 19.7233 94.0025 18.934 92.6788 18.934C91.7855 18.934 91.1972 19.3287 90.9085 19.9828H90.8213V19.0476H89.6938V24.9347Z" fill="white"/>
<path d="M96.5768 24.9347H97.748V16.75H96.5768V24.9347Z" fill="white"/>
<path d="M102.153 25.0482C103.885 25.0482 104.947 23.8968 104.947 21.9884C104.947 20.0909 103.879 18.934 102.153 18.934C100.42 18.934 99.3527 20.0909 99.3527 21.9884C99.3527 23.8968 100.415 25.0482 102.153 25.0482ZM102.153 24.0157C101.134 24.0157 100.562 23.2751 100.562 21.9884C100.562 20.7126 101.134 19.9666 102.153 19.9666C103.166 19.9666 103.743 20.7126 103.743 21.9884C103.743 23.2697 103.166 24.0157 102.153 24.0157Z" fill="white"/>
<path d="M108.436 24.0535C107.799 24.0535 107.336 23.7454 107.336 23.2156C107.336 22.6966 107.706 22.4209 108.524 22.3669L109.973 22.275V22.7669C109.973 23.4967 109.319 24.0535 108.436 24.0535ZM108.137 25.032C108.916 25.032 109.564 24.6969 109.918 24.1076H110.011V24.9347H111.138V20.9126C111.138 19.6693 110.299 18.934 108.812 18.934C107.467 18.934 106.508 19.5828 106.388 20.5937H107.521C107.652 20.1774 108.104 19.9396 108.758 19.9396C109.559 19.9396 109.973 20.2909 109.973 20.9126V21.4208L108.366 21.5127C106.955 21.5992 106.159 22.2101 106.159 23.2697C106.159 24.3455 106.993 25.032 108.137 25.032Z" fill="white"/>
<path d="M115.112 25.032C115.93 25.032 116.621 24.6482 116.975 24.0049H117.068V24.9347H118.19V16.75H117.019V19.9828H116.932C116.61 19.3341 115.924 18.9503 115.112 18.9503C113.614 18.9503 112.65 20.1288 112.65 21.9884C112.65 23.8535 113.604 25.032 115.112 25.032ZM115.445 19.9936C116.425 19.9936 117.041 20.7667 117.041 21.9938C117.041 23.2264 116.431 23.9887 115.445 23.9887C114.453 23.9887 113.86 23.2372 113.86 21.9884C113.86 20.7505 114.459 19.9936 115.445 19.9936Z" fill="white"/>
<path d="M125.785 25.0482C127.517 25.0482 128.579 23.8968 128.579 21.9884C128.579 20.0909 127.511 18.934 125.785 18.934C124.052 18.934 122.985 20.0909 122.985 21.9884C122.985 23.8968 124.047 25.0482 125.785 25.0482ZM125.785 24.0157C124.766 24.0157 124.194 23.2751 124.194 21.9884C124.194 20.7126 124.766 19.9666 125.785 19.9666C126.798 19.9666 127.375 20.7126 127.375 21.9884C127.375 23.2697 126.798 24.0157 125.785 24.0157Z" fill="white"/>
<path d="M130.129 24.9347H131.3V21.4911C131.3 20.5721 131.851 19.999 132.717 19.999C133.583 19.999 133.997 20.4693 133.997 21.4154V24.9347H135.168V21.1235C135.168 19.7233 134.438 18.934 133.114 18.934C132.221 18.934 131.633 19.3287 131.344 19.9828H131.257V19.0476H130.129V24.9347Z" fill="white"/>
<path d="M140.562 17.5825V19.0746H139.619V20.0531H140.562V23.3778C140.562 24.5131 141.079 24.9672 142.381 24.9672C142.61 24.9672 142.828 24.9401 143.018 24.9077V23.94C142.855 23.9562 142.751 23.967 142.572 23.967C141.989 23.967 141.733 23.6967 141.733 23.0805V20.0531H143.018V19.0746H141.733V17.5825H140.562Z" fill="white"/>
<path d="M144.59 24.9347H145.762V21.4965C145.762 20.6045 146.295 20.0044 147.254 20.0044C148.082 20.0044 148.523 20.4802 148.523 21.4208V24.9347H149.694V21.1343C149.694 19.7341 148.915 18.9394 147.652 18.9394C146.758 18.9394 146.132 19.3341 145.843 19.9936H145.751V16.75H144.59V24.9347Z" fill="white"/>
<path d="M153.919 19.9233C154.785 19.9233 155.352 20.5234 155.379 21.4478H152.383C152.448 20.5288 153.053 19.9233 153.919 19.9233ZM155.374 23.3453C155.156 23.8049 154.671 24.0589 153.963 24.0589C153.026 24.0589 152.421 23.4048 152.383 22.3723V22.3074H156.572V21.9019C156.572 20.0531 155.575 18.934 153.925 18.934C152.252 18.934 151.19 20.1288 151.19 22.0101C151.19 23.8914 152.231 25.0482 153.93 25.0482C155.286 25.0482 156.234 24.3995 156.501 23.3453H155.374Z" fill="white"/>
<path d="M51.5309 32.2323C51.5594 30.0427 52.7442 27.9709 54.6238 26.8241C53.438 25.1434 51.4519 24.0778 49.3856 24.0136C47.1817 23.784 45.0451 25.3224 43.922 25.3224C42.7772 25.3224 41.0481 24.0364 39.186 24.0744C36.759 24.1522 34.4964 25.5217 33.3156 27.6276C30.7773 31.989 32.6706 38.3988 35.1021 41.9243C36.3186 43.6506 37.7403 45.5789 39.6007 45.5106C41.4211 45.4356 42.101 44.3585 44.2984 44.3585C46.4755 44.3585 47.1134 45.5106 49.0114 45.4671C50.9649 45.4356 52.1956 43.7331 53.3694 41.9904C54.2435 40.7604 54.9161 39.4009 55.3623 37.9623C53.0667 36.9987 51.5336 34.7059 51.5309 32.2323Z" fill="white"/>
<path d="M47.9458 21.6951C49.0109 20.4262 49.5356 18.7951 49.4085 17.1484C47.7813 17.3181 46.2782 18.0899 45.1987 19.3101C44.1432 20.5024 43.5938 22.1047 43.6977 23.6885C45.3255 23.7051 46.9257 22.9542 47.9458 21.6951Z" fill="white"/>
</svg>
