<svg width="227" height="194" viewBox="0 0 227 194" fill="none" xmlns="http://www.w3.org/2000/svg">
<g filter="url(#filter0_dddd_1765_6419)">
<rect x="16" y="24" width="195" height="146" rx="12" fill="white"/>
<path d="M113.5 102.665C128.228 102.665 140.167 90.7263 140.167 75.9987C140.167 61.2711 128.228 49.332 113.5 49.332C98.7724 49.332 86.8334 61.2711 86.8334 75.9987C86.8334 90.7263 98.7724 102.665 113.5 102.665Z" fill="#25A774"/>
<path d="M109.713 85.5469C109.18 85.5469 108.673 85.3336 108.3 84.9603L100.753 77.4136C99.98 76.6403 99.98 75.3603 100.753 74.5869C101.527 73.8136 102.807 73.8136 103.58 74.5869L109.713 80.7203L123.42 67.0136C124.193 66.2403 125.473 66.2403 126.247 67.0136C127.02 67.7869 127.02 69.0669 126.247 69.8403L111.127 84.9603C110.753 85.3336 110.247 85.5469 109.713 85.5469Z" fill="white"/>
<path d="M50.0611 147L53.3571 135.8H55.2451L51.8531 147H50.0611ZM43.2771 147L39.9331 135.8H41.8051L45.0851 147H43.2771ZM43.5171 147L46.6691 135.8H48.3811L45.2451 147H43.5171ZM49.8851 147L46.7971 135.8H48.5091L51.6931 147H49.8851ZM56.4868 147V139H58.2628V147H56.4868ZM57.3828 137.48C57.0948 137.48 56.8441 137.379 56.6308 137.176C56.4281 136.963 56.3268 136.712 56.3268 136.424C56.3268 136.136 56.4281 135.891 56.6308 135.688C56.8441 135.485 57.0948 135.384 57.3828 135.384C57.6708 135.384 57.9161 135.485 58.1188 135.688C58.3321 135.891 58.4388 136.136 58.4388 136.424C58.4388 136.712 58.3321 136.963 58.1188 137.176C57.9161 137.379 57.6708 137.48 57.3828 137.48ZM63.5588 147.192C62.7161 147.192 62.0708 146.984 61.6228 146.568C61.1855 146.141 60.9668 145.533 60.9668 144.744V136.504H62.7428V144.408C62.7428 144.781 62.8281 145.064 62.9988 145.256C63.1801 145.448 63.4415 145.544 63.7828 145.544C63.8895 145.544 64.0068 145.523 64.1348 145.48C64.2628 145.437 64.4068 145.357 64.5668 145.24L65.2228 146.6C64.9455 146.792 64.6681 146.936 64.3908 147.032C64.1135 147.139 63.8361 147.192 63.5588 147.192ZM59.6388 140.536V139H64.9028V140.536H59.6388ZM66.6721 147V135.8H68.4641V147H66.6721ZM72.0961 147V142.904H73.8881V147H72.0961ZM72.0961 142.904C72.0961 142.264 72.0214 141.773 71.8721 141.432C71.7227 141.08 71.5147 140.835 71.2481 140.696C70.9921 140.557 70.6934 140.488 70.3521 140.488C69.7441 140.477 69.2747 140.675 68.9441 141.08C68.6241 141.485 68.4641 142.067 68.4641 142.824H67.7761C67.7761 141.981 67.8987 141.261 68.1441 140.664C68.4001 140.056 68.7574 139.597 69.2161 139.288C69.6747 138.968 70.2187 138.808 70.8481 138.808C71.4774 138.808 72.0214 138.936 72.4801 139.192C72.9387 139.448 73.2854 139.848 73.5201 140.392C73.7654 140.925 73.8881 141.624 73.8881 142.488V142.904H72.0961ZM81.4789 147L81.3989 145.512V135.8H83.1749V147H81.4789ZM78.8709 147.192C78.1456 147.192 77.5109 147.021 76.9669 146.68C76.4336 146.328 76.0123 145.837 75.7029 145.208C75.4043 144.579 75.2549 143.843 75.2549 143C75.2549 142.147 75.4043 141.411 75.7029 140.792C76.0123 140.163 76.4336 139.677 76.9669 139.336C77.5109 138.984 78.1456 138.808 78.8709 138.808C79.5429 138.808 80.1189 138.984 80.5989 139.336C81.0896 139.677 81.4629 140.163 81.7189 140.792C81.9749 141.411 82.1029 142.147 82.1029 143C82.1029 143.843 81.9749 144.579 81.7189 145.208C81.4629 145.837 81.0896 146.328 80.5989 146.68C80.1189 147.021 79.5429 147.192 78.8709 147.192ZM79.3189 145.56C79.7243 145.56 80.0816 145.453 80.3909 145.24C80.7109 145.016 80.9563 144.712 81.1269 144.328C81.3083 143.944 81.3989 143.501 81.3989 143C81.3989 142.499 81.3083 142.056 81.1269 141.672C80.9563 141.288 80.7109 140.989 80.3909 140.776C80.0816 140.563 79.7189 140.456 79.3029 140.456C78.8763 140.456 78.4976 140.563 78.1669 140.776C77.8363 140.989 77.5749 141.288 77.3829 141.672C77.2016 142.056 77.1056 142.499 77.0949 143C77.1056 143.501 77.2016 143.944 77.3829 144.328C77.5749 144.712 77.8363 145.016 78.1669 145.24C78.5083 145.453 78.8923 145.56 79.3189 145.56ZM86.3401 142.744C86.3401 141.88 86.5054 141.171 86.8361 140.616C87.1667 140.061 87.5934 139.651 88.1161 139.384C88.6494 139.107 89.2041 138.968 89.7801 138.968V140.68C89.2894 140.68 88.8254 140.749 88.3881 140.888C87.9614 141.016 87.6147 141.229 87.3481 141.528C87.0814 141.827 86.9481 142.221 86.9481 142.712L86.3401 142.744ZM85.1561 147V139H86.9481V147H85.1561ZM95.8486 147L95.7686 145.496V142.888C95.7686 142.344 95.7099 141.891 95.5926 141.528C95.4859 141.155 95.3046 140.872 95.0486 140.68C94.8032 140.477 94.4726 140.376 94.0566 140.376C93.6726 140.376 93.3366 140.456 93.0486 140.616C92.7606 140.776 92.5152 141.027 92.3126 141.368L90.7446 140.792C90.9152 140.44 91.1392 140.115 91.4166 139.816C91.7046 139.507 92.0619 139.261 92.4886 139.08C92.9259 138.899 93.4486 138.808 94.0566 138.808C94.8352 138.808 95.4859 138.963 96.0086 139.272C96.5312 139.571 96.9152 140.003 97.1606 140.568C97.4166 141.133 97.5446 141.816 97.5446 142.616L97.4966 147H95.8486ZM93.5446 147.192C92.5846 147.192 91.8379 146.979 91.3046 146.552C90.7819 146.125 90.5206 145.523 90.5206 144.744C90.5206 143.912 90.7979 143.277 91.3526 142.84C91.9179 142.403 92.7019 142.184 93.7046 142.184H95.8486V143.56H94.2806C93.5659 143.56 93.0646 143.661 92.7766 143.864C92.4886 144.056 92.3446 144.333 92.3446 144.696C92.3446 145.005 92.4672 145.251 92.7126 145.432C92.9686 145.603 93.3206 145.688 93.7686 145.688C94.1739 145.688 94.5259 145.597 94.8246 145.416C95.1232 145.235 95.3526 144.995 95.5126 144.696C95.6832 144.397 95.7686 144.061 95.7686 143.688H96.2966C96.2966 144.776 96.0779 145.635 95.6406 146.264C95.2032 146.883 94.5046 147.192 93.5446 147.192ZM106.595 147L109.267 139H111.075L108.355 147H106.595ZM101.235 147L103.843 139H105.427L102.851 147H101.235ZM101.075 147L98.3553 139H100.163L102.771 147H101.075ZM106.579 147L104.019 139H105.603L108.211 147H106.579ZM116.895 147L116.815 145.496V142.888C116.815 142.344 116.757 141.891 116.639 141.528C116.533 141.155 116.351 140.872 116.095 140.68C115.85 140.477 115.519 140.376 115.103 140.376C114.719 140.376 114.383 140.456 114.095 140.616C113.807 140.776 113.562 141.027 113.359 141.368L111.791 140.792C111.962 140.44 112.186 140.115 112.463 139.816C112.751 139.507 113.109 139.261 113.535 139.08C113.973 138.899 114.495 138.808 115.103 138.808C115.882 138.808 116.533 138.963 117.055 139.272C117.578 139.571 117.962 140.003 118.207 140.568C118.463 141.133 118.591 141.816 118.591 142.616L118.543 147H116.895ZM114.591 147.192C113.631 147.192 112.885 146.979 112.351 146.552C111.829 146.125 111.567 145.523 111.567 144.744C111.567 143.912 111.845 143.277 112.399 142.84C112.965 142.403 113.749 142.184 114.751 142.184H116.895V143.56H115.327C114.613 143.56 114.111 143.661 113.823 143.864C113.535 144.056 113.391 144.333 113.391 144.696C113.391 145.005 113.514 145.251 113.759 145.432C114.015 145.603 114.367 145.688 114.815 145.688C115.221 145.688 115.573 145.597 115.871 145.416C116.17 145.235 116.399 144.995 116.559 144.696C116.73 144.397 116.815 144.061 116.815 143.688H117.343C117.343 144.776 117.125 145.635 116.687 146.264C116.25 146.883 115.551 147.192 114.591 147.192ZM120.406 147V135.8H122.198V147H120.406ZM128.159 147V139H129.935V147H128.159ZM129.055 137.48C128.767 137.48 128.516 137.379 128.303 137.176C128.1 136.963 127.999 136.712 127.999 136.424C127.999 136.136 128.1 135.891 128.303 135.688C128.516 135.485 128.767 135.384 129.055 135.384C129.343 135.384 129.588 135.485 129.791 135.688C130.004 135.891 130.111 136.136 130.111 136.424C130.111 136.712 130.004 136.963 129.791 137.176C129.588 137.379 129.343 137.48 129.055 137.48ZM132.047 147V139H133.727L133.839 140.472V147H132.047ZM137.471 147V142.904H139.263V147H137.471ZM137.471 142.904C137.471 142.264 137.396 141.773 137.247 141.432C137.108 141.08 136.905 140.835 136.639 140.696C136.383 140.557 136.079 140.488 135.727 140.488C135.129 140.477 134.665 140.675 134.335 141.08C134.004 141.485 133.839 142.067 133.839 142.824H133.167C133.167 141.981 133.289 141.261 133.535 140.664C133.78 140.056 134.132 139.597 134.591 139.288C135.049 138.968 135.593 138.808 136.223 138.808C136.863 138.808 137.407 138.936 137.855 139.192C138.313 139.448 138.66 139.848 138.895 140.392C139.14 140.925 139.263 141.624 139.263 142.488V142.904H137.471ZM141.19 147V139H142.966V147H141.19ZM142.086 137.48C141.798 137.48 141.547 137.379 141.334 137.176C141.131 136.963 141.03 136.712 141.03 136.424C141.03 136.136 141.131 135.891 141.334 135.688C141.547 135.485 141.798 135.384 142.086 135.384C142.374 135.384 142.619 135.485 142.822 135.688C143.035 135.891 143.142 136.136 143.142 136.424C143.142 136.712 143.035 136.963 142.822 137.176C142.619 137.379 142.374 137.48 142.086 137.48ZM148.262 147.192C147.419 147.192 146.774 146.984 146.326 146.568C145.889 146.141 145.67 145.533 145.67 144.744V136.504H147.446V144.408C147.446 144.781 147.531 145.064 147.702 145.256C147.883 145.448 148.145 145.544 148.486 145.544C148.593 145.544 148.71 145.523 148.838 145.48C148.966 145.437 149.11 145.357 149.27 145.24L149.926 146.6C149.649 146.792 149.371 146.936 149.094 147.032C148.817 147.139 148.539 147.192 148.262 147.192ZM144.342 140.536V139H149.606V140.536H144.342ZM151.471 147V139H153.247V147H151.471ZM152.367 137.48C152.079 137.48 151.829 137.379 151.615 137.176C151.413 136.963 151.311 136.712 151.311 136.424C151.311 136.136 151.413 135.891 151.615 135.688C151.829 135.485 152.079 135.384 152.367 135.384C152.655 135.384 152.901 135.485 153.103 135.688C153.317 135.891 153.423 136.136 153.423 136.424C153.423 136.712 153.317 136.963 153.103 137.176C152.901 137.379 152.655 137.48 152.367 137.48ZM160.239 147L160.159 145.496V142.888C160.159 142.344 160.101 141.891 159.983 141.528C159.877 141.155 159.695 140.872 159.439 140.68C159.194 140.477 158.863 140.376 158.447 140.376C158.063 140.376 157.727 140.456 157.439 140.616C157.151 140.776 156.906 141.027 156.703 141.368L155.135 140.792C155.306 140.44 155.53 140.115 155.807 139.816C156.095 139.507 156.453 139.261 156.879 139.08C157.317 138.899 157.839 138.808 158.447 138.808C159.226 138.808 159.877 138.963 160.399 139.272C160.922 139.571 161.306 140.003 161.551 140.568C161.807 141.133 161.935 141.816 161.935 142.616L161.887 147H160.239ZM157.935 147.192C156.975 147.192 156.229 146.979 155.695 146.552C155.173 146.125 154.911 145.523 154.911 144.744C154.911 143.912 155.189 143.277 155.743 142.84C156.309 142.403 157.093 142.184 158.095 142.184H160.239V143.56H158.671C157.957 143.56 157.455 143.661 157.167 143.864C156.879 144.056 156.735 144.333 156.735 144.696C156.735 145.005 156.858 145.251 157.103 145.432C157.359 145.603 157.711 145.688 158.159 145.688C158.565 145.688 158.917 145.597 159.215 145.416C159.514 145.235 159.743 144.995 159.903 144.696C160.074 144.397 160.159 144.061 160.159 143.688H160.687C160.687 144.776 160.469 145.635 160.031 146.264C159.594 146.883 158.895 147.192 157.935 147.192ZM166.934 147.192C166.091 147.192 165.446 146.984 164.998 146.568C164.56 146.141 164.342 145.533 164.342 144.744V136.504H166.118V144.408C166.118 144.781 166.203 145.064 166.374 145.256C166.555 145.448 166.816 145.544 167.158 145.544C167.264 145.544 167.382 145.523 167.51 145.48C167.638 145.437 167.782 145.357 167.942 145.24L168.598 146.6C168.32 146.792 168.043 146.936 167.766 147.032C167.488 147.139 167.211 147.192 166.934 147.192ZM163.014 140.536V139H168.278V140.536H163.014ZM173.505 147.192C172.727 147.192 172.033 147.016 171.425 146.664C170.828 146.301 170.353 145.805 170.001 145.176C169.66 144.547 169.489 143.821 169.489 143C169.489 142.179 169.665 141.453 170.017 140.824C170.369 140.195 170.849 139.704 171.457 139.352C172.076 138.989 172.78 138.808 173.569 138.808C174.284 138.808 174.929 138.995 175.505 139.368C176.081 139.731 176.535 140.259 176.865 140.952C177.207 141.645 177.377 142.472 177.377 143.432H171.089L171.329 143.208C171.329 143.699 171.436 144.125 171.649 144.488C171.863 144.84 172.145 145.112 172.497 145.304C172.849 145.496 173.239 145.592 173.665 145.592C174.156 145.592 174.561 145.485 174.881 145.272C175.201 145.048 175.452 144.76 175.633 144.408L177.217 145.08C176.993 145.507 176.705 145.88 176.353 146.2C176.012 146.52 175.601 146.765 175.121 146.936C174.652 147.107 174.113 147.192 173.505 147.192ZM171.441 142.28L171.185 142.056H175.697L175.457 142.28C175.457 141.843 175.361 141.485 175.169 141.208C174.977 140.92 174.732 140.707 174.433 140.568C174.145 140.419 173.841 140.344 173.521 140.344C173.201 140.344 172.881 140.419 172.561 140.568C172.241 140.707 171.975 140.92 171.761 141.208C171.548 141.485 171.441 141.843 171.441 142.28ZM184.526 147L184.446 145.512V135.8H186.222V147H184.526ZM181.918 147.192C181.192 147.192 180.558 147.021 180.014 146.68C179.48 146.328 179.059 145.837 178.75 145.208C178.451 144.579 178.302 143.843 178.302 143C178.302 142.147 178.451 141.411 178.75 140.792C179.059 140.163 179.48 139.677 180.014 139.336C180.558 138.984 181.192 138.808 181.918 138.808C182.59 138.808 183.166 138.984 183.646 139.336C184.136 139.677 184.51 140.163 184.766 140.792C185.022 141.411 185.15 142.147 185.15 143C185.15 143.843 185.022 144.579 184.766 145.208C184.51 145.837 184.136 146.328 183.646 146.68C183.166 147.021 182.59 147.192 181.918 147.192ZM182.366 145.56C182.771 145.56 183.128 145.453 183.438 145.24C183.758 145.016 184.003 144.712 184.174 144.328C184.355 143.944 184.446 143.501 184.446 143C184.446 142.499 184.355 142.056 184.174 141.672C184.003 141.288 183.758 140.989 183.438 140.776C183.128 140.563 182.766 140.456 182.35 140.456C181.923 140.456 181.544 140.563 181.214 140.776C180.883 140.989 180.622 141.288 180.43 141.672C180.248 142.056 180.152 142.499 180.142 143C180.152 143.501 180.248 143.944 180.43 144.328C180.622 144.712 180.883 145.016 181.214 145.24C181.555 145.453 181.939 145.56 182.366 145.56Z" fill="#1F1F1F"/>
</g>
<defs>
<filter id="filter0_dddd_1765_6419" x="0" y="0" width="227" height="194" filterUnits="userSpaceOnUse" color-interpolation-filters="sRGB">
<feFlood flood-opacity="0" result="BackgroundImageFix"/>
<feColorMatrix in="SourceAlpha" type="matrix" values="0 0 0 0 0 0 0 0 0 0 0 0 0 0 0 0 0 0 127 0" result="hardAlpha"/>
<feOffset dy="8"/>
<feGaussianBlur stdDeviation="8"/>
<feColorMatrix type="matrix" values="0 0 0 0 0 0 0 0 0 0 0 0 0 0 0 0 0 0 0.08 0"/>
<feBlend mode="normal" in2="BackgroundImageFix" result="effect1_dropShadow_1765_6419"/>
<feColorMatrix in="SourceAlpha" type="matrix" values="0 0 0 0 0 0 0 0 0 0 0 0 0 0 0 0 0 0 127 0" result="hardAlpha"/>
<feOffset/>
<feGaussianBlur stdDeviation="2"/>
<feColorMatrix type="matrix" values="0 0 0 0 0 0 0 0 0 0 0 0 0 0 0 0 0 0 0.04 0"/>
<feBlend mode="normal" in2="effect1_dropShadow_1765_6419" result="effect2_dropShadow_1765_6419"/>
<feColorMatrix in="SourceAlpha" type="matrix" values="0 0 0 0 0 0 0 0 0 0 0 0 0 0 0 0 0 0 127 0" result="hardAlpha"/>
<feOffset dy="-8"/>
<feGaussianBlur stdDeviation="8"/>
<feColorMatrix type="matrix" values="0 0 0 0 0 0 0 0 0 0 0 0 0 0 0 0 0 0 0.08 0"/>
<feBlend mode="normal" in2="effect2_dropShadow_1765_6419" result="effect3_dropShadow_1765_6419"/>
<feColorMatrix in="SourceAlpha" type="matrix" values="0 0 0 0 0 0 0 0 0 0 0 0 0 0 0 0 0 0 127 0" result="hardAlpha"/>
<feOffset/>
<feGaussianBlur stdDeviation="2"/>
<feColorMatrix type="matrix" values="0 0 0 0 0 0 0 0 0 0 0 0 0 0 0 0 0 0 0.04 0"/>
<feBlend mode="normal" in2="effect3_dropShadow_1765_6419" result="effect4_dropShadow_1765_6419"/>
<feBlend mode="normal" in="SourceGraphic" in2="effect4_dropShadow_1765_6419" result="shape"/>
</filter>
</defs>
</svg>
