<svg width="64" height="64" viewBox="0 0 64 64" fill="none" xmlns="http://www.w3.org/2000/svg">
<rect width="64" height="64" rx="6" fill="white"/>
<path d="M30.75 18.25V14.5C30.75 14.1685 30.8817 13.8505 31.1161 13.6161C31.3505 13.3817 31.6685 13.25 32 13.25C32.3315 13.25 32.6495 13.3817 32.8839 13.6161C33.1183 13.8505 33.25 14.1685 33.25 14.5V18.25C33.25 18.5815 33.1183 18.8995 32.8839 19.1339C32.6495 19.3683 32.3315 19.5 32 19.5C31.6685 19.5 31.3505 19.3683 31.1161 19.1339C30.8817 18.8995 30.75 18.5815 30.75 18.25ZM32 22C30.0222 22 28.0888 22.5865 26.4443 23.6853C24.7998 24.7841 23.5181 26.3459 22.7612 28.1732C22.0043 30.0004 21.8063 32.0111 22.1921 33.9509C22.578 35.8907 23.5304 37.6725 24.9289 39.0711C26.3275 40.4696 28.1093 41.422 30.0491 41.8079C31.9889 42.1937 33.9996 41.9957 35.8268 41.2388C37.6541 40.4819 39.2159 39.2002 40.3147 37.5557C41.4135 35.9112 42 33.9778 42 32C41.9971 29.3487 40.9426 26.8069 39.0679 24.9321C37.1931 23.0574 34.6513 22.0029 32 22ZM21.1156 22.8844C21.3502 23.1189 21.6683 23.2507 22 23.2507C22.3317 23.2507 22.6498 23.1189 22.8844 22.8844C23.1189 22.6498 23.2507 22.3317 23.2507 22C23.2507 21.6683 23.1189 21.3502 22.8844 21.1156L20.3844 18.6156C20.1498 18.3811 19.8317 18.2493 19.5 18.2493C19.1683 18.2493 18.8502 18.3811 18.6156 18.6156C18.3811 18.8502 18.2493 19.1683 18.2493 19.5C18.2493 19.8317 18.3811 20.1498 18.6156 20.3844L21.1156 22.8844ZM21.1156 41.1156L18.6156 43.6156C18.3811 43.8502 18.2493 44.1683 18.2493 44.5C18.2493 44.8317 18.3811 45.1498 18.6156 45.3844C18.8502 45.6189 19.1683 45.7507 19.5 45.7507C19.8317 45.7507 20.1498 45.6189 20.3844 45.3844L22.8844 42.8844C23.0005 42.7682 23.0926 42.6304 23.1555 42.4786C23.2183 42.3269 23.2507 42.1642 23.2507 42C23.2507 41.8358 23.2183 41.6731 23.1555 41.5214C23.0926 41.3696 23.0005 41.2318 22.8844 41.1156C22.7682 40.9995 22.6304 40.9074 22.4786 40.8445C22.3269 40.7817 22.1642 40.7493 22 40.7493C21.8358 40.7493 21.6731 40.7817 21.5214 40.8445C21.3696 40.9074 21.2318 40.9995 21.1156 41.1156ZM42 23.25C42.1642 23.2501 42.3268 23.2179 42.4786 23.1552C42.6303 23.0924 42.7682 23.0004 42.8844 22.8844L45.3844 20.3844C45.6189 20.1498 45.7507 19.8317 45.7507 19.5C45.7507 19.1683 45.6189 18.8502 45.3844 18.6156C45.1498 18.3811 44.8317 18.2493 44.5 18.2493C44.1683 18.2493 43.8502 18.3811 43.6156 18.6156L41.1156 21.1156C40.9406 21.2904 40.8214 21.5133 40.7731 21.7559C40.7248 21.9985 40.7495 22.25 40.8442 22.4785C40.9389 22.707 41.0993 22.9023 41.305 23.0396C41.5108 23.177 41.7526 23.2502 42 23.25ZM42.8844 41.1156C42.6498 40.8811 42.3317 40.7493 42 40.7493C41.6683 40.7493 41.3502 40.8811 41.1156 41.1156C40.8811 41.3502 40.7493 41.6683 40.7493 42C40.7493 42.3317 40.8811 42.6498 41.1156 42.8844L43.6156 45.3844C43.7318 45.5005 43.8696 45.5926 44.0214 45.6555C44.1731 45.7183 44.3358 45.7507 44.5 45.7507C44.6642 45.7507 44.8269 45.7183 44.9786 45.6555C45.1304 45.5926 45.2682 45.5005 45.3844 45.3844C45.5005 45.2682 45.5926 45.1304 45.6555 44.9786C45.7183 44.8269 45.7507 44.6642 45.7507 44.5C45.7507 44.3358 45.7183 44.1731 45.6555 44.0214C45.5926 43.8696 45.5005 43.7318 45.3844 43.6156L42.8844 41.1156ZM19.5 32C19.5 31.6685 19.3683 31.3505 19.1339 31.1161C18.8995 30.8817 18.5815 30.75 18.25 30.75H14.5C14.1685 30.75 13.8505 30.8817 13.6161 31.1161C13.3817 31.3505 13.25 31.6685 13.25 32C13.25 32.3315 13.3817 32.6495 13.6161 32.8839C13.8505 33.1183 14.1685 33.25 14.5 33.25H18.25C18.5815 33.25 18.8995 33.1183 19.1339 32.8839C19.3683 32.6495 19.5 32.3315 19.5 32ZM32 44.5C31.6685 44.5 31.3505 44.6317 31.1161 44.8661C30.8817 45.1005 30.75 45.4185 30.75 45.75V49.5C30.75 49.8315 30.8817 50.1495 31.1161 50.3839C31.3505 50.6183 31.6685 50.75 32 50.75C32.3315 50.75 32.6495 50.6183 32.8839 50.3839C33.1183 50.1495 33.25 49.8315 33.25 49.5V45.75C33.25 45.4185 33.1183 45.1005 32.8839 44.8661C32.6495 44.6317 32.3315 44.5 32 44.5ZM49.5 30.75H45.75C45.4185 30.75 45.1005 30.8817 44.8661 31.1161C44.6317 31.3505 44.5 31.6685 44.5 32C44.5 32.3315 44.6317 32.6495 44.8661 32.8839C45.1005 33.1183 45.4185 33.25 45.75 33.25H49.5C49.8315 33.25 50.1495 33.1183 50.3839 32.8839C50.6183 32.6495 50.75 32.3315 50.75 32C50.75 31.6685 50.6183 31.3505 50.3839 31.1161C50.1495 30.8817 49.8315 30.75 49.5 30.75Z" fill="#1E2F28"/>
</svg>
