<svg width="27" height="29" viewBox="0 0 27 29" fill="none" xmlns="http://www.w3.org/2000/svg">
<g filter="url(#filter0_ii_1595_8458)">
<path d="M1.40135 1.01798C1.07982 1.35754 0.88977 1.88451 0.88977 2.56693V26.9489C0.88977 27.6324 1.07982 28.1583 1.40135 28.4979L1.48312 28.5772L15.1721 14.9189V14.7579V14.597L1.48312 0.9375L1.40135 1.01798Z" fill="url(#paint0_linear_1595_8458)"/>
<path d="M19.7351 19.4762L15.1728 14.9219V14.761V14.6L19.7362 10.0469L19.839 10.1053L25.2454 13.1701C26.789 14.0455 26.789 15.4776 25.2454 16.354L19.839 19.4189L19.7351 19.4762Z" fill="url(#paint1_linear_1595_8458)"/>
<g filter="url(#filter1_i_1595_8458)">
<path d="M19.8404 19.4185L15.1732 14.7617L1.40357 28.5017C1.91183 29.0397 2.75268 29.1058 3.69961 28.57L19.8404 19.4185Z" fill="url(#paint2_linear_1595_8458)"/>
</g>
<path d="M19.8404 10.103L3.69961 0.95254C2.75268 0.415643 1.91183 0.482893 1.40357 1.02089L15.1743 14.7608L19.8404 10.103Z" fill="url(#paint3_linear_1595_8458)"/>
</g>
<defs>
<filter id="filter0_ii_1595_8458" x="0.889771" y="0.582031" width="25.5133" height="28.3594" filterUnits="userSpaceOnUse" color-interpolation-filters="sRGB">
<feFlood flood-opacity="0" result="BackgroundImageFix"/>
<feBlend mode="normal" in="SourceGraphic" in2="BackgroundImageFix" result="shape"/>
<feColorMatrix in="SourceAlpha" type="matrix" values="0 0 0 0 0 0 0 0 0 0 0 0 0 0 0 0 0 0 127 0" result="hardAlpha"/>
<feOffset dy="-0.15"/>
<feComposite in2="hardAlpha" operator="arithmetic" k2="-1" k3="1"/>
<feColorMatrix type="matrix" values="0 0 0 0 0 0 0 0 0 0 0 0 0 0 0 0 0 0 0.12 0"/>
<feBlend mode="normal" in2="shape" result="effect1_innerShadow_1595_8458"/>
<feColorMatrix in="SourceAlpha" type="matrix" values="0 0 0 0 0 0 0 0 0 0 0 0 0 0 0 0 0 0 127 0" result="hardAlpha"/>
<feOffset dy="0.15"/>
<feComposite in2="hardAlpha" operator="arithmetic" k2="-1" k3="1"/>
<feColorMatrix type="matrix" values="0 0 0 0 1 0 0 0 0 1 0 0 0 0 1 0 0 0 0.25 0"/>
<feBlend mode="normal" in2="effect1_innerShadow_1595_8458" result="effect2_innerShadow_1595_8458"/>
</filter>
<filter id="filter1_i_1595_8458" x="1.40356" y="14.7617" width="18.4369" height="14.1797" filterUnits="userSpaceOnUse" color-interpolation-filters="sRGB">
<feFlood flood-opacity="0" result="BackgroundImageFix"/>
<feBlend mode="normal" in="SourceGraphic" in2="BackgroundImageFix" result="shape"/>
<feColorMatrix in="SourceAlpha" type="matrix" values="0 0 0 0 0 0 0 0 0 0 0 0 0 0 0 0 0 0 127 0" result="hardAlpha"/>
<feOffset dy="-0.15"/>
<feComposite in2="hardAlpha" operator="arithmetic" k2="-1" k3="1"/>
<feColorMatrix type="matrix" values="0 0 0 0 0 0 0 0 0 0 0 0 0 0 0 0 0 0 0.08 0"/>
<feBlend mode="normal" in2="shape" result="effect1_innerShadow_1595_8458"/>
</filter>
<linearGradient id="paint0_linear_1595_8458" x1="13.9587" y1="2.30896" x2="-4.54276" y2="20.8518" gradientUnits="userSpaceOnUse">
<stop stop-color="#00A0FF"/>
<stop offset="0.0066" stop-color="#00A1FF"/>
<stop offset="0.2601" stop-color="#00BEFF"/>
<stop offset="0.5122" stop-color="#00D2FF"/>
<stop offset="0.7604" stop-color="#00DFFF"/>
<stop offset="1" stop-color="#00E3FF"/>
</linearGradient>
<linearGradient id="paint1_linear_1595_8458" x1="27.2547" y1="14.761" x2="0.519935" y2="14.761" gradientUnits="userSpaceOnUse">
<stop stop-color="#FFE000"/>
<stop offset="0.4087" stop-color="#FFBD00"/>
<stop offset="0.7754" stop-color="#FFA500"/>
<stop offset="1" stop-color="#FF9C00"/>
</linearGradient>
<linearGradient id="paint2_linear_1595_8458" x1="17.3058" y1="17.2906" x2="-7.78442" y2="42.4371" gradientUnits="userSpaceOnUse">
<stop stop-color="#FF3A44"/>
<stop offset="1" stop-color="#C31162"/>
</linearGradient>
<linearGradient id="paint3_linear_1595_8458" x1="-2.06437" y1="-7.09563" x2="9.13912" y2="4.13297" gradientUnits="userSpaceOnUse">
<stop stop-color="#32A071"/>
<stop offset="0.0685" stop-color="#2DA771"/>
<stop offset="0.4762" stop-color="#15CF74"/>
<stop offset="0.8009" stop-color="#06E775"/>
<stop offset="1" stop-color="#00F076"/>
</linearGradient>
</defs>
</svg>
