<svg width="194" height="66" viewBox="0 0 194 66" fill="none" xmlns="http://www.w3.org/2000/svg">
<rect x="1" y="1.25" width="192" height="64" rx="32" fill="#22262A"/>
<rect x="1" y="1.25" width="192" height="64" rx="32" stroke="#F5FFFB"/>
<path d="M98.1536 35.4399C95.5548 35.4399 93.4367 37.4122 93.4367 40.1286C93.4367 42.8286 95.5548 44.8174 98.1536 44.8174C100.754 44.8174 102.872 42.8286 102.872 40.1286C102.871 37.4122 100.752 35.4399 98.1536 35.4399ZM98.1536 42.9719C96.7294 42.9719 95.5018 41.8 95.5018 40.1297C95.5018 38.4419 96.7305 37.2876 98.1536 37.2876C99.5779 37.2876 100.805 38.4419 100.805 40.1297C100.805 41.7989 99.5779 42.9719 98.1536 42.9719ZM87.8623 35.4399C85.2635 35.4399 83.1454 37.4122 83.1454 40.1286C83.1454 42.8286 85.2635 44.8174 87.8623 44.8174C90.4622 44.8174 92.5804 42.8286 92.5804 40.1286C92.5804 37.4122 90.4622 35.4399 87.8623 35.4399ZM87.8623 42.9719C86.4381 42.9719 85.2105 41.8 85.2105 40.1297C85.2105 38.4419 86.4392 37.2876 87.8623 37.2876C89.2866 37.2876 90.5142 38.4419 90.5142 40.1297C90.5153 41.7989 89.2866 42.9719 87.8623 42.9719ZM75.6219 36.8797V38.8685H80.393C80.2505 39.9875 79.877 40.8044 79.3069 41.3722C78.613 42.0645 77.5268 42.8286 75.6219 42.8286C72.685 42.8286 70.389 40.466 70.389 37.5356C70.389 34.6053 72.685 32.2427 75.6219 32.2427C77.2064 32.2427 78.3632 32.8645 79.2174 33.6638L80.6239 32.2604C79.4306 31.1237 77.8472 30.2539 75.6219 30.2539C71.5989 30.2539 68.2167 33.5216 68.2167 37.5356C68.2167 41.5497 71.5989 44.8174 75.6219 44.8174C77.7931 44.8174 79.4317 44.1063 80.7123 42.7745C82.0294 41.4604 82.4393 39.6127 82.4393 38.1211C82.4393 37.6602 82.404 37.2336 82.3322 36.8786H75.6219V36.8797ZM125.684 38.4242C125.293 37.3769 124.1 35.4399 121.661 35.4399C119.24 35.4399 117.228 37.3405 117.228 40.1286C117.228 42.7569 119.222 44.8174 121.892 44.8174C124.045 44.8174 125.292 43.5033 125.809 42.7393L124.207 41.6732C123.673 42.4548 122.943 42.9697 121.892 42.9697C120.842 42.9697 120.094 42.4901 119.614 41.5486L125.897 38.9556L125.684 38.4242ZM119.275 39.9875C119.222 38.1751 120.682 37.2523 121.733 37.2523C122.552 37.2523 123.245 37.6613 123.478 38.2467L119.275 39.9875ZM114.167 44.5341H116.231V30.7522H114.167V44.5341ZM110.784 36.4883H110.713C110.25 35.9371 109.36 35.4399 108.239 35.4399C105.889 35.4399 103.736 37.5004 103.736 40.1474C103.736 42.7756 105.889 44.8185 108.239 44.8185C109.361 44.8185 110.25 44.3213 110.713 43.7535H110.784V44.4282C110.784 46.2219 109.823 47.1811 108.275 47.1811C107.011 47.1811 106.227 46.2759 105.907 45.5119L104.109 46.2583C104.625 47.5008 105.995 49.0288 108.275 49.0288C110.696 49.0288 112.743 47.6077 112.743 44.1438V35.7254H110.785V36.4883H110.784ZM108.417 42.9719C106.993 42.9719 105.801 41.7812 105.801 40.1474C105.801 38.4948 106.993 37.2876 108.417 37.2876C109.823 37.2876 110.927 38.4948 110.927 40.1474C110.927 41.7812 109.823 42.9719 108.417 42.9719ZM135.357 30.7522H130.416V44.5341H132.477V39.3128H135.356C137.641 39.3128 139.888 37.6624 139.888 35.0331C139.888 32.4037 137.642 30.7522 135.357 30.7522ZM135.41 37.3945H132.477V32.6705H135.41C136.951 32.6705 137.826 33.9438 137.826 35.0331C137.826 36.1002 136.951 37.3945 135.41 37.3945ZM148.152 35.4156C146.659 35.4156 145.113 36.0716 144.473 37.5257L146.303 38.2875C146.694 37.5257 147.424 37.2766 148.187 37.2766C149.253 37.2766 150.337 37.9149 150.355 39.0493V39.1915C149.981 38.9788 149.182 38.6602 148.205 38.6602C146.232 38.6602 144.224 39.7417 144.224 41.7625C144.224 43.6069 145.841 44.7942 147.653 44.7942C149.039 44.7942 149.804 44.1736 150.283 43.4459H150.354V44.5098H152.345V39.2257C152.346 36.7805 150.514 35.4156 148.152 35.4156ZM147.902 42.9686C147.228 42.9686 146.285 42.6312 146.285 41.7978C146.285 40.7339 147.459 40.326 148.472 40.326C149.377 40.326 149.805 40.5211 150.355 40.7868C150.195 42.0646 149.093 42.9686 147.902 42.9686ZM159.595 35.7166L157.232 41.6919H157.161L154.708 35.7166H152.487L156.166 44.0677L154.069 48.7135H156.219L161.888 35.7166H159.595ZM141.026 44.5341H143.087V30.7522H141.026V44.5341Z" fill="white"/>
<path d="M75.2617 22.7514C75.2617 23.6753 74.9877 24.4106 74.4385 24.9596C73.8154 25.6123 73.0021 25.9386 72.0033 25.9386C71.0464 25.9386 70.2321 25.6079 69.5636 24.9464C68.894 24.2838 68.5592 23.4636 68.5592 22.4846C68.5592 21.5045 68.894 20.6843 69.5636 20.0228C70.2321 19.3602 71.0464 19.0295 72.0033 19.0295C72.4784 19.0295 72.9325 19.1221 73.3634 19.3062C73.7955 19.4914 74.1413 19.7373 74.3999 20.0449L73.8176 20.627C73.3789 20.1033 72.7745 19.842 72.0022 19.842C71.3038 19.842 70.7006 20.0868 70.1912 20.5762C69.6818 21.0657 69.4277 21.7019 69.4277 22.4835C69.4277 23.2651 69.6818 23.9013 70.1912 24.3908C70.7006 24.8802 71.3038 25.125 72.0022 25.125C72.7425 25.125 73.3601 24.8791 73.854 24.3863C74.1745 24.0655 74.3601 23.619 74.4098 23.0469H72.0022V22.252H75.2142C75.2473 22.4251 75.2617 22.5915 75.2617 22.7514Z" fill="white"/>
<path d="M80.3555 19.9887H77.3369V22.0856H80.0594V22.8804H77.3369V24.9773H80.3555V25.7909H76.485V19.1762H80.3555V19.9887Z" fill="white"/>
<path d="M83.9475 25.7909H83.0956V19.9887H81.2438V19.1762H85.7994V19.9887H83.9475V25.7909Z" fill="white"/>
<path d="M89.0954 25.7909V19.1762H89.9473V25.7909H89.0954Z" fill="white"/>
<path d="M93.7252 25.7909H92.8733V19.9887H91.0214V19.1762H95.5771V19.9887H93.7252V25.7909Z" fill="white"/>
<path d="M104.201 24.9365C103.549 25.6046 102.739 25.9387 101.77 25.9387C100.801 25.9387 99.991 25.6046 99.3402 24.9365C98.6883 24.2684 98.3634 23.4504 98.3634 22.4836C98.3634 21.5167 98.6883 20.6987 99.3402 20.0306C99.991 19.3625 100.801 19.0273 101.77 19.0273C102.733 19.0273 103.542 19.3636 104.196 20.035C104.85 20.7064 105.178 21.5222 105.178 22.4836C105.178 23.4504 104.852 24.2684 104.201 24.9365ZM99.9689 24.382C100.459 24.8781 101.059 25.125 101.77 25.125C102.48 25.125 103.081 24.877 103.571 24.382C104.062 23.8859 104.308 23.2531 104.308 22.4836C104.308 21.714 104.062 21.0812 103.571 20.5851C103.081 20.089 102.48 19.8421 101.77 19.8421C101.059 19.8421 100.459 20.0901 99.9689 20.5851C99.4794 21.0812 99.233 21.714 99.233 22.4836C99.233 23.2531 99.4794 23.8859 99.9689 24.382Z" fill="white"/>
<path d="M106.373 25.7909V19.1762H107.41L110.631 24.3214H110.668L110.631 23.0469V19.1762H111.483V25.7909H110.594L107.223 20.3955H107.186L107.223 21.6699V25.7909H106.373Z" fill="white"/>
<path d="M75.2617 22.7514C75.2617 23.6753 74.9877 24.4106 74.4385 24.9596C73.8154 25.6123 73.0021 25.9386 72.0033 25.9386C71.0464 25.9386 70.2321 25.6079 69.5636 24.9464C68.894 24.2838 68.5592 23.4636 68.5592 22.4846C68.5592 21.5045 68.894 20.6843 69.5636 20.0228C70.2321 19.3602 71.0464 19.0295 72.0033 19.0295C72.4784 19.0295 72.9325 19.1221 73.3634 19.3062C73.7955 19.4914 74.1413 19.7373 74.3999 20.0449L73.8176 20.627C73.3789 20.1033 72.7745 19.842 72.0022 19.842C71.3038 19.842 70.7006 20.0868 70.1912 20.5762C69.6818 21.0657 69.4277 21.7019 69.4277 22.4835C69.4277 23.2651 69.6818 23.9013 70.1912 24.3908C70.7006 24.8802 71.3038 25.125 72.0022 25.125C72.7425 25.125 73.3601 24.8791 73.854 24.3863C74.1745 24.0655 74.3601 23.619 74.4098 23.0469H72.0022V22.252H75.2142C75.2473 22.4251 75.2617 22.5915 75.2617 22.7514Z" stroke="white" stroke-width="0.2" stroke-miterlimit="10"/>
<path d="M80.3555 19.9887H77.3369V22.0856H80.0594V22.8804H77.3369V24.9773H80.3555V25.7909H76.485V19.1762H80.3555V19.9887Z" stroke="white" stroke-width="0.2" stroke-miterlimit="10"/>
<path d="M83.9475 25.7909H83.0956V19.9887H81.2438V19.1762H85.7994V19.9887H83.9475V25.7909Z" stroke="white" stroke-width="0.2" stroke-miterlimit="10"/>
<path d="M89.0954 25.7909V19.1762H89.9473V25.7909H89.0954Z" stroke="white" stroke-width="0.2" stroke-miterlimit="10"/>
<path d="M93.7252 25.7909H92.8733V19.9887H91.0214V19.1762H95.5771V19.9887H93.7252V25.7909Z" stroke="white" stroke-width="0.2" stroke-miterlimit="10"/>
<path d="M104.201 24.9365C103.549 25.6046 102.739 25.9387 101.77 25.9387C100.801 25.9387 99.991 25.6046 99.3402 24.9365C98.6883 24.2684 98.3634 23.4504 98.3634 22.4836C98.3634 21.5167 98.6883 20.6987 99.3402 20.0306C99.991 19.3625 100.801 19.0273 101.77 19.0273C102.733 19.0273 103.542 19.3636 104.196 20.035C104.85 20.7064 105.178 21.5222 105.178 22.4836C105.178 23.4504 104.852 24.2684 104.201 24.9365ZM99.9689 24.382C100.459 24.8781 101.059 25.125 101.77 25.125C102.48 25.125 103.081 24.877 103.571 24.382C104.062 23.8859 104.308 23.2531 104.308 22.4836C104.308 21.714 104.062 21.0812 103.571 20.5851C103.081 20.089 102.48 19.8421 101.77 19.8421C101.059 19.8421 100.459 20.0901 99.9689 20.5851C99.4794 21.0812 99.233 21.714 99.233 22.4836C99.233 23.2531 99.4794 23.8859 99.9689 24.382Z" stroke="white" stroke-width="0.2" stroke-miterlimit="10"/>
<path d="M106.373 25.7909V19.1762H107.41L110.631 24.3214H110.668L110.631 23.0469V19.1762H111.483V25.7909H110.594L107.223 20.3955H107.186L107.223 21.6699V25.7909H106.373Z" stroke="white" stroke-width="0.2" stroke-miterlimit="10"/>
<g filter="url(#filter0_ii_1859_6980)">
<path d="M34.4014 19.768C34.0798 20.1075 33.8898 20.6345 33.8898 21.3169V45.6989C33.8898 46.3824 34.0798 46.9083 34.4014 47.2479L34.4831 47.3272L48.1721 33.6689V33.5079V33.347L34.4831 19.6875L34.4014 19.768Z" fill="url(#paint0_linear_1859_6980)"/>
<path d="M52.7351 38.2262L48.1728 33.6719V33.511V33.35L52.7362 28.7969L52.839 28.8553L58.2454 31.9201C59.789 32.7955 59.789 34.2276 58.2454 35.104L52.839 38.1689L52.7351 38.2262Z" fill="url(#paint1_linear_1859_6980)"/>
<g filter="url(#filter1_i_1859_6980)">
<path d="M52.8404 38.1685L48.1732 33.5117L34.4036 47.2517C34.9118 47.7897 35.7527 47.8558 36.6996 47.32L52.8404 38.1685Z" fill="url(#paint2_linear_1859_6980)"/>
</g>
<path d="M52.8404 28.8529L36.6996 19.7025C35.7527 19.1656 34.9118 19.2329 34.4036 19.7709L48.1743 33.5108L52.8404 28.8529Z" fill="url(#paint3_linear_1859_6980)"/>
</g>
<defs>
<filter id="filter0_ii_1859_6980" x="33.8898" y="19.332" width="25.5133" height="28.3594" filterUnits="userSpaceOnUse" color-interpolation-filters="sRGB">
<feFlood flood-opacity="0" result="BackgroundImageFix"/>
<feBlend mode="normal" in="SourceGraphic" in2="BackgroundImageFix" result="shape"/>
<feColorMatrix in="SourceAlpha" type="matrix" values="0 0 0 0 0 0 0 0 0 0 0 0 0 0 0 0 0 0 127 0" result="hardAlpha"/>
<feOffset dy="-0.15"/>
<feComposite in2="hardAlpha" operator="arithmetic" k2="-1" k3="1"/>
<feColorMatrix type="matrix" values="0 0 0 0 0 0 0 0 0 0 0 0 0 0 0 0 0 0 0.12 0"/>
<feBlend mode="normal" in2="shape" result="effect1_innerShadow_1859_6980"/>
<feColorMatrix in="SourceAlpha" type="matrix" values="0 0 0 0 0 0 0 0 0 0 0 0 0 0 0 0 0 0 127 0" result="hardAlpha"/>
<feOffset dy="0.15"/>
<feComposite in2="hardAlpha" operator="arithmetic" k2="-1" k3="1"/>
<feColorMatrix type="matrix" values="0 0 0 0 1 0 0 0 0 1 0 0 0 0 1 0 0 0 0.25 0"/>
<feBlend mode="normal" in2="effect1_innerShadow_1859_6980" result="effect2_innerShadow_1859_6980"/>
</filter>
<filter id="filter1_i_1859_6980" x="34.4036" y="33.5117" width="18.4369" height="14.1797" filterUnits="userSpaceOnUse" color-interpolation-filters="sRGB">
<feFlood flood-opacity="0" result="BackgroundImageFix"/>
<feBlend mode="normal" in="SourceGraphic" in2="BackgroundImageFix" result="shape"/>
<feColorMatrix in="SourceAlpha" type="matrix" values="0 0 0 0 0 0 0 0 0 0 0 0 0 0 0 0 0 0 127 0" result="hardAlpha"/>
<feOffset dy="-0.15"/>
<feComposite in2="hardAlpha" operator="arithmetic" k2="-1" k3="1"/>
<feColorMatrix type="matrix" values="0 0 0 0 0 0 0 0 0 0 0 0 0 0 0 0 0 0 0.08 0"/>
<feBlend mode="normal" in2="shape" result="effect1_innerShadow_1859_6980"/>
</filter>
<linearGradient id="paint0_linear_1859_6980" x1="46.9587" y1="21.059" x2="28.4572" y2="39.6018" gradientUnits="userSpaceOnUse">
<stop stop-color="#00A0FF"/>
<stop offset="0.0066" stop-color="#00A1FF"/>
<stop offset="0.2601" stop-color="#00BEFF"/>
<stop offset="0.5122" stop-color="#00D2FF"/>
<stop offset="0.7604" stop-color="#00DFFF"/>
<stop offset="1" stop-color="#00E3FF"/>
</linearGradient>
<linearGradient id="paint1_linear_1859_6980" x1="60.2547" y1="33.511" x2="33.5199" y2="33.511" gradientUnits="userSpaceOnUse">
<stop stop-color="#FFE000"/>
<stop offset="0.4087" stop-color="#FFBD00"/>
<stop offset="0.7754" stop-color="#FFA500"/>
<stop offset="1" stop-color="#FF9C00"/>
</linearGradient>
<linearGradient id="paint2_linear_1859_6980" x1="50.3058" y1="36.0406" x2="25.2156" y2="61.1871" gradientUnits="userSpaceOnUse">
<stop stop-color="#FF3A44"/>
<stop offset="1" stop-color="#C31162"/>
</linearGradient>
<linearGradient id="paint3_linear_1859_6980" x1="30.9356" y1="11.6544" x2="42.1391" y2="22.883" gradientUnits="userSpaceOnUse">
<stop stop-color="#32A071"/>
<stop offset="0.0685" stop-color="#2DA771"/>
<stop offset="0.4762" stop-color="#15CF74"/>
<stop offset="0.8009" stop-color="#06E775"/>
<stop offset="1" stop-color="#00F076"/>
</linearGradient>
</defs>
</svg>
