<svg width="64" height="64" viewBox="0 0 64 64" fill="none" xmlns="http://www.w3.org/2000/svg">
<rect width="64" height="64" rx="6" fill="#1E2F28"/>
<g clip-path="url(#clip0_1744_6983)">
<path d="M47.3314 39.7003C45.5035 42.622 42.8006 44.8928 39.6075 46.1895C36.8063 47.3193 33.7456 47.6461 30.769 47.1331C27.7924 46.6201 25.0177 45.2876 22.7563 43.2852C20.495 41.2829 18.8364 38.6899 17.9669 35.7973C17.0973 32.9046 17.0512 29.8269 17.8337 26.9096C18.7357 23.5013 20.7309 20.4832 23.5133 18.3181C26.2329 16.2011 29.5509 14.9957 32.9951 14.8735C33.2222 14.8651 33.4473 14.9188 33.6462 15.0288C33.845 15.1388 34.0102 15.3009 34.1238 15.4977C34.2374 15.6945 34.2952 15.9185 34.291 16.1457C34.2868 16.3729 34.2208 16.5947 34.1 16.7872C32.7871 18.903 32.0728 21.3353 32.0332 23.825C31.9937 26.3147 32.6303 28.7685 33.8753 30.9249C35.1203 33.0813 36.9271 34.8596 39.103 36.0702C41.2789 37.2808 43.7425 37.8783 46.2313 37.7992C46.4584 37.7908 46.6835 37.8445 46.8823 37.9545C47.0812 38.0645 47.2463 38.2266 47.3599 38.4234C47.4736 38.6202 47.5314 38.8442 47.5272 39.0714C47.523 39.2986 47.4569 39.5204 47.3361 39.7129L47.3314 39.7003Z" fill="white"/>
</g>
<defs>
<clipPath id="clip0_1744_6983">
<rect width="40" height="40" fill="white" transform="translate(17.8569 7.50391) rotate(15)"/>
</clipPath>
</defs>
</svg>
