<svg width="28" height="28" viewBox="0 0 28 28" fill="none" xmlns="http://www.w3.org/2000/svg">
<rect width="28" height="28" rx="14" fill="#25A774"/>
<path d="M10.5577 18.814V17.4C10.5577 17.1294 10.6417 16.8307 10.8097 16.504C10.9777 16.1774 11.211 15.8507 11.5097 15.524C11.8084 15.1974 12.1584 14.894 12.5597 14.614L14.0437 13.55C14.249 13.41 14.4404 13.2514 14.6177 13.074C14.8044 12.8967 14.9537 12.7054 15.0657 12.5C15.187 12.2854 15.2477 12.08 15.2477 11.884C15.2477 11.6414 15.187 11.422 15.0657 11.226C14.9537 11.03 14.7857 10.876 14.5617 10.764C14.3377 10.652 14.0624 10.596 13.7357 10.596C13.4557 10.596 13.2037 10.652 12.9797 10.764C12.765 10.876 12.5877 11.0254 12.4477 11.212C12.3077 11.3987 12.2097 11.5994 12.1537 11.814L10.1797 11.478C10.273 11.0114 10.4737 10.5774 10.7817 10.176C11.0897 9.7747 11.491 9.4527 11.9857 9.21003C12.4897 8.95803 13.059 8.83203 13.6937 8.83203C14.4217 8.83203 15.047 8.9627 15.5697 9.22403C16.0924 9.48537 16.4937 9.8447 16.7737 10.302C17.063 10.75 17.2077 11.2727 17.2077 11.87C17.2077 12.4767 17.0397 13.018 16.7037 13.494C16.377 13.9607 15.9244 14.3994 15.3457 14.81L14.0157 15.776C13.745 15.9627 13.5117 16.168 13.3157 16.392C13.1197 16.616 12.9704 16.8634 12.8677 17.134H17.3337V18.814H10.5577Z" fill="white"/>
</svg>
