<svg width="28" height="28" viewBox="0 0 28 28" fill="none" xmlns="http://www.w3.org/2000/svg">
<rect width="28" height="28" rx="14" fill="#25A774"/>
<path d="M13.9964 18.9798C13.4177 18.9798 12.8951 18.8958 12.4284 18.7278C11.9617 18.5504 11.5697 18.3031 11.2524 17.9858C10.9444 17.6591 10.7297 17.2764 10.6084 16.8378L12.3724 16.3198C12.4377 16.4318 12.5264 16.5718 12.6384 16.7398C12.7504 16.8984 12.9044 17.0338 13.1004 17.1458C13.2964 17.2578 13.5531 17.3138 13.8704 17.3138C14.3371 17.3138 14.7057 17.1878 14.9764 16.9358C15.2564 16.6744 15.3964 16.3384 15.3964 15.9278C15.3964 15.6478 15.3264 15.4004 15.1864 15.1858C15.0464 14.9711 14.8177 14.8078 14.5004 14.6958C14.1924 14.5744 13.7864 14.5138 13.2824 14.5138H12.6944V13.2118H13.2124C13.7724 13.2118 14.2997 13.2818 14.7944 13.4218C15.2891 13.5524 15.7231 13.7484 16.0964 14.0098C16.4791 14.2618 16.7777 14.5698 16.9924 14.9338C17.2071 15.2884 17.3144 15.6944 17.3144 16.1518C17.3144 16.7398 17.1604 17.2484 16.8524 17.6778C16.5444 18.0978 16.1384 18.4198 15.6344 18.6438C15.1304 18.8678 14.5844 18.9798 13.9964 18.9798ZM12.6944 14.1638V12.9458H13.2824C13.9357 12.9458 14.4211 12.8338 14.7384 12.6098C15.0557 12.3858 15.2144 12.0778 15.2144 11.6858C15.2144 11.4618 15.1584 11.2611 15.0464 11.0837C14.9344 10.9064 14.7757 10.7664 14.5704 10.6638C14.3651 10.5611 14.1271 10.5097 13.8564 10.5097C13.6791 10.5097 13.4971 10.5424 13.3104 10.6078C13.1237 10.6637 12.9511 10.7617 12.7924 10.9018C12.6431 11.0324 12.5217 11.2238 12.4284 11.4757L10.6924 10.9577C10.8231 10.5004 11.0471 10.1178 11.3644 9.80975C11.6911 9.49242 12.0784 9.25442 12.5264 9.09575C12.9744 8.92775 13.4364 8.84375 13.9124 8.84375C14.5191 8.84375 15.0651 8.96042 15.5504 9.19375C16.0357 9.41775 16.4184 9.73042 16.6984 10.1318C16.9784 10.5331 17.1184 10.9951 17.1184 11.5178C17.1184 11.9658 17.0111 12.3531 16.7964 12.6798C16.5817 13.0064 16.2877 13.2818 15.9144 13.5058C15.5504 13.7298 15.1351 13.8978 14.6684 14.0098C14.2017 14.1124 13.7164 14.1638 13.2124 14.1638H12.6944Z" fill="white"/>
</svg>
