<svg width="36" height="36" viewBox="0 0 36 36" fill="none" xmlns="http://www.w3.org/2000/svg">
<path d="M32.1344 0H2.9754C1.33213 0 0 1.33205 0 2.97521V33.0248C0 34.668 1.33213 36 2.9754 36H32.1344C33.7776 36 35.1098 34.668 35.1098 33.0248V2.97521C35.1098 1.33205 33.7776 0 32.1344 0Z" fill="#25A774"/>
<path d="M29.6476 12.247C30.1388 13.3557 30.3873 14.5518 30.3328 15.7332C30.2877 16.9143 29.9409 18.0631 29.3904 19.0876C28.8374 20.1129 28.0816 21.0199 27.2347 21.7797C26.8619 22.1033 26.4814 22.4033 26.0854 22.6696C25.6922 22.9257 25.3153 23.1689 24.9124 23.3811C22.1384 24.8971 19.0232 25.4732 16.0547 25.1426L15.0647 30.8668C14.9143 31.6527 11.6426 31.6335 11.4108 30.8355L8.70265 13.3731C7.04388 13.863 5.73795 14.1012 5.68959 13.7606L5.63715 13.5528L4.62683 9.54415L7.21629 7.63704C9.08405 6.26129 11.1795 5.39124 13.2675 4.96198C15.3605 4.5278 17.4622 4.52619 19.4787 4.90995C21.4932 5.28966 23.4362 6.04661 25.1638 7.18697C25.587 7.48864 26.0086 7.78947 26.4059 8.12162L26.9852 8.64403C27.1816 8.81924 27.3564 8.98918 27.5528 9.19691C28.4281 10.1076 29.1577 11.1356 29.6476 12.247ZM23.4305 16.7783C23.5809 16.177 23.3752 15.5622 22.9775 15.2045C22.7869 15.0211 22.5714 14.8898 22.3636 14.7975C22.2026 14.691 21.9697 14.5889 21.7896 14.4784C21.5884 14.38 21.3741 14.3003 21.1733 14.2097C20.3215 13.9048 19.3892 13.7731 18.4716 13.8149C18.3155 13.8206 18.161 13.8397 18.0065 13.8568L16.7392 21.1846C18.7009 20.8891 20.5394 20.056 21.9291 18.8523C22.1515 18.6714 22.3584 18.4592 22.552 18.2677C22.7366 18.077 22.898 17.873 23.0459 17.6734C23.2325 17.379 23.3622 17.0799 23.4305 16.7783Z" fill="white"/>
</svg>
