<svg width="359" height="170" viewBox="0 0 359 170" fill="none" xmlns="http://www.w3.org/2000/svg">
<g filter="url(#filter0_dddd_1656_19673)">
<rect x="16" y="24" width="327" height="122" rx="8" fill="white"/>
<rect x="16.5" y="24.5" width="326" height="121" rx="7.5" stroke="#EBEBEB"/>
<path d="M57.3334 84.3349C55.1734 84.3349 53.1334 83.2149 51.9867 81.3749C51.3734 80.4282 51.0267 79.2948 51 78.1348C50.96 76.1882 51.7867 74.3748 53.2667 73.1482C54.3734 72.2282 55.7601 71.7082 57.1867 71.6682C58.9201 71.6549 60.48 72.2549 61.7067 73.4282C62.9334 74.6015 63.6267 76.1749 63.6534 77.8682C63.68 79.0282 63.3867 80.1615 62.8001 81.1615C62.4801 81.7215 62.0667 82.2415 61.5734 82.6815C60.48 83.7082 59.0134 84.3082 57.4534 84.3349C57.4267 84.3349 57.3867 84.3349 57.3334 84.3349ZM57.3334 73.6682C57.3067 73.6682 57.2667 73.6682 57.24 73.6682C56.2534 73.6949 55.32 74.0415 54.5467 74.6815C53.5334 75.5215 52.9734 76.7615 53 78.0949C53.0134 78.8815 53.2534 79.6548 53.6667 80.3082C54.48 81.6148 55.8934 82.4149 57.4134 82.3349C58.4667 82.3082 59.4667 81.9082 60.2267 81.2016C60.5734 80.8949 60.8534 80.5482 61.0667 80.1749C61.4667 79.4815 61.6667 78.7082 61.6534 77.9215C61.6267 76.7615 61.16 75.6815 60.32 74.8815C59.52 74.0948 58.4534 73.6682 57.3334 73.6682Z" fill="#25A774"/>
<path d="M56.5999 80.3342C56.3465 80.3342 56.1065 80.2408 55.9065 80.0542L54.5599 78.7742C54.1599 78.3876 54.1465 77.7609 54.5332 77.3609C54.9199 76.9609 55.5465 76.9475 55.9465 77.3342L56.5999 77.9608L58.6932 75.9342C59.0932 75.5476 59.7198 75.5608 60.1065 75.9608C60.4932 76.3608 60.4799 76.9876 60.0799 77.3743L57.2932 80.0675C57.0932 80.2409 56.8399 80.3342 56.5999 80.3342Z" fill="#25A774"/>
<path d="M47.9998 71.7318C47.8265 71.7318 47.6532 71.6919 47.4932 71.5985L35.7198 64.7852C35.2398 64.5052 35.0798 63.8919 35.3598 63.4119C35.6398 62.9319 36.2532 62.7718 36.7198 63.0518L47.9865 69.5719L59.1865 63.0919C59.6665 62.8119 60.2798 62.9852 60.5465 63.4519C60.8265 63.9319 60.6532 64.5452 60.1865 64.8252L48.4932 71.5985C48.3465 71.6785 48.1732 71.7318 47.9998 71.7318Z" fill="#25A774"/>
<path d="M48 83.8121C47.4533 83.8121 47 83.3588 47 82.8121V70.7188C47 70.1721 47.4533 69.7188 48 69.7188C48.5467 69.7188 49 70.1721 49 70.7188V82.8121C49 83.3588 48.5467 83.8121 48 83.8121Z" fill="#25A774"/>
<path d="M47.9999 84.3345C46.8265 84.3345 45.6532 84.0812 44.7465 83.5612L37.6265 79.6146C35.6932 78.5479 34.1732 75.9745 34.1732 73.7612V66.2145C34.1732 64.0012 35.6932 61.4412 37.6265 60.3612L44.7465 56.4145C46.5599 55.3879 49.4132 55.3879 51.2399 56.4145L58.3599 60.3612C60.2932 61.4279 61.8132 64.0012 61.8132 66.2145V73.7612C61.8132 73.8945 61.8132 74.0012 61.7865 74.1345C61.7199 74.4812 61.4666 74.7745 61.1332 74.8812C60.7999 75.0012 60.4265 74.9212 60.1465 74.6946C58.6132 73.3612 56.2399 73.3079 54.6265 74.6012C53.5999 75.4146 52.9999 76.6545 52.9999 77.9745C52.9999 78.7612 53.2132 79.5346 53.6265 80.2012C53.7332 80.3879 53.8399 80.5345 53.9599 80.6812C54.1599 80.9079 54.2399 81.2145 54.1866 81.5079C54.1332 81.8012 53.9466 82.0546 53.6799 82.2012L51.2399 83.5478C50.3332 84.0812 49.1732 84.3345 47.9999 84.3345ZM47.9999 57.6679C47.1732 57.6679 46.3332 57.8412 45.7332 58.1745L38.6132 62.1212C37.3199 62.8279 36.1999 64.7478 36.1999 66.2145V73.7612C36.1999 75.2279 37.3332 77.1479 38.6132 77.8546L45.7332 81.8012C46.9465 82.4812 49.0665 82.4812 50.2799 81.8012L51.7732 80.9745C51.2799 80.0812 51.0132 79.0412 51.0132 77.9745C51.0132 76.0278 51.8799 74.2279 53.3866 73.0279C55.1999 71.5746 57.7865 71.2678 59.8265 72.1345V66.1879C59.8265 64.7212 58.6932 62.8012 57.4132 62.0945L50.2932 58.1478C49.6665 57.8412 48.8265 57.6679 47.9999 57.6679Z" fill="#25A774"/>
<path d="M82.304 54.192C81.1947 54.192 80.2133 53.9467 79.36 53.456C78.5067 52.9653 77.8347 52.2827 77.344 51.408C76.864 50.5333 76.624 49.5307 76.624 48.4C76.624 47.2693 76.864 46.272 77.344 45.408C77.8347 44.5333 78.5013 43.8507 79.344 43.36C80.1867 42.8587 81.1573 42.608 82.256 42.608C83.3653 42.608 84.3413 42.8587 85.184 43.36C86.0373 43.8507 86.6987 44.5333 87.168 45.408C87.648 46.272 87.888 47.2693 87.888 48.4C87.888 49.5307 87.648 50.5333 87.168 51.408C86.6987 52.2827 86.0427 52.9653 85.2 53.456C84.368 53.9467 83.4027 54.192 82.304 54.192ZM82.304 52.496C83.0293 52.496 83.6693 52.32 84.224 51.968C84.7787 51.616 85.2107 51.136 85.52 50.528C85.84 49.9093 86 49.2 86 48.4C86 47.6107 85.84 46.9067 85.52 46.288C85.2 45.6693 84.7573 45.1893 84.192 44.848C83.6373 44.496 82.992 44.32 82.256 44.32C81.5307 44.32 80.8853 44.496 80.32 44.848C79.7653 45.1893 79.3227 45.6693 78.992 46.288C78.672 46.896 78.512 47.6 78.512 48.4C78.512 49.2 78.672 49.9093 78.992 50.528C79.3227 51.136 79.7707 51.616 80.336 51.968C80.912 52.32 81.568 52.496 82.304 52.496ZM90.7073 49.744C90.7073 48.88 90.8726 48.1707 91.2033 47.616C91.5339 47.0613 91.9606 46.6507 92.4833 46.384C93.0166 46.1067 93.5713 45.968 94.1473 45.968V47.68C93.6566 47.68 93.1926 47.7493 92.7552 47.888C92.3286 48.016 91.9819 48.2293 91.7153 48.528C91.4486 48.8267 91.3153 49.2213 91.3153 49.712L90.7073 49.744ZM89.5233 54V46H91.3153V54H89.5233ZM101.112 54L101.032 52.512V42.8H102.808V54H101.112ZM98.5038 54.192C97.7784 54.192 97.1438 54.0213 96.5998 53.68C96.0664 53.328 95.6451 52.8373 95.3358 52.208C95.0371 51.5787 94.8878 50.8427 94.8878 50C94.8878 49.1467 95.0371 48.4107 95.3358 47.792C95.6451 47.1627 96.0664 46.6773 96.5998 46.336C97.1438 45.984 97.7784 45.808 98.5038 45.808C99.1758 45.808 99.7518 45.984 100.232 46.336C100.722 46.6773 101.096 47.1627 101.352 47.792C101.608 48.4107 101.736 49.1467 101.736 50C101.736 50.8427 101.608 51.5787 101.352 52.208C101.096 52.8373 100.722 53.328 100.232 53.68C99.7518 54.0213 99.1758 54.192 98.5038 54.192ZM98.9518 52.56C99.3571 52.56 99.7144 52.4533 100.024 52.24C100.344 52.016 100.589 51.712 100.76 51.328C100.941 50.944 101.032 50.5013 101.032 50C101.032 49.4987 100.941 49.056 100.76 48.672C100.589 48.288 100.344 47.9893 100.024 47.776C99.7144 47.5627 99.3518 47.456 98.9358 47.456C98.5091 47.456 98.1304 47.5627 97.7998 47.776C97.4691 47.9893 97.2078 48.288 97.0158 48.672C96.8344 49.056 96.7384 49.4987 96.7278 50C96.7384 50.5013 96.8344 50.944 97.0158 51.328C97.2078 51.712 97.4691 52.016 97.7998 52.24C98.1411 52.4533 98.5251 52.56 98.9518 52.56ZM108.357 54.192C107.578 54.192 106.885 54.016 106.277 53.664C105.68 53.3013 105.205 52.8053 104.853 52.176C104.512 51.5467 104.341 50.8213 104.341 50C104.341 49.1787 104.517 48.4533 104.869 47.824C105.221 47.1947 105.701 46.704 106.309 46.352C106.928 45.9893 107.632 45.808 108.421 45.808C109.136 45.808 109.781 45.9947 110.357 46.368C110.933 46.7307 111.386 47.2587 111.717 47.952C112.058 48.6453 112.229 49.472 112.229 50.432H105.941L106.181 50.208C106.181 50.6987 106.288 51.1253 106.501 51.488C106.714 51.84 106.997 52.112 107.349 52.304C107.701 52.496 108.09 52.592 108.517 52.592C109.008 52.592 109.413 52.4853 109.733 52.272C110.053 52.048 110.304 51.76 110.485 51.408L112.069 52.08C111.845 52.5067 111.557 52.88 111.205 53.2C110.864 53.52 110.453 53.7653 109.973 53.936C109.504 54.1067 108.965 54.192 108.357 54.192ZM106.293 49.28L106.037 49.056H110.549L110.309 49.28C110.309 48.8427 110.213 48.4853 110.021 48.208C109.829 47.92 109.584 47.7067 109.285 47.568C108.997 47.4187 108.693 47.344 108.373 47.344C108.053 47.344 107.733 47.4187 107.413 47.568C107.093 47.7067 106.826 47.92 106.613 48.208C106.4 48.4853 106.293 48.8427 106.293 49.28ZM114.785 49.744C114.785 48.88 114.951 48.1707 115.281 47.616C115.612 47.0613 116.039 46.6507 116.561 46.384C117.095 46.1067 117.649 45.968 118.225 45.968V47.68C117.735 47.68 117.271 47.7493 116.833 47.888C116.407 48.016 116.06 48.2293 115.793 48.528C115.527 48.8267 115.393 49.2213 115.393 49.712L114.785 49.744ZM113.601 54V46H115.393V54H113.601ZM123.289 54V42.8H125.081V54H123.289ZM128.713 54V49.904H130.505V54H128.713ZM128.713 49.904C128.713 49.264 128.639 48.7733 128.489 48.432C128.34 48.08 128.132 47.8347 127.865 47.696C127.609 47.5573 127.311 47.488 126.969 47.488C126.361 47.4773 125.892 47.6747 125.561 48.08C125.241 48.4853 125.081 49.0667 125.081 49.824H124.393C124.393 48.9813 124.516 48.2613 124.761 47.664C125.017 47.056 125.375 46.5973 125.833 46.288C126.292 45.968 126.836 45.808 127.465 45.808C128.095 45.808 128.639 45.936 129.097 46.192C129.556 46.448 129.903 46.848 130.137 47.392C130.383 47.9253 130.505 48.624 130.505 49.488V49.904H128.713ZM137.2 54L137.12 52.496V49.888C137.12 49.344 137.061 48.8907 136.944 48.528C136.837 48.1547 136.656 47.872 136.4 47.68C136.155 47.4773 135.824 47.376 135.408 47.376C135.024 47.376 134.688 47.456 134.4 47.616C134.112 47.776 133.867 48.0267 133.664 48.368L132.096 47.792C132.267 47.44 132.491 47.1147 132.768 46.816C133.056 46.5067 133.413 46.2613 133.84 46.08C134.277 45.8987 134.8 45.808 135.408 45.808C136.187 45.808 136.837 45.9627 137.36 46.272C137.883 46.5707 138.267 47.0027 138.512 47.568C138.768 48.1333 138.896 48.816 138.896 49.616L138.848 54H137.2ZM134.896 54.192C133.936 54.192 133.189 53.9787 132.656 53.552C132.133 53.1253 131.872 52.5227 131.872 51.744C131.872 50.912 132.149 50.2773 132.704 49.84C133.269 49.4027 134.053 49.184 135.056 49.184H137.2V50.56H135.632C134.917 50.56 134.416 50.6613 134.128 50.864C133.84 51.056 133.696 51.3333 133.696 51.696C133.696 52.0053 133.819 52.2507 134.064 52.432C134.32 52.6027 134.672 52.688 135.12 52.688C135.525 52.688 135.877 52.5973 136.176 52.416C136.475 52.2347 136.704 51.9947 136.864 51.696C137.035 51.3973 137.12 51.0613 137.12 50.688H137.648C137.648 51.776 137.429 52.6347 136.992 53.264C136.555 53.8827 135.856 54.192 134.896 54.192ZM143.623 54.192C143.089 54.192 142.599 54.112 142.151 53.952C141.703 53.792 141.319 53.568 140.999 53.28C140.679 52.9813 140.433 52.6347 140.263 52.24L141.815 51.552C141.975 51.8507 142.209 52.1013 142.519 52.304C142.839 52.5067 143.191 52.608 143.575 52.608C143.991 52.608 144.321 52.5387 144.567 52.4C144.823 52.2507 144.951 52.048 144.951 51.792C144.951 51.5467 144.855 51.36 144.663 51.232C144.471 51.0933 144.199 50.9813 143.847 50.896L143.095 50.688C142.337 50.496 141.745 50.192 141.319 49.776C140.892 49.3493 140.679 48.864 140.679 48.32C140.679 47.52 140.935 46.9013 141.447 46.464C141.969 46.0267 142.716 45.808 143.687 45.808C144.177 45.808 144.625 45.8827 145.031 46.032C145.447 46.1707 145.804 46.3733 146.103 46.64C146.401 46.896 146.609 47.2 146.727 47.552L145.239 48.224C145.132 47.9573 144.929 47.7547 144.631 47.616C144.332 47.4667 144.001 47.392 143.639 47.392C143.276 47.392 142.993 47.472 142.791 47.632C142.588 47.7813 142.487 47.9947 142.487 48.272C142.487 48.432 142.577 48.5813 142.759 48.72C142.94 48.848 143.201 48.9547 143.543 49.04L144.487 49.264C145.009 49.392 145.436 49.5947 145.767 49.872C146.097 50.1387 146.343 50.4427 146.503 50.784C146.663 51.1147 146.743 51.4507 146.743 51.792C146.743 52.272 146.604 52.6933 146.327 53.056C146.06 53.4187 145.692 53.7013 145.223 53.904C144.753 54.096 144.22 54.192 143.623 54.192ZM152.023 54V42.8H153.815V52.512L153.719 54H152.023ZM156.343 54.192C155.671 54.192 155.09 54.0213 154.599 53.68C154.119 53.328 153.751 52.8373 153.495 52.208C153.239 51.5787 153.111 50.8427 153.111 50C153.111 49.1467 153.239 48.4107 153.495 47.792C153.751 47.1627 154.119 46.6773 154.599 46.336C155.09 45.984 155.671 45.808 156.343 45.808C157.069 45.808 157.698 45.984 158.231 46.336C158.775 46.6773 159.197 47.1627 159.495 47.792C159.805 48.4107 159.959 49.1467 159.959 50C159.959 50.8427 159.805 51.5787 159.495 52.208C159.197 52.8373 158.775 53.328 158.231 53.68C157.698 54.0213 157.069 54.192 156.343 54.192ZM155.895 52.56C156.322 52.56 156.701 52.4533 157.031 52.24C157.362 52.016 157.623 51.712 157.815 51.328C158.018 50.944 158.119 50.5013 158.119 50C158.119 49.4987 158.023 49.056 157.831 48.672C157.65 48.288 157.394 47.9893 157.063 47.776C156.733 47.5627 156.349 47.456 155.911 47.456C155.506 47.456 155.143 47.5627 154.823 47.776C154.503 47.9893 154.253 48.288 154.071 48.672C153.901 49.056 153.815 49.4987 153.815 50C153.815 50.5013 153.901 50.944 154.071 51.328C154.253 51.712 154.498 52.016 154.807 52.24C155.127 52.4533 155.49 52.56 155.895 52.56ZM165.06 54.192C164.281 54.192 163.588 54.016 162.98 53.664C162.383 53.3013 161.908 52.8053 161.556 52.176C161.215 51.5467 161.044 50.8213 161.044 50C161.044 49.1787 161.22 48.4533 161.572 47.824C161.924 47.1947 162.404 46.704 163.012 46.352C163.631 45.9893 164.335 45.808 165.124 45.808C165.839 45.808 166.484 45.9947 167.06 46.368C167.636 46.7307 168.089 47.2587 168.42 47.952C168.761 48.6453 168.932 49.472 168.932 50.432H162.644L162.884 50.208C162.884 50.6987 162.991 51.1253 163.204 51.488C163.417 51.84 163.7 52.112 164.052 52.304C164.404 52.496 164.793 52.592 165.22 52.592C165.711 52.592 166.116 52.4853 166.436 52.272C166.756 52.048 167.007 51.76 167.188 51.408L168.772 52.08C168.548 52.5067 168.26 52.88 167.908 53.2C167.567 53.52 167.156 53.7653 166.676 53.936C166.207 54.1067 165.668 54.192 165.06 54.192ZM162.996 49.28L162.74 49.056H167.252L167.012 49.28C167.012 48.8427 166.916 48.4853 166.724 48.208C166.532 47.92 166.287 47.7067 165.988 47.568C165.7 47.4187 165.396 47.344 165.076 47.344C164.756 47.344 164.436 47.4187 164.116 47.568C163.796 47.7067 163.529 47.92 163.316 48.208C163.103 48.4853 162.996 48.8427 162.996 49.28ZM173.873 54.192C173.094 54.192 172.401 54.016 171.793 53.664C171.195 53.3013 170.721 52.8053 170.368 52.176C170.027 51.5467 169.857 50.8213 169.857 50C169.857 49.1787 170.033 48.4533 170.385 47.824C170.737 47.1947 171.217 46.704 171.825 46.352C172.443 45.9893 173.147 45.808 173.937 45.808C174.651 45.808 175.297 45.9947 175.873 46.368C176.449 46.7307 176.902 47.2587 177.233 47.952C177.574 48.6453 177.745 49.472 177.745 50.432H171.457L171.697 50.208C171.697 50.6987 171.803 51.1253 172.017 51.488C172.23 51.84 172.513 52.112 172.865 52.304C173.217 52.496 173.606 52.592 174.033 52.592C174.523 52.592 174.929 52.4853 175.249 52.272C175.569 52.048 175.819 51.76 176.001 51.408L177.585 52.08C177.361 52.5067 177.073 52.88 176.721 53.2C176.379 53.52 175.969 53.7653 175.489 53.936C175.019 54.1067 174.481 54.192 173.873 54.192ZM171.809 49.28L171.553 49.056H176.065L175.825 49.28C175.825 48.8427 175.729 48.4853 175.537 48.208C175.345 47.92 175.099 47.7067 174.801 47.568C174.513 47.4187 174.209 47.344 173.889 47.344C173.569 47.344 173.249 47.4187 172.929 47.568C172.609 47.7067 172.342 47.92 172.129 48.208C171.915 48.4853 171.809 48.8427 171.809 49.28ZM179.117 54V46H180.797L180.909 47.472V54H179.117ZM184.541 54V49.904H186.333V54H184.541ZM184.541 49.904C184.541 49.264 184.466 48.7733 184.317 48.432C184.178 48.08 183.976 47.8347 183.709 47.696C183.453 47.5573 183.149 47.488 182.797 47.488C182.2 47.4773 181.736 47.6747 181.405 48.08C181.074 48.4853 180.909 49.0667 180.909 49.824H180.237C180.237 48.9813 180.36 48.2613 180.605 47.664C180.85 47.056 181.202 46.5973 181.661 46.288C182.12 45.968 182.664 45.808 183.293 45.808C183.933 45.808 184.477 45.936 184.925 46.192C185.384 46.448 185.73 46.848 185.965 47.392C186.21 47.9253 186.333 48.624 186.333 49.488V49.904H184.541ZM197.784 54L197.704 52.512V42.8H199.48V54H197.784ZM195.176 54.192C194.45 54.192 193.816 54.0213 193.272 53.68C192.738 53.328 192.317 52.8373 192.008 52.208C191.709 51.5787 191.56 50.8427 191.56 50C191.56 49.1467 191.709 48.4107 192.008 47.792C192.317 47.1627 192.738 46.6773 193.272 46.336C193.816 45.984 194.45 45.808 195.176 45.808C195.848 45.808 196.424 45.984 196.904 46.336C197.394 46.6773 197.768 47.1627 198.024 47.792C198.28 48.4107 198.408 49.1467 198.408 50C198.408 50.8427 198.28 51.5787 198.024 52.208C197.768 52.8373 197.394 53.328 196.904 53.68C196.424 54.0213 195.848 54.192 195.176 54.192ZM195.624 52.56C196.029 52.56 196.386 52.4533 196.696 52.24C197.016 52.016 197.261 51.712 197.432 51.328C197.613 50.944 197.704 50.5013 197.704 50C197.704 49.4987 197.613 49.056 197.432 48.672C197.261 48.288 197.016 47.9893 196.696 47.776C196.386 47.5627 196.024 47.456 195.608 47.456C195.181 47.456 194.802 47.5627 194.472 47.776C194.141 47.9893 193.88 48.288 193.688 48.672C193.506 49.056 193.41 49.4987 193.4 50C193.41 50.5013 193.506 50.944 193.688 51.328C193.88 51.712 194.141 52.016 194.472 52.24C194.813 52.4533 195.197 52.56 195.624 52.56ZM205.029 54.192C204.25 54.192 203.557 54.016 202.949 53.664C202.351 53.3013 201.877 52.8053 201.525 52.176C201.183 51.5467 201.013 50.8213 201.013 50C201.013 49.1787 201.189 48.4533 201.541 47.824C201.893 47.1947 202.373 46.704 202.981 46.352C203.599 45.9893 204.303 45.808 205.093 45.808C205.807 45.808 206.453 45.9947 207.029 46.368C207.605 46.7307 208.058 47.2587 208.389 47.952C208.73 48.6453 208.901 49.472 208.901 50.432H202.613L202.853 50.208C202.853 50.6987 202.959 51.1253 203.173 51.488C203.386 51.84 203.669 52.112 204.021 52.304C204.373 52.496 204.762 52.592 205.189 52.592C205.679 52.592 206.085 52.4853 206.405 52.272C206.725 52.048 206.975 51.76 207.157 51.408L208.741 52.08C208.517 52.5067 208.229 52.88 207.877 53.2C207.535 53.52 207.125 53.7653 206.645 53.936C206.175 54.1067 205.637 54.192 205.029 54.192ZM202.965 49.28L202.709 49.056H207.221L206.981 49.28C206.981 48.8427 206.885 48.4853 206.693 48.208C206.501 47.92 206.255 47.7067 205.957 47.568C205.669 47.4187 205.365 47.344 205.045 47.344C204.725 47.344 204.405 47.4187 204.085 47.568C203.765 47.7067 203.498 47.92 203.285 48.208C203.071 48.4853 202.965 48.8427 202.965 49.28ZM210.273 54V42.8H212.065V54H210.273ZM214.167 54V46H215.943V54H214.167ZM215.062 44.48C214.775 44.48 214.524 44.3787 214.311 44.176C214.108 43.9627 214.007 43.712 214.007 43.424C214.007 43.136 214.108 42.8907 214.311 42.688C214.524 42.4853 214.775 42.384 215.062 42.384C215.351 42.384 215.596 42.4853 215.799 42.688C216.012 42.8907 216.119 43.136 216.119 43.424C216.119 43.712 216.012 43.9627 215.799 44.176C215.596 44.3787 215.351 44.48 215.062 44.48ZM220.631 54L223.751 46H225.607L222.311 54H220.631ZM220.503 54L217.191 46H219.031L222.167 54H220.503ZM230.076 54.192C229.297 54.192 228.604 54.016 227.996 53.664C227.398 53.3013 226.924 52.8053 226.572 52.176C226.23 51.5467 226.06 50.8213 226.06 50C226.06 49.1787 226.236 48.4533 226.588 47.824C226.94 47.1947 227.42 46.704 228.028 46.352C228.646 45.9893 229.35 45.808 230.14 45.808C230.854 45.808 231.5 45.9947 232.076 46.368C232.652 46.7307 233.105 47.2587 233.436 47.952C233.777 48.6453 233.948 49.472 233.948 50.432H227.66L227.9 50.208C227.9 50.6987 228.006 51.1253 228.22 51.488C228.433 51.84 228.716 52.112 229.068 52.304C229.42 52.496 229.809 52.592 230.236 52.592C230.726 52.592 231.132 52.4853 231.452 52.272C231.772 52.048 232.022 51.76 232.204 51.408L233.788 52.08C233.564 52.5067 233.276 52.88 232.924 53.2C232.582 53.52 232.172 53.7653 231.692 53.936C231.222 54.1067 230.684 54.192 230.076 54.192ZM228.012 49.28L227.756 49.056H232.268L232.028 49.28C232.028 48.8427 231.932 48.4853 231.74 48.208C231.548 47.92 231.302 47.7067 231.004 47.568C230.716 47.4187 230.412 47.344 230.092 47.344C229.772 47.344 229.452 47.4187 229.132 47.568C228.812 47.7067 228.545 47.92 228.332 48.208C228.118 48.4853 228.012 48.8427 228.012 49.28ZM236.504 49.744C236.504 48.88 236.669 48.1707 237 47.616C237.331 47.0613 237.757 46.6507 238.28 46.384C238.813 46.1067 239.368 45.968 239.944 45.968V47.68C239.453 47.68 238.989 47.7493 238.552 47.888C238.125 48.016 237.779 48.2293 237.512 48.528C237.245 48.8267 237.112 49.2213 237.112 49.712L236.504 49.744ZM235.32 54V46H237.112V54H235.32ZM244.701 54.192C243.922 54.192 243.229 54.016 242.621 53.664C242.023 53.3013 241.549 52.8053 241.197 52.176C240.855 51.5467 240.685 50.8213 240.685 50C240.685 49.1787 240.861 48.4533 241.213 47.824C241.565 47.1947 242.045 46.704 242.653 46.352C243.271 45.9893 243.975 45.808 244.765 45.808C245.479 45.808 246.125 45.9947 246.701 46.368C247.277 46.7307 247.73 47.2587 248.061 47.952C248.402 48.6453 248.573 49.472 248.573 50.432H242.285L242.525 50.208C242.525 50.6987 242.631 51.1253 242.845 51.488C243.058 51.84 243.341 52.112 243.693 52.304C244.045 52.496 244.434 52.592 244.861 52.592C245.351 52.592 245.757 52.4853 246.077 52.272C246.397 52.048 246.647 51.76 246.829 51.408L248.413 52.08C248.189 52.5067 247.901 52.88 247.549 53.2C247.207 53.52 246.797 53.7653 246.317 53.936C245.847 54.1067 245.309 54.192 244.701 54.192ZM242.637 49.28L242.381 49.056H246.893L246.653 49.28C246.653 48.8427 246.557 48.4853 246.365 48.208C246.173 47.92 245.927 47.7067 245.629 47.568C245.341 47.4187 245.037 47.344 244.717 47.344C244.397 47.344 244.077 47.4187 243.757 47.568C243.437 47.7067 243.17 47.92 242.957 48.208C242.743 48.4853 242.637 48.8427 242.637 49.28ZM255.721 54L255.641 52.512V42.8H257.417V54H255.721ZM253.113 54.192C252.388 54.192 251.753 54.0213 251.209 53.68C250.676 53.328 250.254 52.8373 249.945 52.208C249.646 51.5787 249.497 50.8427 249.497 50C249.497 49.1467 249.646 48.4107 249.945 47.792C250.254 47.1627 250.676 46.6773 251.209 46.336C251.753 45.984 252.388 45.808 253.113 45.808C253.785 45.808 254.361 45.984 254.841 46.336C255.332 46.6773 255.705 47.1627 255.961 47.792C256.217 48.4107 256.345 49.1467 256.345 50C256.345 50.8427 256.217 51.5787 255.961 52.208C255.705 52.8373 255.332 53.328 254.841 53.68C254.361 54.0213 253.785 54.192 253.113 54.192ZM253.561 52.56C253.966 52.56 254.324 52.4533 254.633 52.24C254.953 52.016 255.198 51.712 255.369 51.328C255.55 50.944 255.641 50.5013 255.641 50C255.641 49.4987 255.55 49.056 255.369 48.672C255.198 48.288 254.953 47.9893 254.633 47.776C254.324 47.5627 253.961 47.456 253.545 47.456C253.118 47.456 252.74 47.5627 252.409 47.776C252.078 47.9893 251.817 48.288 251.625 48.672C251.444 49.056 251.348 49.4987 251.337 50C251.348 50.5013 251.444 50.944 251.625 51.328C251.817 51.712 252.078 52.016 252.409 52.24C252.75 52.4533 253.134 52.56 253.561 52.56Z" fill="#1F1F1F"/>
<path d="M77.302 79V69.2H78.492V77.922H83.112V79H77.302ZM87.3474 79.168C86.6661 79.168 86.0594 79.014 85.5274 78.706C85.0048 78.3887 84.5941 77.9547 84.2954 77.404C83.9968 76.8533 83.8474 76.2187 83.8474 75.5C83.8474 74.7813 83.9921 74.1467 84.2814 73.596C84.5801 73.0453 84.9908 72.616 85.5134 72.308C86.0454 71.9907 86.6474 71.832 87.3194 71.832C88.0101 71.832 88.6168 71.9907 89.1394 72.308C89.6714 72.616 90.0821 73.0453 90.3714 73.596C90.6701 74.1467 90.8194 74.7813 90.8194 75.5C90.8194 76.2187 90.6701 76.8533 90.3714 77.404C90.0821 77.9547 89.6761 78.3887 89.1534 78.706C88.6308 79.014 88.0288 79.168 87.3474 79.168ZM87.3474 78.132C87.8141 78.132 88.2201 78.02 88.5654 77.796C88.9108 77.572 89.1814 77.264 89.3774 76.872C89.5828 76.48 89.6854 76.0227 89.6854 75.5C89.6854 74.9773 89.5828 74.52 89.3774 74.128C89.1814 73.736 88.9061 73.428 88.5514 73.204C88.1968 72.98 87.7861 72.868 87.3194 72.868C86.8621 72.868 86.4561 72.98 86.1014 73.204C85.7561 73.428 85.4808 73.736 85.2754 74.128C85.0794 74.52 84.9814 74.9773 84.9814 75.5C84.9814 76.0133 85.0794 76.4707 85.2754 76.872C85.4808 77.264 85.7608 77.572 86.1154 77.796C86.4794 78.02 86.8901 78.132 87.3474 78.132ZM92.9905 75.206C92.9905 74.45 93.1352 73.8387 93.4245 73.372C93.7139 72.896 94.0825 72.546 94.5305 72.322C94.9879 72.0887 95.4685 71.972 95.9725 71.972V73.022C95.5619 73.022 95.1652 73.092 94.7825 73.232C94.4092 73.3627 94.1012 73.582 93.8585 73.89C93.6159 74.198 93.4945 74.618 93.4945 75.15L92.9905 75.206ZM92.3745 79V72H93.4945V79H92.3745ZM100.171 79.168C99.4897 79.168 98.8877 79.014 98.365 78.706C97.8423 78.3887 97.4317 77.9547 97.133 77.404C96.8437 76.8533 96.699 76.2187 96.699 75.5C96.699 74.7813 96.8437 74.1467 97.133 73.596C97.4317 73.0453 97.8377 72.616 98.351 72.308C98.8737 71.9907 99.471 71.832 100.143 71.832C100.796 71.832 101.361 71.9953 101.837 72.322C102.313 72.6393 102.682 73.0873 102.943 73.666C103.204 74.2447 103.335 74.926 103.335 75.71H97.553L97.833 75.472C97.833 76.032 97.931 76.5127 98.127 76.914C98.3323 77.3153 98.617 77.6233 98.981 77.838C99.345 78.0433 99.7603 78.146 100.227 78.146C100.722 78.146 101.137 78.0293 101.473 77.796C101.818 77.5627 102.084 77.2547 102.271 76.872L103.237 77.362C103.06 77.726 102.822 78.0433 102.523 78.314C102.234 78.5847 101.888 78.7947 101.487 78.944C101.095 79.0933 100.656 79.168 100.171 79.168ZM97.903 74.996L97.609 74.772H102.439L102.145 75.01C102.145 74.562 102.056 74.1747 101.879 73.848C101.702 73.5213 101.464 73.2693 101.165 73.092C100.866 72.9147 100.521 72.826 100.129 72.826C99.7463 72.826 99.3823 72.9147 99.037 73.092C98.701 73.2693 98.4257 73.5213 98.211 73.848C98.0057 74.1653 97.903 74.548 97.903 74.996ZM104.748 79V72H105.798L105.854 72.98C106.068 72.6067 106.344 72.322 106.68 72.126C107.016 71.93 107.408 71.832 107.856 71.832C108.416 71.832 108.892 71.9627 109.284 72.224C109.685 72.4853 109.974 72.882 110.152 73.414C110.348 72.9007 110.632 72.5087 111.006 72.238C111.388 71.9673 111.841 71.832 112.364 71.832C113.148 71.832 113.764 72.0933 114.212 72.616C114.669 73.1387 114.893 73.932 114.884 74.996V79H113.764V75.416C113.764 74.7253 113.689 74.198 113.54 73.834C113.4 73.47 113.208 73.2227 112.966 73.092C112.723 72.952 112.443 72.882 112.126 72.882C111.575 72.882 111.146 73.1013 110.838 73.54C110.53 73.9693 110.376 74.5807 110.376 75.374V79H109.256V75.416C109.256 74.7253 109.181 74.198 109.032 73.834C108.892 73.47 108.696 73.2227 108.444 73.092C108.201 72.952 107.921 72.882 107.604 72.882C107.062 72.882 106.638 73.1013 106.33 73.54C106.022 73.9693 105.868 74.5807 105.868 75.374V79H104.748ZM120.185 79V72H121.305V79H120.185ZM120.759 70.376C120.572 70.376 120.409 70.306 120.269 70.166C120.129 70.026 120.059 69.8627 120.059 69.676C120.059 69.48 120.129 69.3167 120.269 69.186C120.409 69.046 120.572 68.976 120.759 68.976C120.955 68.976 121.118 69.046 121.249 69.186C121.389 69.3167 121.459 69.48 121.459 69.676C121.459 69.8627 121.389 70.026 121.249 70.166C121.118 70.306 120.955 70.376 120.759 70.376ZM123.439 81.8V72H124.489L124.559 73.288V81.8H123.439ZM126.925 79.168C126.337 79.168 125.819 79.014 125.371 78.706C124.932 78.398 124.591 77.9687 124.349 77.418C124.106 76.858 123.985 76.2187 123.985 75.5C123.985 74.772 124.106 74.1327 124.349 73.582C124.591 73.0313 124.932 72.602 125.371 72.294C125.819 71.986 126.337 71.832 126.925 71.832C127.55 71.832 128.101 71.986 128.577 72.294C129.053 72.602 129.421 73.0313 129.683 73.582C129.953 74.1327 130.089 74.772 130.089 75.5C130.089 76.2187 129.953 76.858 129.683 77.418C129.421 77.9687 129.053 78.398 128.577 78.706C128.101 79.014 127.55 79.168 126.925 79.168ZM126.673 78.146C127.111 78.146 127.499 78.034 127.835 77.81C128.18 77.586 128.451 77.2733 128.647 76.872C128.852 76.4707 128.955 76.0133 128.955 75.5C128.955 74.9867 128.857 74.5293 128.661 74.128C128.474 73.7267 128.208 73.414 127.863 73.19C127.517 72.966 127.125 72.854 126.687 72.854C126.276 72.854 125.907 72.966 125.581 73.19C125.263 73.414 125.011 73.7267 124.825 74.128C124.647 74.5293 124.559 74.9867 124.559 75.5C124.559 76.0133 124.647 76.4707 124.825 76.872C125.011 77.2733 125.263 77.586 125.581 77.81C125.898 78.034 126.262 78.146 126.673 78.146ZM134.09 79.168C133.577 79.168 133.129 79.0933 132.746 78.944C132.363 78.7853 132.041 78.58 131.78 78.328C131.528 78.076 131.346 77.8007 131.234 77.502L132.214 77.096C132.373 77.4133 132.611 77.67 132.928 77.866C133.245 78.062 133.595 78.16 133.978 78.16C134.417 78.16 134.785 78.076 135.084 77.908C135.383 77.7307 135.532 77.4833 135.532 77.166C135.532 76.8767 135.42 76.6433 135.196 76.466C134.981 76.2887 134.659 76.144 134.23 76.032L133.558 75.85C132.923 75.682 132.429 75.43 132.074 75.094C131.719 74.7487 131.542 74.3613 131.542 73.932C131.542 73.2693 131.757 72.756 132.186 72.392C132.625 72.0187 133.273 71.832 134.132 71.832C134.543 71.832 134.916 71.8927 135.252 72.014C135.588 72.1353 135.877 72.308 136.12 72.532C136.363 72.7467 136.54 73.0033 136.652 73.302L135.672 73.736C135.551 73.4187 135.35 73.19 135.07 73.05C134.79 72.91 134.449 72.84 134.048 72.84C133.619 72.84 133.283 72.9333 133.04 73.12C132.797 73.2973 132.676 73.5493 132.676 73.876C132.676 74.0627 132.774 74.24 132.97 74.408C133.175 74.5667 133.474 74.6973 133.866 74.8L134.566 74.982C135.023 75.094 135.406 75.262 135.714 75.486C136.022 75.7007 136.255 75.948 136.414 76.228C136.573 76.508 136.652 76.8067 136.652 77.124C136.652 77.544 136.54 77.908 136.316 78.216C136.092 78.524 135.789 78.762 135.406 78.93C135.023 79.0887 134.585 79.168 134.09 79.168ZM142.964 79L142.894 77.712V72H144.014V79H142.964ZM137.98 75.584V72H139.1V75.584H137.98ZM139.1 75.584C139.1 76.2747 139.179 76.802 139.338 77.166C139.496 77.53 139.716 77.782 139.996 77.922C140.285 78.0527 140.607 78.118 140.962 78.118C141.568 78.118 142.04 77.8987 142.376 77.46C142.721 77.0213 142.894 76.41 142.894 75.626H143.44C143.44 76.3633 143.332 76.998 143.118 77.53C142.903 78.062 142.59 78.468 142.18 78.748C141.778 79.028 141.284 79.168 140.696 79.168C140.154 79.168 139.678 79.0607 139.268 78.846C138.857 78.622 138.54 78.272 138.316 77.796C138.092 77.3107 137.98 76.6853 137.98 75.92V75.584H139.1ZM145.968 79V72H147.018L147.074 72.98C147.289 72.6067 147.564 72.322 147.9 72.126C148.236 71.93 148.628 71.832 149.076 71.832C149.636 71.832 150.112 71.9627 150.504 72.224C150.906 72.4853 151.195 72.882 151.372 73.414C151.568 72.9007 151.853 72.5087 152.226 72.238C152.609 71.9673 153.062 71.832 153.584 71.832C154.368 71.832 154.984 72.0933 155.432 72.616C155.89 73.1387 156.114 73.932 156.104 74.996V79H154.984V75.416C154.984 74.7253 154.91 74.198 154.76 73.834C154.62 73.47 154.429 73.2227 154.186 73.092C153.944 72.952 153.664 72.882 153.346 72.882C152.796 72.882 152.366 73.1013 152.058 73.54C151.75 73.9693 151.596 74.5807 151.596 75.374V79H150.476V75.416C150.476 74.7253 150.402 74.198 150.252 73.834C150.112 73.47 149.916 73.2227 149.664 73.092C149.422 72.952 149.142 72.882 148.824 72.882C148.283 72.882 147.858 73.1013 147.55 73.54C147.242 73.9693 147.088 74.5807 147.088 75.374V79H145.968ZM161.657 79V69.2H162.847V77.922H167.467V79H161.657ZM171.703 79.168C171.022 79.168 170.415 79.014 169.883 78.706C169.36 78.3887 168.95 77.9547 168.651 77.404C168.352 76.8533 168.203 76.2187 168.203 75.5C168.203 74.7813 168.348 74.1467 168.637 73.596C168.936 73.0453 169.346 72.616 169.869 72.308C170.401 71.9907 171.003 71.832 171.675 71.832C172.366 71.832 172.972 71.9907 173.495 72.308C174.027 72.616 174.438 73.0453 174.727 73.596C175.026 74.1467 175.175 74.7813 175.175 75.5C175.175 76.2187 175.026 76.8533 174.727 77.404C174.438 77.9547 174.032 78.3887 173.509 78.706C172.986 79.014 172.384 79.168 171.703 79.168ZM171.703 78.132C172.17 78.132 172.576 78.02 172.921 77.796C173.266 77.572 173.537 77.264 173.733 76.872C173.938 76.48 174.041 76.0227 174.041 75.5C174.041 74.9773 173.938 74.52 173.733 74.128C173.537 73.736 173.262 73.428 172.907 73.204C172.552 72.98 172.142 72.868 171.675 72.868C171.218 72.868 170.812 72.98 170.457 73.204C170.112 73.428 169.836 73.736 169.631 74.128C169.435 74.52 169.337 74.9773 169.337 75.5C169.337 76.0133 169.435 76.4707 169.631 76.872C169.836 77.264 170.116 77.572 170.471 77.796C170.835 78.02 171.246 78.132 171.703 78.132ZM177.346 75.206C177.346 74.45 177.491 73.8387 177.78 73.372C178.069 72.896 178.438 72.546 178.886 72.322C179.343 72.0887 179.824 71.972 180.328 71.972V73.022C179.917 73.022 179.521 73.092 179.138 73.232C178.765 73.3627 178.457 73.582 178.214 73.89C177.971 74.198 177.85 74.618 177.85 75.15L177.346 75.206ZM176.73 79V72H177.85V79H176.73ZM184.526 79.168C183.845 79.168 183.243 79.014 182.72 78.706C182.198 78.3887 181.787 77.9547 181.488 77.404C181.199 76.8533 181.054 76.2187 181.054 75.5C181.054 74.7813 181.199 74.1467 181.488 73.596C181.787 73.0453 182.193 72.616 182.706 72.308C183.229 71.9907 183.826 71.832 184.498 71.832C185.152 71.832 185.716 71.9953 186.192 72.322C186.668 72.6393 187.037 73.0873 187.298 73.666C187.56 74.2447 187.69 74.926 187.69 75.71H181.908L182.188 75.472C182.188 76.032 182.286 76.5127 182.482 76.914C182.688 77.3153 182.972 77.6233 183.336 77.838C183.7 78.0433 184.116 78.146 184.582 78.146C185.077 78.146 185.492 78.0293 185.828 77.796C186.174 77.5627 186.44 77.2547 186.626 76.872L187.592 77.362C187.415 77.726 187.177 78.0433 186.878 78.314C186.589 78.5847 186.244 78.7947 185.842 78.944C185.45 79.0933 185.012 79.168 184.526 79.168ZM182.258 74.996L181.964 74.772H186.794L186.5 75.01C186.5 74.562 186.412 74.1747 186.234 73.848C186.057 73.5213 185.819 73.2693 185.52 73.092C185.222 72.9147 184.876 72.826 184.484 72.826C184.102 72.826 183.738 72.9147 183.392 73.092C183.056 73.2693 182.781 73.5213 182.566 73.848C182.361 74.1653 182.258 74.548 182.258 74.996ZM189.103 79V72H190.153L190.209 72.98C190.424 72.6067 190.699 72.322 191.035 72.126C191.371 71.93 191.763 71.832 192.211 71.832C192.771 71.832 193.247 71.9627 193.639 72.224C194.04 72.4853 194.33 72.882 194.507 73.414C194.703 72.9007 194.988 72.5087 195.361 72.238C195.744 71.9673 196.196 71.832 196.719 71.832C197.503 71.832 198.119 72.0933 198.567 72.616C199.024 73.1387 199.248 73.932 199.239 74.996V79H198.119V75.416C198.119 74.7253 198.044 74.198 197.895 73.834C197.755 73.47 197.564 73.2227 197.321 73.092C197.078 72.952 196.798 72.882 196.481 72.882C195.93 72.882 195.501 73.1013 195.193 73.54C194.885 73.9693 194.731 74.5807 194.731 75.374V79H193.611V75.416C193.611 74.7253 193.536 74.198 193.387 73.834C193.247 73.47 193.051 73.2227 192.799 73.092C192.556 72.952 192.276 72.882 191.959 72.882C191.418 72.882 190.993 73.1013 190.685 73.54C190.377 73.9693 190.223 74.5807 190.223 75.374V79H189.103ZM204.54 79V72H205.66V79H204.54ZM205.114 70.376C204.928 70.376 204.764 70.306 204.624 70.166C204.484 70.026 204.414 69.8627 204.414 69.676C204.414 69.48 204.484 69.3167 204.624 69.186C204.764 69.046 204.928 68.976 205.114 68.976C205.31 68.976 205.474 69.046 205.604 69.186C205.744 69.3167 205.814 69.48 205.814 69.676C205.814 69.8627 205.744 70.026 205.604 70.166C205.474 70.306 205.31 70.376 205.114 70.376ZM207.794 81.8V72H208.844L208.914 73.288V81.8H207.794ZM211.28 79.168C210.692 79.168 210.174 79.014 209.726 78.706C209.287 78.398 208.947 77.9687 208.704 77.418C208.461 76.858 208.34 76.2187 208.34 75.5C208.34 74.772 208.461 74.1327 208.704 73.582C208.947 73.0313 209.287 72.602 209.726 72.294C210.174 71.986 210.692 71.832 211.28 71.832C211.905 71.832 212.456 71.986 212.932 72.294C213.408 72.602 213.777 73.0313 214.038 73.582C214.309 74.1327 214.444 74.772 214.444 75.5C214.444 76.2187 214.309 76.858 214.038 77.418C213.777 77.9687 213.408 78.398 212.932 78.706C212.456 79.014 211.905 79.168 211.28 79.168ZM211.028 78.146C211.467 78.146 211.854 78.034 212.19 77.81C212.535 77.586 212.806 77.2733 213.002 76.872C213.207 76.4707 213.31 76.0133 213.31 75.5C213.31 74.9867 213.212 74.5293 213.016 74.128C212.829 73.7267 212.563 73.414 212.218 73.19C211.873 72.966 211.481 72.854 211.042 72.854C210.631 72.854 210.263 72.966 209.936 73.19C209.619 73.414 209.367 73.7267 209.18 74.128C209.003 74.5293 208.914 74.9867 208.914 75.5C208.914 76.0133 209.003 76.4707 209.18 76.872C209.367 77.2733 209.619 77.586 209.936 77.81C210.253 78.034 210.617 78.146 211.028 78.146ZM218.446 79.168C217.932 79.168 217.484 79.0933 217.102 78.944C216.719 78.7853 216.397 78.58 216.136 78.328C215.884 78.076 215.702 77.8007 215.59 77.502L216.57 77.096C216.728 77.4133 216.966 77.67 217.284 77.866C217.601 78.062 217.951 78.16 218.334 78.16C218.772 78.16 219.141 78.076 219.44 77.908C219.738 77.7307 219.888 77.4833 219.888 77.166C219.888 76.8767 219.776 76.6433 219.552 76.466C219.337 76.2887 219.015 76.144 218.586 76.032L217.914 75.85C217.279 75.682 216.784 75.43 216.43 75.094C216.075 74.7487 215.898 74.3613 215.898 73.932C215.898 73.2693 216.112 72.756 216.542 72.392C216.98 72.0187 217.629 71.832 218.488 71.832C218.898 71.832 219.272 71.8927 219.608 72.014C219.944 72.1353 220.233 72.308 220.476 72.532C220.718 72.7467 220.896 73.0033 221.008 73.302L220.028 73.736C219.906 73.4187 219.706 73.19 219.426 73.05C219.146 72.91 218.805 72.84 218.404 72.84C217.974 72.84 217.638 72.9333 217.396 73.12C217.153 73.2973 217.032 73.5493 217.032 73.876C217.032 74.0627 217.13 74.24 217.326 74.408C217.531 74.5667 217.83 74.6973 218.222 74.8L218.922 74.982C219.379 75.094 219.762 75.262 220.07 75.486C220.378 75.7007 220.611 75.948 220.77 76.228C220.928 76.508 221.008 76.8067 221.008 77.124C221.008 77.544 220.896 77.908 220.672 78.216C220.448 78.524 220.144 78.762 219.762 78.93C219.379 79.0887 218.94 79.168 218.446 79.168ZM227.319 79L227.249 77.712V72H228.369V79H227.319ZM222.335 75.584V72H223.455V75.584H222.335ZM223.455 75.584C223.455 76.2747 223.534 76.802 223.693 77.166C223.852 77.53 224.071 77.782 224.351 77.922C224.64 78.0527 224.962 78.118 225.317 78.118C225.924 78.118 226.395 77.8987 226.731 77.46C227.076 77.0213 227.249 76.41 227.249 75.626H227.795C227.795 76.3633 227.688 76.998 227.473 77.53C227.258 78.062 226.946 78.468 226.535 78.748C226.134 79.028 225.639 79.168 225.051 79.168C224.51 79.168 224.034 79.0607 223.623 78.846C223.212 78.622 222.895 78.272 222.671 77.796C222.447 77.3107 222.335 76.6853 222.335 75.92V75.584H223.455ZM230.324 79V72H231.374L231.43 72.98C231.644 72.6067 231.92 72.322 232.256 72.126C232.592 71.93 232.984 71.832 233.432 71.832C233.992 71.832 234.468 71.9627 234.86 72.224C235.261 72.4853 235.55 72.882 235.728 73.414C235.924 72.9007 236.208 72.5087 236.582 72.238C236.964 71.9673 237.417 71.832 237.94 71.832C238.724 71.832 239.34 72.0933 239.788 72.616C240.245 73.1387 240.469 73.932 240.46 74.996V79H239.34V75.416C239.34 74.7253 239.265 74.198 239.116 73.834C238.976 73.47 238.784 73.2227 238.542 73.092C238.299 72.952 238.019 72.882 237.702 72.882C237.151 72.882 236.722 73.1013 236.414 73.54C236.106 73.9693 235.952 74.5807 235.952 75.374V79H234.832V75.416C234.832 74.7253 234.757 74.198 234.608 73.834C234.468 73.47 234.272 73.2227 234.02 73.092C233.777 72.952 233.497 72.882 233.18 72.882C232.638 72.882 232.214 73.1013 231.906 73.54C231.598 73.9693 231.444 74.5807 231.444 75.374V79H230.324ZM246.013 79V69.2H247.203V77.922H251.823V79H246.013ZM256.058 79.168C255.377 79.168 254.77 79.014 254.238 78.706C253.716 78.3887 253.305 77.9547 253.006 77.404C252.708 76.8533 252.558 76.2187 252.558 75.5C252.558 74.7813 252.703 74.1467 252.992 73.596C253.291 73.0453 253.702 72.616 254.224 72.308C254.756 71.9907 255.358 71.832 256.03 71.832C256.721 71.832 257.328 71.9907 257.85 72.308C258.382 72.616 258.793 73.0453 259.082 73.596C259.381 74.1467 259.53 74.7813 259.53 75.5C259.53 76.2187 259.381 76.8533 259.082 77.404C258.793 77.9547 258.387 78.3887 257.864 78.706C257.342 79.014 256.74 79.168 256.058 79.168ZM256.058 78.132C256.525 78.132 256.931 78.02 257.276 77.796C257.622 77.572 257.892 77.264 258.088 76.872C258.294 76.48 258.396 76.0227 258.396 75.5C258.396 74.9773 258.294 74.52 258.088 74.128C257.892 73.736 257.617 73.428 257.262 73.204C256.908 72.98 256.497 72.868 256.03 72.868C255.573 72.868 255.167 72.98 254.812 73.204C254.467 73.428 254.192 73.736 253.986 74.128C253.79 74.52 253.692 74.9773 253.692 75.5C253.692 76.0133 253.79 76.4707 253.986 76.872C254.192 77.264 254.472 77.572 254.826 77.796C255.19 78.02 255.601 78.132 256.058 78.132ZM261.701 75.206C261.701 74.45 261.846 73.8387 262.135 73.372C262.425 72.896 262.793 72.546 263.241 72.322C263.699 72.0887 264.179 71.972 264.683 71.972V73.022C264.273 73.022 263.876 73.092 263.493 73.232C263.12 73.3627 262.812 73.582 262.569 73.89C262.327 74.198 262.205 74.618 262.205 75.15L261.701 75.206ZM261.085 79V72H262.205V79H261.085ZM268.882 79.168C268.201 79.168 267.599 79.014 267.076 78.706C266.553 78.3887 266.143 77.9547 265.844 77.404C265.555 76.8533 265.41 76.2187 265.41 75.5C265.41 74.7813 265.555 74.1467 265.844 73.596C266.143 73.0453 266.549 72.616 267.062 72.308C267.585 71.9907 268.182 71.832 268.854 71.832C269.507 71.832 270.072 71.9953 270.548 72.322C271.024 72.6393 271.393 73.0873 271.654 73.666C271.915 74.2447 272.046 74.926 272.046 75.71H266.264L266.544 75.472C266.544 76.032 266.642 76.5127 266.838 76.914C267.043 77.3153 267.328 77.6233 267.692 77.838C268.056 78.0433 268.471 78.146 268.938 78.146C269.433 78.146 269.848 78.0293 270.184 77.796C270.529 77.5627 270.795 77.2547 270.982 76.872L271.948 77.362C271.771 77.726 271.533 78.0433 271.234 78.314C270.945 78.5847 270.599 78.7947 270.198 78.944C269.806 79.0933 269.367 79.168 268.882 79.168ZM266.614 74.996L266.32 74.772H271.15L270.856 75.01C270.856 74.562 270.767 74.1747 270.59 73.848C270.413 73.5213 270.175 73.2693 269.876 73.092C269.577 72.9147 269.232 72.826 268.84 72.826C268.457 72.826 268.093 72.9147 267.748 73.092C267.412 73.2693 267.137 73.5213 266.922 73.848C266.717 74.1653 266.614 74.548 266.614 74.996ZM273.459 79V72H274.509L274.565 72.98C274.779 72.6067 275.055 72.322 275.391 72.126C275.727 71.93 276.119 71.832 276.567 71.832C277.127 71.832 277.603 71.9627 277.995 72.224C278.396 72.4853 278.685 72.882 278.863 73.414C279.059 72.9007 279.343 72.5087 279.717 72.238C280.099 71.9673 280.552 71.832 281.075 71.832C281.859 71.832 282.475 72.0933 282.923 72.616C283.38 73.1387 283.604 73.932 283.595 74.996V79H282.475V75.416C282.475 74.7253 282.4 74.198 282.251 73.834C282.111 73.47 281.919 73.2227 281.677 73.092C281.434 72.952 281.154 72.882 280.837 72.882C280.286 72.882 279.857 73.1013 279.549 73.54C279.241 73.9693 279.087 74.5807 279.087 75.374V79H277.967V75.416C277.967 74.7253 277.892 74.198 277.743 73.834C277.603 73.47 277.407 73.2227 277.155 73.092C276.912 72.952 276.632 72.882 276.315 72.882C275.773 72.882 275.349 73.1013 275.041 73.54C274.733 73.9693 274.579 74.5807 274.579 75.374V79H273.459ZM288.896 79V72H290.016V79H288.896ZM289.47 70.376C289.283 70.376 289.12 70.306 288.98 70.166C288.84 70.026 288.77 69.8627 288.77 69.676C288.77 69.48 288.84 69.3167 288.98 69.186C289.12 69.046 289.283 68.976 289.47 68.976C289.666 68.976 289.829 69.046 289.96 69.186C290.1 69.3167 290.17 69.48 290.17 69.676C290.17 69.8627 290.1 70.026 289.96 70.166C289.829 70.306 289.666 70.376 289.47 70.376ZM292.15 81.8V72H293.2L293.27 73.288V81.8H292.15ZM295.636 79.168C295.048 79.168 294.53 79.014 294.082 78.706C293.643 78.398 293.302 77.9687 293.06 77.418C292.817 76.858 292.696 76.2187 292.696 75.5C292.696 74.772 292.817 74.1327 293.06 73.582C293.302 73.0313 293.643 72.602 294.082 72.294C294.53 71.986 295.048 71.832 295.636 71.832C296.261 71.832 296.812 71.986 297.288 72.294C297.764 72.602 298.132 73.0313 298.394 73.582C298.664 74.1327 298.8 74.772 298.8 75.5C298.8 76.2187 298.664 76.858 298.394 77.418C298.132 77.9687 297.764 78.398 297.288 78.706C296.812 79.014 296.261 79.168 295.636 79.168ZM295.384 78.146C295.822 78.146 296.21 78.034 296.546 77.81C296.891 77.586 297.162 77.2733 297.358 76.872C297.563 76.4707 297.666 76.0133 297.666 75.5C297.666 74.9867 297.568 74.5293 297.372 74.128C297.185 73.7267 296.919 73.414 296.574 73.19C296.228 72.966 295.836 72.854 295.398 72.854C294.987 72.854 294.618 72.966 294.292 73.19C293.974 73.414 293.722 73.7267 293.536 74.128C293.358 74.5293 293.27 74.9867 293.27 75.5C293.27 76.0133 293.358 76.4707 293.536 76.872C293.722 77.2733 293.974 77.586 294.292 77.81C294.609 78.034 294.973 78.146 295.384 78.146ZM302.801 79.168C302.288 79.168 301.84 79.0933 301.457 78.944C301.074 78.7853 300.752 78.58 300.491 78.328C300.239 78.076 300.057 77.8007 299.945 77.502L300.925 77.096C301.084 77.4133 301.322 77.67 301.639 77.866C301.956 78.062 302.306 78.16 302.689 78.16C303.128 78.16 303.496 78.076 303.795 77.908C304.094 77.7307 304.243 77.4833 304.243 77.166C304.243 76.8767 304.131 76.6433 303.907 76.466C303.692 76.2887 303.37 76.144 302.941 76.032L302.269 75.85C301.634 75.682 301.14 75.43 300.785 75.094C300.43 74.7487 300.253 74.3613 300.253 73.932C300.253 73.2693 300.468 72.756 300.897 72.392C301.336 72.0187 301.984 71.832 302.843 71.832C303.254 71.832 303.627 71.8927 303.963 72.014C304.299 72.1353 304.588 72.308 304.831 72.532C305.074 72.7467 305.251 73.0033 305.363 73.302L304.383 73.736C304.262 73.4187 304.061 73.19 303.781 73.05C303.501 72.91 303.16 72.84 302.759 72.84C302.33 72.84 301.994 72.9333 301.751 73.12C301.508 73.2973 301.387 73.5493 301.387 73.876C301.387 74.0627 301.485 74.24 301.681 74.408C301.886 74.5667 302.185 74.6973 302.577 74.8L303.277 74.982C303.734 75.094 304.117 75.262 304.425 75.486C304.733 75.7007 304.966 75.948 305.125 76.228C305.284 76.508 305.363 76.8067 305.363 77.124C305.363 77.544 305.251 77.908 305.027 78.216C304.803 78.524 304.5 78.762 304.117 78.93C303.734 79.0887 303.296 79.168 302.801 79.168ZM311.675 79L311.605 77.712V72H312.725V79H311.675ZM306.691 75.584V72H307.811V75.584H306.691ZM307.811 75.584C307.811 76.2747 307.89 76.802 308.049 77.166C308.207 77.53 308.427 77.782 308.707 77.922C308.996 78.0527 309.318 78.118 309.673 78.118C310.279 78.118 310.751 77.8987 311.087 77.46C311.432 77.0213 311.605 76.41 311.605 75.626H312.151C312.151 76.3633 312.043 76.998 311.829 77.53C311.614 78.062 311.301 78.468 310.891 78.748C310.489 79.028 309.995 79.168 309.407 79.168C308.865 79.168 308.389 79.0607 307.979 78.846C307.568 78.622 307.251 78.272 307.027 77.796C306.803 77.3107 306.691 76.6853 306.691 75.92V75.584H307.811ZM314.679 79V72H315.729L315.785 72.98C316 72.6067 316.275 72.322 316.611 72.126C316.947 71.93 317.339 71.832 317.787 71.832C318.347 71.832 318.823 71.9627 319.215 72.224C319.617 72.4853 319.906 72.882 320.083 73.414C320.279 72.9007 320.564 72.5087 320.937 72.238C321.32 71.9673 321.773 71.832 322.295 71.832C323.079 71.832 323.695 72.0933 324.143 72.616C324.601 73.1387 324.825 73.932 324.815 74.996V79H323.695V75.416C323.695 74.7253 323.621 74.198 323.471 73.834C323.331 73.47 323.14 73.2227 322.897 73.092C322.655 72.952 322.375 72.882 322.057 72.882C321.507 72.882 321.077 73.1013 320.769 73.54C320.461 73.9693 320.307 74.5807 320.307 75.374V79H319.187V75.416C319.187 74.7253 319.113 74.198 318.963 73.834C318.823 73.47 318.627 73.2227 318.375 73.092C318.133 72.952 317.853 72.882 317.535 72.882C316.994 72.882 316.569 73.1013 316.261 73.54C315.953 73.9693 315.799 74.5807 315.799 75.374V79H314.679ZM77.302 99V89.2H78.492V97.922H83.112V99H77.302ZM87.3474 99.168C86.6661 99.168 86.0594 99.014 85.5274 98.706C85.0048 98.3887 84.5941 97.9547 84.2954 97.404C83.9968 96.8533 83.8474 96.2187 83.8474 95.5C83.8474 94.7813 83.9921 94.1467 84.2814 93.596C84.5801 93.0453 84.9908 92.616 85.5134 92.308C86.0454 91.9907 86.6474 91.832 87.3194 91.832C88.0101 91.832 88.6168 91.9907 89.1394 92.308C89.6714 92.616 90.0821 93.0453 90.3714 93.596C90.6701 94.1467 90.8194 94.7813 90.8194 95.5C90.8194 96.2187 90.6701 96.8533 90.3714 97.404C90.0821 97.9547 89.6761 98.3887 89.1534 98.706C88.6308 99.014 88.0288 99.168 87.3474 99.168ZM87.3474 98.132C87.8141 98.132 88.2201 98.02 88.5654 97.796C88.9108 97.572 89.1814 97.264 89.3774 96.872C89.5828 96.48 89.6854 96.0227 89.6854 95.5C89.6854 94.9773 89.5828 94.52 89.3774 94.128C89.1814 93.736 88.9061 93.428 88.5514 93.204C88.1968 92.98 87.7861 92.868 87.3194 92.868C86.8621 92.868 86.4561 92.98 86.1014 93.204C85.7561 93.428 85.4808 93.736 85.2754 94.128C85.0794 94.52 84.9814 94.9773 84.9814 95.5C84.9814 96.0133 85.0794 96.4707 85.2754 96.872C85.4808 97.264 85.7608 97.572 86.1154 97.796C86.4794 98.02 86.8901 98.132 87.3474 98.132ZM92.9905 95.206C92.9905 94.45 93.1352 93.8387 93.4245 93.372C93.7139 92.896 94.0825 92.546 94.5305 92.322C94.9879 92.0887 95.4685 91.972 95.9725 91.972V93.022C95.5619 93.022 95.1652 93.092 94.7825 93.232C94.4092 93.3627 94.1012 93.582 93.8585 93.89C93.6159 94.198 93.4945 94.618 93.4945 95.15L92.9905 95.206ZM92.3745 99V92H93.4945V99H92.3745ZM100.171 99.168C99.4897 99.168 98.8877 99.014 98.365 98.706C97.8423 98.3887 97.4317 97.9547 97.133 97.404C96.8437 96.8533 96.699 96.2187 96.699 95.5C96.699 94.7813 96.8437 94.1467 97.133 93.596C97.4317 93.0453 97.8377 92.616 98.351 92.308C98.8737 91.9907 99.471 91.832 100.143 91.832C100.796 91.832 101.361 91.9953 101.837 92.322C102.313 92.6393 102.682 93.0873 102.943 93.666C103.204 94.2447 103.335 94.926 103.335 95.71H97.553L97.833 95.472C97.833 96.032 97.931 96.5127 98.127 96.914C98.3323 97.3153 98.617 97.6233 98.981 97.838C99.345 98.0433 99.7603 98.146 100.227 98.146C100.722 98.146 101.137 98.0293 101.473 97.796C101.818 97.5627 102.084 97.2547 102.271 96.872L103.237 97.362C103.06 97.726 102.822 98.0433 102.523 98.314C102.234 98.5847 101.888 98.7947 101.487 98.944C101.095 99.0933 100.656 99.168 100.171 99.168ZM97.903 94.996L97.609 94.772H102.439L102.145 95.01C102.145 94.562 102.056 94.1747 101.879 93.848C101.702 93.5213 101.464 93.2693 101.165 93.092C100.866 92.9147 100.521 92.826 100.129 92.826C99.7463 92.826 99.3823 92.9147 99.037 93.092C98.701 93.2693 98.4257 93.5213 98.211 93.848C98.0057 94.1653 97.903 94.548 97.903 94.996ZM104.748 99V92H105.798L105.854 92.98C106.068 92.6067 106.344 92.322 106.68 92.126C107.016 91.93 107.408 91.832 107.856 91.832C108.416 91.832 108.892 91.9627 109.284 92.224C109.685 92.4853 109.974 92.882 110.152 93.414C110.348 92.9007 110.632 92.5087 111.006 92.238C111.388 91.9673 111.841 91.832 112.364 91.832C113.148 91.832 113.764 92.0933 114.212 92.616C114.669 93.1387 114.893 93.932 114.884 94.996V99H113.764V95.416C113.764 94.7253 113.689 94.198 113.54 93.834C113.4 93.47 113.208 93.2227 112.966 93.092C112.723 92.952 112.443 92.882 112.126 92.882C111.575 92.882 111.146 93.1013 110.838 93.54C110.53 93.9693 110.376 94.5807 110.376 95.374V99H109.256V95.416C109.256 94.7253 109.181 94.198 109.032 93.834C108.892 93.47 108.696 93.2227 108.444 93.092C108.201 92.952 107.921 92.882 107.604 92.882C107.062 92.882 106.638 93.1013 106.33 93.54C106.022 93.9693 105.868 94.5807 105.868 95.374V99H104.748ZM120.185 99V92H121.305V99H120.185ZM120.759 90.376C120.572 90.376 120.409 90.306 120.269 90.166C120.129 90.026 120.059 89.8627 120.059 89.676C120.059 89.48 120.129 89.3167 120.269 89.186C120.409 89.046 120.572 88.976 120.759 88.976C120.955 88.976 121.118 89.046 121.249 89.186C121.389 89.3167 121.459 89.48 121.459 89.676C121.459 89.8627 121.389 90.026 121.249 90.166C121.118 90.306 120.955 90.376 120.759 90.376ZM123.439 101.8V92H124.489L124.559 93.288V101.8H123.439ZM126.925 99.168C126.337 99.168 125.819 99.014 125.371 98.706C124.932 98.398 124.591 97.9687 124.349 97.418C124.106 96.858 123.985 96.2187 123.985 95.5C123.985 94.772 124.106 94.1327 124.349 93.582C124.591 93.0313 124.932 92.602 125.371 92.294C125.819 91.986 126.337 91.832 126.925 91.832C127.55 91.832 128.101 91.986 128.577 92.294C129.053 92.602 129.421 93.0313 129.683 93.582C129.953 94.1327 130.089 94.772 130.089 95.5C130.089 96.2187 129.953 96.858 129.683 97.418C129.421 97.9687 129.053 98.398 128.577 98.706C128.101 99.014 127.55 99.168 126.925 99.168ZM126.673 98.146C127.111 98.146 127.499 98.034 127.835 97.81C128.18 97.586 128.451 97.2733 128.647 96.872C128.852 96.4707 128.955 96.0133 128.955 95.5C128.955 94.9867 128.857 94.5293 128.661 94.128C128.474 93.7267 128.208 93.414 127.863 93.19C127.517 92.966 127.125 92.854 126.687 92.854C126.276 92.854 125.907 92.966 125.581 93.19C125.263 93.414 125.011 93.7267 124.825 94.128C124.647 94.5293 124.559 94.9867 124.559 95.5C124.559 96.0133 124.647 96.4707 124.825 96.872C125.011 97.2733 125.263 97.586 125.581 97.81C125.898 98.034 126.262 98.146 126.673 98.146ZM134.09 99.168C133.577 99.168 133.129 99.0933 132.746 98.944C132.363 98.7853 132.041 98.58 131.78 98.328C131.528 98.076 131.346 97.8007 131.234 97.502L132.214 97.096C132.373 97.4133 132.611 97.67 132.928 97.866C133.245 98.062 133.595 98.16 133.978 98.16C134.417 98.16 134.785 98.076 135.084 97.908C135.383 97.7307 135.532 97.4833 135.532 97.166C135.532 96.8767 135.42 96.6433 135.196 96.466C134.981 96.2887 134.659 96.144 134.23 96.032L133.558 95.85C132.923 95.682 132.429 95.43 132.074 95.094C131.719 94.7487 131.542 94.3613 131.542 93.932C131.542 93.2693 131.757 92.756 132.186 92.392C132.625 92.0187 133.273 91.832 134.132 91.832C134.543 91.832 134.916 91.8927 135.252 92.014C135.588 92.1353 135.877 92.308 136.12 92.532C136.363 92.7467 136.54 93.0033 136.652 93.302L135.672 93.736C135.551 93.4187 135.35 93.19 135.07 93.05C134.79 92.91 134.449 92.84 134.048 92.84C133.619 92.84 133.283 92.9333 133.04 93.12C132.797 93.2973 132.676 93.5493 132.676 93.876C132.676 94.0627 132.774 94.24 132.97 94.408C133.175 94.5667 133.474 94.6973 133.866 94.8L134.566 94.982C135.023 95.094 135.406 95.262 135.714 95.486C136.022 95.7007 136.255 95.948 136.414 96.228C136.573 96.508 136.652 96.8067 136.652 97.124C136.652 97.544 136.54 97.908 136.316 98.216C136.092 98.524 135.789 98.762 135.406 98.93C135.023 99.0887 134.585 99.168 134.09 99.168ZM142.964 99L142.894 97.712V92H144.014V99H142.964ZM137.98 95.584V92H139.1V95.584H137.98ZM139.1 95.584C139.1 96.2747 139.179 96.802 139.338 97.166C139.496 97.53 139.716 97.782 139.996 97.922C140.285 98.0527 140.607 98.118 140.962 98.118C141.568 98.118 142.04 97.8987 142.376 97.46C142.721 97.0213 142.894 96.41 142.894 95.626H143.44C143.44 96.3633 143.332 96.998 143.118 97.53C142.903 98.062 142.59 98.468 142.18 98.748C141.778 99.028 141.284 99.168 140.696 99.168C140.154 99.168 139.678 99.0607 139.268 98.846C138.857 98.622 138.54 98.272 138.316 97.796C138.092 97.3107 137.98 96.6853 137.98 95.92V95.584H139.1ZM145.968 99V92H147.018L147.074 92.98C147.289 92.6067 147.564 92.322 147.9 92.126C148.236 91.93 148.628 91.832 149.076 91.832C149.636 91.832 150.112 91.9627 150.504 92.224C150.906 92.4853 151.195 92.882 151.372 93.414C151.568 92.9007 151.853 92.5087 152.226 92.238C152.609 91.9673 153.062 91.832 153.584 91.832C154.368 91.832 154.984 92.0933 155.432 92.616C155.89 93.1387 156.114 93.932 156.104 94.996V99H154.984V95.416C154.984 94.7253 154.91 94.198 154.76 93.834C154.62 93.47 154.429 93.2227 154.186 93.092C153.944 92.952 153.664 92.882 153.346 92.882C152.796 92.882 152.366 93.1013 152.058 93.54C151.75 93.9693 151.596 94.5807 151.596 95.374V99H150.476V95.416C150.476 94.7253 150.402 94.198 150.252 93.834C150.112 93.47 149.916 93.2227 149.664 93.092C149.422 92.952 149.142 92.882 148.824 92.882C148.283 92.882 147.858 93.1013 147.55 93.54C147.242 93.9693 147.088 94.5807 147.088 95.374V99H145.968ZM161.657 99V89.2H162.847V97.922H167.467V99H161.657ZM171.703 99.168C171.022 99.168 170.415 99.014 169.883 98.706C169.36 98.3887 168.95 97.9547 168.651 97.404C168.352 96.8533 168.203 96.2187 168.203 95.5C168.203 94.7813 168.348 94.1467 168.637 93.596C168.936 93.0453 169.346 92.616 169.869 92.308C170.401 91.9907 171.003 91.832 171.675 91.832C172.366 91.832 172.972 91.9907 173.495 92.308C174.027 92.616 174.438 93.0453 174.727 93.596C175.026 94.1467 175.175 94.7813 175.175 95.5C175.175 96.2187 175.026 96.8533 174.727 97.404C174.438 97.9547 174.032 98.3887 173.509 98.706C172.986 99.014 172.384 99.168 171.703 99.168ZM171.703 98.132C172.17 98.132 172.576 98.02 172.921 97.796C173.266 97.572 173.537 97.264 173.733 96.872C173.938 96.48 174.041 96.0227 174.041 95.5C174.041 94.9773 173.938 94.52 173.733 94.128C173.537 93.736 173.262 93.428 172.907 93.204C172.552 92.98 172.142 92.868 171.675 92.868C171.218 92.868 170.812 92.98 170.457 93.204C170.112 93.428 169.836 93.736 169.631 94.128C169.435 94.52 169.337 94.9773 169.337 95.5C169.337 96.0133 169.435 96.4707 169.631 96.872C169.836 97.264 170.116 97.572 170.471 97.796C170.835 98.02 171.246 98.132 171.703 98.132ZM177.346 95.206C177.346 94.45 177.491 93.8387 177.78 93.372C178.069 92.896 178.438 92.546 178.886 92.322C179.343 92.0887 179.824 91.972 180.328 91.972V93.022C179.917 93.022 179.521 93.092 179.138 93.232C178.765 93.3627 178.457 93.582 178.214 93.89C177.971 94.198 177.85 94.618 177.85 95.15L177.346 95.206ZM176.73 99V92H177.85V99H176.73ZM184.526 99.168C183.845 99.168 183.243 99.014 182.72 98.706C182.198 98.3887 181.787 97.9547 181.488 97.404C181.199 96.8533 181.054 96.2187 181.054 95.5C181.054 94.7813 181.199 94.1467 181.488 93.596C181.787 93.0453 182.193 92.616 182.706 92.308C183.229 91.9907 183.826 91.832 184.498 91.832C185.152 91.832 185.716 91.9953 186.192 92.322C186.668 92.6393 187.037 93.0873 187.298 93.666C187.56 94.2447 187.69 94.926 187.69 95.71H181.908L182.188 95.472C182.188 96.032 182.286 96.5127 182.482 96.914C182.688 97.3153 182.972 97.6233 183.336 97.838C183.7 98.0433 184.116 98.146 184.582 98.146C185.077 98.146 185.492 98.0293 185.828 97.796C186.174 97.5627 186.44 97.2547 186.626 96.872L187.592 97.362C187.415 97.726 187.177 98.0433 186.878 98.314C186.589 98.5847 186.244 98.7947 185.842 98.944C185.45 99.0933 185.012 99.168 184.526 99.168ZM182.258 94.996L181.964 94.772H186.794L186.5 95.01C186.5 94.562 186.412 94.1747 186.234 93.848C186.057 93.5213 185.819 93.2693 185.52 93.092C185.222 92.9147 184.876 92.826 184.484 92.826C184.102 92.826 183.738 92.9147 183.392 93.092C183.056 93.2693 182.781 93.5213 182.566 93.848C182.361 94.1653 182.258 94.548 182.258 94.996ZM189.103 99V92H190.153L190.209 92.98C190.424 92.6067 190.699 92.322 191.035 92.126C191.371 91.93 191.763 91.832 192.211 91.832C192.771 91.832 193.247 91.9627 193.639 92.224C194.04 92.4853 194.33 92.882 194.507 93.414C194.703 92.9007 194.988 92.5087 195.361 92.238C195.744 91.9673 196.196 91.832 196.719 91.832C197.503 91.832 198.119 92.0933 198.567 92.616C199.024 93.1387 199.248 93.932 199.239 94.996V99H198.119V95.416C198.119 94.7253 198.044 94.198 197.895 93.834C197.755 93.47 197.564 93.2227 197.321 93.092C197.078 92.952 196.798 92.882 196.481 92.882C195.93 92.882 195.501 93.1013 195.193 93.54C194.885 93.9693 194.731 94.5807 194.731 95.374V99H193.611V95.416C193.611 94.7253 193.536 94.198 193.387 93.834C193.247 93.47 193.051 93.2227 192.799 93.092C192.556 92.952 192.276 92.882 191.959 92.882C191.418 92.882 190.993 93.1013 190.685 93.54C190.377 93.9693 190.223 94.5807 190.223 95.374V99H189.103ZM204.54 99V92H205.66V99H204.54ZM205.114 90.376C204.928 90.376 204.764 90.306 204.624 90.166C204.484 90.026 204.414 89.8627 204.414 89.676C204.414 89.48 204.484 89.3167 204.624 89.186C204.764 89.046 204.928 88.976 205.114 88.976C205.31 88.976 205.474 89.046 205.604 89.186C205.744 89.3167 205.814 89.48 205.814 89.676C205.814 89.8627 205.744 90.026 205.604 90.166C205.474 90.306 205.31 90.376 205.114 90.376ZM207.794 101.8V92H208.844L208.914 93.288V101.8H207.794ZM211.28 99.168C210.692 99.168 210.174 99.014 209.726 98.706C209.287 98.398 208.947 97.9687 208.704 97.418C208.461 96.858 208.34 96.2187 208.34 95.5C208.34 94.772 208.461 94.1327 208.704 93.582C208.947 93.0313 209.287 92.602 209.726 92.294C210.174 91.986 210.692 91.832 211.28 91.832C211.905 91.832 212.456 91.986 212.932 92.294C213.408 92.602 213.777 93.0313 214.038 93.582C214.309 94.1327 214.444 94.772 214.444 95.5C214.444 96.2187 214.309 96.858 214.038 97.418C213.777 97.9687 213.408 98.398 212.932 98.706C212.456 99.014 211.905 99.168 211.28 99.168ZM211.028 98.146C211.467 98.146 211.854 98.034 212.19 97.81C212.535 97.586 212.806 97.2733 213.002 96.872C213.207 96.4707 213.31 96.0133 213.31 95.5C213.31 94.9867 213.212 94.5293 213.016 94.128C212.829 93.7267 212.563 93.414 212.218 93.19C211.873 92.966 211.481 92.854 211.042 92.854C210.631 92.854 210.263 92.966 209.936 93.19C209.619 93.414 209.367 93.7267 209.18 94.128C209.003 94.5293 208.914 94.9867 208.914 95.5C208.914 96.0133 209.003 96.4707 209.18 96.872C209.367 97.2733 209.619 97.586 209.936 97.81C210.253 98.034 210.617 98.146 211.028 98.146ZM218.446 99.168C217.932 99.168 217.484 99.0933 217.102 98.944C216.719 98.7853 216.397 98.58 216.136 98.328C215.884 98.076 215.702 97.8007 215.59 97.502L216.57 97.096C216.728 97.4133 216.966 97.67 217.284 97.866C217.601 98.062 217.951 98.16 218.334 98.16C218.772 98.16 219.141 98.076 219.44 97.908C219.738 97.7307 219.888 97.4833 219.888 97.166C219.888 96.8767 219.776 96.6433 219.552 96.466C219.337 96.2887 219.015 96.144 218.586 96.032L217.914 95.85C217.279 95.682 216.784 95.43 216.43 95.094C216.075 94.7487 215.898 94.3613 215.898 93.932C215.898 93.2693 216.112 92.756 216.542 92.392C216.98 92.0187 217.629 91.832 218.488 91.832C218.898 91.832 219.272 91.8927 219.608 92.014C219.944 92.1353 220.233 92.308 220.476 92.532C220.718 92.7467 220.896 93.0033 221.008 93.302L220.028 93.736C219.906 93.4187 219.706 93.19 219.426 93.05C219.146 92.91 218.805 92.84 218.404 92.84C217.974 92.84 217.638 92.9333 217.396 93.12C217.153 93.2973 217.032 93.5493 217.032 93.876C217.032 94.0627 217.13 94.24 217.326 94.408C217.531 94.5667 217.83 94.6973 218.222 94.8L218.922 94.982C219.379 95.094 219.762 95.262 220.07 95.486C220.378 95.7007 220.611 95.948 220.77 96.228C220.928 96.508 221.008 96.8067 221.008 97.124C221.008 97.544 220.896 97.908 220.672 98.216C220.448 98.524 220.144 98.762 219.762 98.93C219.379 99.0887 218.94 99.168 218.446 99.168ZM227.319 99L227.249 97.712V92H228.369V99H227.319ZM222.335 95.584V92H223.455V95.584H222.335ZM223.455 95.584C223.455 96.2747 223.534 96.802 223.693 97.166C223.852 97.53 224.071 97.782 224.351 97.922C224.64 98.0527 224.962 98.118 225.317 98.118C225.924 98.118 226.395 97.8987 226.731 97.46C227.076 97.0213 227.249 96.41 227.249 95.626H227.795C227.795 96.3633 227.688 96.998 227.473 97.53C227.258 98.062 226.946 98.468 226.535 98.748C226.134 99.028 225.639 99.168 225.051 99.168C224.51 99.168 224.034 99.0607 223.623 98.846C223.212 98.622 222.895 98.272 222.671 97.796C222.447 97.3107 222.335 96.6853 222.335 95.92V95.584H223.455ZM230.324 99V92H231.374L231.43 92.98C231.644 92.6067 231.92 92.322 232.256 92.126C232.592 91.93 232.984 91.832 233.432 91.832C233.992 91.832 234.468 91.9627 234.86 92.224C235.261 92.4853 235.55 92.882 235.728 93.414C235.924 92.9007 236.208 92.5087 236.582 92.238C236.964 91.9673 237.417 91.832 237.94 91.832C238.724 91.832 239.34 92.0933 239.788 92.616C240.245 93.1387 240.469 93.932 240.46 94.996V99H239.34V95.416C239.34 94.7253 239.265 94.198 239.116 93.834C238.976 93.47 238.784 93.2227 238.542 93.092C238.299 92.952 238.019 92.882 237.702 92.882C237.151 92.882 236.722 93.1013 236.414 93.54C236.106 93.9693 235.952 94.5807 235.952 95.374V99H234.832V95.416C234.832 94.7253 234.757 94.198 234.608 93.834C234.468 93.47 234.272 93.2227 234.02 93.092C233.777 92.952 233.497 92.882 233.18 92.882C232.638 92.882 232.214 93.1013 231.906 93.54C231.598 93.9693 231.444 94.5807 231.444 95.374V99H230.324Z" fill="#1F1F1F"/>
<rect x="32" y="128" width="52.6" height="6" rx="3" fill="#25A774"/>
<rect x="92.6" y="128" width="52.6" height="6" rx="3" fill="#25A774"/>
<rect x="153.2" y="128" width="52.6" height="6" rx="3" fill="#25A774"/>
<rect x="213.8" y="128" width="52.6" height="6" rx="3" fill="#25A774"/>
<rect x="274.4" y="128" width="52.6" height="6" rx="3" fill="#25A774"/>
</g>
<defs>
<filter id="filter0_dddd_1656_19673" x="0" y="0" width="359" height="170" filterUnits="userSpaceOnUse" color-interpolation-filters="sRGB">
<feFlood flood-opacity="0" result="BackgroundImageFix"/>
<feColorMatrix in="SourceAlpha" type="matrix" values="0 0 0 0 0 0 0 0 0 0 0 0 0 0 0 0 0 0 127 0" result="hardAlpha"/>
<feOffset dy="8"/>
<feGaussianBlur stdDeviation="8"/>
<feColorMatrix type="matrix" values="0 0 0 0 0 0 0 0 0 0 0 0 0 0 0 0 0 0 0.08 0"/>
<feBlend mode="normal" in2="BackgroundImageFix" result="effect1_dropShadow_1656_19673"/>
<feColorMatrix in="SourceAlpha" type="matrix" values="0 0 0 0 0 0 0 0 0 0 0 0 0 0 0 0 0 0 127 0" result="hardAlpha"/>
<feOffset/>
<feGaussianBlur stdDeviation="2"/>
<feColorMatrix type="matrix" values="0 0 0 0 0 0 0 0 0 0 0 0 0 0 0 0 0 0 0.04 0"/>
<feBlend mode="normal" in2="effect1_dropShadow_1656_19673" result="effect2_dropShadow_1656_19673"/>
<feColorMatrix in="SourceAlpha" type="matrix" values="0 0 0 0 0 0 0 0 0 0 0 0 0 0 0 0 0 0 127 0" result="hardAlpha"/>
<feOffset dy="-8"/>
<feGaussianBlur stdDeviation="8"/>
<feColorMatrix type="matrix" values="0 0 0 0 0 0 0 0 0 0 0 0 0 0 0 0 0 0 0.08 0"/>
<feBlend mode="normal" in2="effect2_dropShadow_1656_19673" result="effect3_dropShadow_1656_19673"/>
<feColorMatrix in="SourceAlpha" type="matrix" values="0 0 0 0 0 0 0 0 0 0 0 0 0 0 0 0 0 0 127 0" result="hardAlpha"/>
<feOffset/>
<feGaussianBlur stdDeviation="2"/>
<feColorMatrix type="matrix" values="0 0 0 0 0 0 0 0 0 0 0 0 0 0 0 0 0 0 0.04 0"/>
<feBlend mode="normal" in2="effect3_dropShadow_1656_19673" result="effect4_dropShadow_1656_19673"/>
<feBlend mode="normal" in="SourceGraphic" in2="effect4_dropShadow_1656_19673" result="shape"/>
</filter>
</defs>
</svg>
