<svg width="359" height="170" viewBox="0 0 359 170" fill="none" xmlns="http://www.w3.org/2000/svg">
<g filter="url(#filter0_dddd_1656_19673)">
<rect x="16" y="24" width="327" height="122" rx="8" fill="white"/>
<rect x="16.5" y="24.5" width="326" height="121" rx="7.5" stroke="#EBEBEB"/>
<path d="M57.3334 84.3349C55.1734 84.3349 53.1334 83.2149 51.9867 81.3749C51.3734 80.4282 51.0267 79.2948 51 78.1348C50.96 76.1882 51.7867 74.3748 53.2667 73.1482C54.3734 72.2282 55.7601 71.7082 57.1867 71.6682C58.9201 71.6549 60.48 72.2549 61.7067 73.4282C62.9334 74.6015 63.6267 76.1749 63.6534 77.8682C63.68 79.0282 63.3867 80.1615 62.8001 81.1615C62.4801 81.7215 62.0667 82.2415 61.5734 82.6815C60.48 83.7082 59.0134 84.3082 57.4534 84.3349C57.4267 84.3349 57.3867 84.3349 57.3334 84.3349ZM57.3334 73.6682C57.3067 73.6682 57.2667 73.6682 57.24 73.6682C56.2534 73.6949 55.32 74.0415 54.5467 74.6815C53.5334 75.5215 52.9734 76.7615 53 78.0949C53.0134 78.8815 53.2534 79.6548 53.6667 80.3082C54.48 81.6148 55.8934 82.4149 57.4134 82.3349C58.4667 82.3082 59.4667 81.9082 60.2267 81.2016C60.5734 80.8949 60.8534 80.5482 61.0667 80.1749C61.4667 79.4815 61.6667 78.7082 61.6534 77.9215C61.6267 76.7615 61.16 75.6815 60.32 74.8815C59.52 74.0948 58.4534 73.6682 57.3334 73.6682Z" fill="#25A774"/>
<path d="M56.5999 80.3342C56.3465 80.3342 56.1065 80.2408 55.9065 80.0542L54.5599 78.7742C54.1599 78.3876 54.1465 77.7609 54.5332 77.3609C54.9199 76.9609 55.5465 76.9475 55.9465 77.3342L56.5999 77.9608L58.6932 75.9342C59.0932 75.5476 59.7198 75.5608 60.1065 75.9608C60.4932 76.3608 60.4799 76.9876 60.0799 77.3743L57.2932 80.0675C57.0932 80.2409 56.8399 80.3342 56.5999 80.3342Z" fill="#25A774"/>
<path d="M47.9998 71.7318C47.8265 71.7318 47.6532 71.6919 47.4932 71.5985L35.7198 64.7852C35.2398 64.5052 35.0798 63.8919 35.3598 63.4119C35.6398 62.9319 36.2532 62.7718 36.7198 63.0518L47.9865 69.5719L59.1865 63.0919C59.6665 62.8119 60.2798 62.9852 60.5465 63.4519C60.8265 63.9319 60.6532 64.5452 60.1865 64.8252L48.4932 71.5985C48.3465 71.6785 48.1732 71.7318 47.9998 71.7318Z" fill="#25A774"/>
<path d="M48 83.8121C47.4533 83.8121 47 83.3588 47 82.8121V70.7188C47 70.1721 47.4533 69.7188 48 69.7188C48.5467 69.7188 49 70.1721 49 70.7188V82.8121C49 83.3588 48.5467 83.8121 48 83.8121Z" fill="#25A774"/>
<path d="M47.9999 84.3345C46.8265 84.3345 45.6532 84.0812 44.7465 83.5612L37.6265 79.6146C35.6932 78.5479 34.1732 75.9745 34.1732 73.7612V66.2145C34.1732 64.0012 35.6932 61.4412 37.6265 60.3612L44.7465 56.4145C46.5599 55.3879 49.4132 55.3879 51.2399 56.4145L58.3599 60.3612C60.2932 61.4279 61.8132 64.0012 61.8132 66.2145V73.7612C61.8132 73.8945 61.8132 74.0012 61.7865 74.1345C61.7199 74.4812 61.4666 74.7745 61.1332 74.8812C60.7999 75.0012 60.4265 74.9212 60.1465 74.6946C58.6132 73.3612 56.2399 73.3079 54.6265 74.6012C53.5999 75.4146 52.9999 76.6545 52.9999 77.9745C52.9999 78.7612 53.2132 79.5346 53.6265 80.2012C53.7332 80.3879 53.8399 80.5345 53.9599 80.6812C54.1599 80.9079 54.2399 81.2145 54.1866 81.5079C54.1332 81.8012 53.9466 82.0546 53.6799 82.2012L51.2399 83.5478C50.3332 84.0812 49.1732 84.3345 47.9999 84.3345ZM47.9999 57.6679C47.1732 57.6679 46.3332 57.8412 45.7332 58.1745L38.6132 62.1212C37.3199 62.8279 36.1999 64.7478 36.1999 66.2145V73.7612C36.1999 75.2279 37.3332 77.1479 38.6132 77.8546L45.7332 81.8012C46.9465 82.4812 49.0665 82.4812 50.2799 81.8012L51.7732 80.9745C51.2799 80.0812 51.0132 79.0412 51.0132 77.9745C51.0132 76.0278 51.8799 74.2279 53.3866 73.0279C55.1999 71.5746 57.7865 71.2678 59.8265 72.1345V66.1879C59.8265 64.7212 58.6932 62.8012 57.4132 62.0945L50.2932 58.1478C49.6665 57.8412 48.8265 57.6679 47.9999 57.6679Z" fill="#25A774"/>
<path d="M82.304 54.192C81.1947 54.192 80.2133 53.9467 79.36 53.456C78.5067 52.9653 77.8347 52.2827 77.344 51.408C76.864 50.5333 76.624 49.5307 76.624 48.4C76.624 47.2693 76.864 46.272 77.344 45.408C77.8347 44.5333 78.5013 43.8507 79.344 43.36C80.1867 42.8587 81.1573 42.608 82.256 42.608C83.3653 42.608 84.3413 42.8587 85.184 43.36C86.0373 43.8507 86.6987 44.5333 87.168 45.408C87.648 46.272 87.888 47.2693 87.888 48.4C87.888 49.5307 87.648 50.5333 87.168 51.408C86.6987 52.2827 86.0427 52.9653 85.2 53.456C84.368 53.9467 83.4027 54.192 82.304 54.192ZM82.304 52.496C83.0293 52.496 83.6693 52.32 84.224 51.968C84.7787 51.616 85.2107 51.136 85.52 50.528C85.84 49.9093 86 49.2 86 48.4C86 47.6107 85.84 46.9067 85.52 46.288C85.2 45.6693 84.7573 45.1893 84.192 44.848C83.6373 44.496 82.992 44.32 82.256 44.32C81.5307 44.32 80.8853 44.496 80.32 44.848C79.7653 45.1893 79.3227 45.6693 78.992 46.288C78.672 46.896 78.512 47.6 78.512 48.4C78.512 49.2 78.672 49.9093 78.992 50.528C79.3227 51.136 79.7707 51.616 80.336 51.968C80.912 52.32 81.568 52.496 82.304 52.496ZM90.7073 49.744C90.7073 48.88 90.8726 48.1707 91.2033 47.616C91.5339 47.0613 91.9606 46.6507 92.4833 46.384C93.0166 46.1067 93.5713 45.968 94.1473 45.968V47.68C93.6566 47.68 93.1926 47.7493 92.7552 47.888C92.3286 48.016 91.9819 48.2293 91.7153 48.528C91.4486 48.8267 91.3153 49.2213 91.3153 49.712L90.7073 49.744ZM89.5233 54V46H91.3153V54H89.5233ZM101.112 54L101.032 52.512V42.8H102.808V54H101.112ZM98.5038 54.192C97.7784 54.192 97.1438 54.0213 96.5998 53.68C96.0664 53.328 95.6451 52.8373 95.3358 52.208C95.0371 51.5787 94.8878 50.8427 94.8878 50C94.8878 49.1467 95.0371 48.4107 95.3358 47.792C95.6451 47.1627 96.0664 46.6773 96.5998 46.336C97.1438 45.984 97.7784 45.808 98.5038 45.808C99.1758 45.808 99.7518 45.984 100.232 46.336C100.722 46.6773 101.096 47.1627 101.352 47.792C101.608 48.4107 101.736 49.1467 101.736 50C101.736 50.8427 101.608 51.5787 101.352 52.208C101.096 52.8373 100.722 53.328 100.232 53.68C99.7518 54.0213 99.1758 54.192 98.5038 54.192ZM98.9518 52.56C99.3571 52.56 99.7144 52.4533 100.024 52.24C100.344 52.016 100.589 51.712 100.76 51.328C100.941 50.944 101.032 50.5013 101.032 50C101.032 49.4987 100.941 49.056 100.76 48.672C100.589 48.288 100.344 47.9893 100.024 47.776C99.7144 47.5627 99.3518 47.456 98.9358 47.456C98.5091 47.456 98.1304 47.5627 97.7998 47.776C97.4691 47.9893 97.2078 48.288 97.0158 48.672C96.8344 49.056 96.7384 49.4987 96.7278 50C96.7384 50.5013 96.8344 50.944 97.0158 51.328C97.2078 51.712 97.4691 52.016 97.7998 52.24C98.1411 52.4533 98.5251 52.56 98.9518 52.56ZM108.357 54.192C107.578 54.192 106.885 54.016 106.277 53.664C105.68 53.3013 105.205 52.8053 104.853 52.176C104.512 51.5467 104.341 50.8213 104.341 50C104.341 49.1787 104.517 48.4533 104.869 47.824C105.221 47.1947 105.701 46.704 106.309 46.352C106.928 45.9893 107.632 45.808 108.421 45.808C109.136 45.808 109.781 45.9947 110.357 46.368C110.933 46.7307 111.386 47.2587 111.717 47.952C112.058 48.6453 112.229 49.472 112.229 50.432H105.941L106.181 50.208C106.181 50.6987 106.288 51.1253 106.501 51.488C106.714 51.84 106.997 52.112 107.349 52.304C107.701 52.496 108.09 52.592 108.517 52.592C109.008 52.592 109.413 52.4853 109.733 52.272C110.053 52.048 110.304 51.76 110.485 51.408L112.069 52.08C111.845 52.5067 111.557 52.88 111.205 53.2C110.864 53.52 110.453 53.7653 109.973 53.936C109.504 54.1067 108.965 54.192 108.357 54.192ZM106.293 49.28L106.037 49.056H110.549L110.309 49.28C110.309 48.8427 110.213 48.4853 110.021 48.208C109.829 47.92 109.584 47.7067 109.285 47.568C108.997 47.4187 108.693 47.344 108.373 47.344C108.053 47.344 107.733 47.4187 107.413 47.568C107.093 47.7067 106.826 47.92 106.613 48.208C106.4 48.4853 106.293 48.8427 106.293 49.28ZM114.785 49.744C114.785 48.88 114.951 48.1707 115.281 47.616C115.612 47.0613 116.039 46.6507 116.561 46.384C117.095 46.1067 117.649 45.968 118.225 45.968V47.68C117.735 47.68 117.271 47.7493 116.833 47.888C116.407 48.016 116.06 48.2293 115.793 48.528C115.527 48.8267 115.393 49.2213 115.393 49.712L114.785 49.744ZM113.601 54V46H115.393V54H113.601ZM123.289 54V42.8H125.081V54H123.289ZM128.713 54V49.904H130.505V54H128.713ZM128.713 49.904C128.713 49.264 128.639 48.7733 128.489 48.432C128.34 48.08 128.132 47.8347 127.865 47.696C127.609 47.5573 127.311 47.488 126.969 47.488C126.361 47.4773 125.892 47.6747 125.561 48.08C125.241 48.4853 125.081 49.0667 125.081 49.824H124.393C124.393 48.9813 124.516 48.2613 124.761 47.664C125.017 47.056 125.375 46.5973 125.833 46.288C126.292 45.968 126.836 45.808 127.465 45.808C128.095 45.808 128.639 45.936 129.097 46.192C129.556 46.448 129.903 46.848 130.137 47.392C130.383 47.9253 130.505 48.624 130.505 49.488V49.904H128.713ZM137.2 54L137.12 52.496V49.888C137.12 49.344 137.061 48.8907 136.944 48.528C136.837 48.1547 136.656 47.872 136.4 47.68C136.155 47.4773 135.824 47.376 135.408 47.376C135.024 47.376 134.688 47.456 134.4 47.616C134.112 47.776 133.867 48.0267 133.664 48.368L132.096 47.792C132.267 47.44 132.491 47.1147 132.768 46.816C133.056 46.5067 133.413 46.2613 133.84 46.08C134.277 45.8987 134.8 45.808 135.408 45.808C136.187 45.808 136.837 45.9627 137.36 46.272C137.883 46.5707 138.267 47.0027 138.512 47.568C138.768 48.1333 138.896 48.816 138.896 49.616L138.848 54H137.2ZM134.896 54.192C133.936 54.192 133.189 53.9787 132.656 53.552C132.133 53.1253 131.872 52.5227 131.872 51.744C131.872 50.912 132.149 50.2773 132.704 49.84C133.269 49.4027 134.053 49.184 135.056 49.184H137.2V50.56H135.632C134.917 50.56 134.416 50.6613 134.128 50.864C133.84 51.056 133.696 51.3333 133.696 51.696C133.696 52.0053 133.819 52.2507 134.064 52.432C134.32 52.6027 134.672 52.688 135.12 52.688C135.525 52.688 135.877 52.5973 136.176 52.416C136.475 52.2347 136.704 51.9947 136.864 51.696C137.035 51.3973 137.12 51.0613 137.12 50.688H137.648C137.648 51.776 137.429 52.6347 136.992 53.264C136.555 53.8827 135.856 54.192 134.896 54.192ZM143.623 54.192C143.089 54.192 142.599 54.112 142.151 53.952C141.703 53.792 141.319 53.568 140.999 53.28C140.679 52.9813 140.433 52.6347 140.263 52.24L141.815 51.552C141.975 51.8507 142.209 52.1013 142.519 52.304C142.839 52.5067 143.191 52.608 143.575 52.608C143.991 52.608 144.321 52.5387 144.567 52.4C144.823 52.2507 144.951 52.048 144.951 51.792C144.951 51.5467 144.855 51.36 144.663 51.232C144.471 51.0933 144.199 50.9813 143.847 50.896L143.095 50.688C142.337 50.496 141.745 50.192 141.319 49.776C140.892 49.3493 140.679 48.864 140.679 48.32C140.679 47.52 140.935 46.9013 141.447 46.464C141.969 46.0267 142.716 45.808 143.687 45.808C144.177 45.808 144.625 45.8827 145.031 46.032C145.447 46.1707 145.804 46.3733 146.103 46.64C146.401 46.896 146.609 47.2 146.727 47.552L145.239 48.224C145.132 47.9573 144.929 47.7547 144.631 47.616C144.332 47.4667 144.001 47.392 143.639 47.392C143.276 47.392 142.993 47.472 142.791 47.632C142.588 47.7813 142.487 47.9947 142.487 48.272C142.487 48.432 142.577 48.5813 142.759 48.72C142.94 48.848 143.201 48.9547 143.543 49.04L144.487 49.264C145.009 49.392 145.436 49.5947 145.767 49.872C146.097 50.1387 146.343 50.4427 146.503 50.784C146.663 51.1147 146.743 51.4507 146.743 51.792C146.743 52.272 146.604 52.6933 146.327 53.056C146.06 53.4187 145.692 53.7013 145.223 53.904C144.753 54.096 144.22 54.192 143.623 54.192ZM152.023 54V42.8H153.815V52.512L153.719 54H152.023ZM156.343 54.192C155.671 54.192 155.09 54.0213 154.599 53.68C154.119 53.328 153.751 52.8373 153.495 52.208C153.239 51.5787 153.111 50.8427 153.111 50C153.111 49.1467 153.239 48.4107 153.495 47.792C153.751 47.1627 154.119 46.6773 154.599 46.336C155.09 45.984 155.671 45.808 156.343 45.808C157.069 45.808 157.698 45.984 158.231 46.336C158.775 46.6773 159.197 47.1627 159.495 47.792C159.805 48.4107 159.959 49.1467 159.959 50C159.959 50.8427 159.805 51.5787 159.495 52.208C159.197 52.8373 158.775 53.328 158.231 53.68C157.698 54.0213 157.069 54.192 156.343 54.192ZM155.895 52.56C156.322 52.56 156.701 52.4533 157.031 52.24C157.362 52.016 157.623 51.712 157.815 51.328C158.018 50.944 158.119 50.5013 158.119 50C158.119 49.4987 158.023 49.056 157.831 48.672C157.65 48.288 157.394 47.9893 157.063 47.776C156.733 47.5627 156.349 47.456 155.911 47.456C155.506 47.456 155.143 47.5627 154.823 47.776C154.503 47.9893 154.253 48.288 154.071 48.672C153.901 49.056 153.815 49.4987 153.815 50C153.815 50.5013 153.901 50.944 154.071 51.328C154.253 51.712 154.498 52.016 154.807 52.24C155.127 52.4533 155.49 52.56 155.895 52.56ZM165.06 54.192C164.281 54.192 163.588 54.016 162.98 53.664C162.383 53.3013 161.908 52.8053 161.556 52.176C161.215 51.5467 161.044 50.8213 161.044 50C161.044 49.1787 161.22 48.4533 161.572 47.824C161.924 47.1947 162.404 46.704 163.012 46.352C163.631 45.9893 164.335 45.808 165.124 45.808C165.839 45.808 166.484 45.9947 167.06 46.368C167.636 46.7307 168.089 47.2587 168.42 47.952C168.761 48.6453 168.932 49.472 168.932 50.432H162.644L162.884 50.208C162.884 50.6987 162.991 51.1253 163.204 51.488C163.417 51.84 163.7 52.112 164.052 52.304C164.404 52.496 164.793 52.592 165.22 52.592C165.711 52.592 166.116 52.4853 166.436 52.272C166.756 52.048 167.007 51.76 167.188 51.408L168.772 52.08C168.548 52.5067 168.26 52.88 167.908 53.2C167.567 53.52 167.156 53.7653 166.676 53.936C166.207 54.1067 165.668 54.192 165.06 54.192ZM162.996 49.28L162.74 49.056H167.252L167.012 49.28C167.012 48.8427 166.916 48.4853 166.724 48.208C166.532 47.92 166.287 47.7067 165.988 47.568C165.7 47.4187 165.396 47.344 165.076 47.344C164.756 47.344 164.436 47.4187 164.116 47.568C163.796 47.7067 163.529 47.92 163.316 48.208C163.103 48.4853 162.996 48.8427 162.996 49.28ZM173.873 54.192C173.094 54.192 172.401 54.016 171.793 53.664C171.195 53.3013 170.721 52.8053 170.368 52.176C170.027 51.5467 169.857 50.8213 169.857 50C169.857 49.1787 170.033 48.4533 170.385 47.824C170.737 47.1947 171.217 46.704 171.825 46.352C172.443 45.9893 173.147 45.808 173.937 45.808C174.651 45.808 175.297 45.9947 175.873 46.368C176.449 46.7307 176.902 47.2587 177.233 47.952C177.574 48.6453 177.745 49.472 177.745 50.432H171.457L171.697 50.208C171.697 50.6987 171.803 51.1253 172.017 51.488C172.23 51.84 172.513 52.112 172.865 52.304C173.217 52.496 173.606 52.592 174.033 52.592C174.523 52.592 174.929 52.4853 175.249 52.272C175.569 52.048 175.819 51.76 176.001 51.408L177.585 52.08C177.361 52.5067 177.073 52.88 176.721 53.2C176.379 53.52 175.969 53.7653 175.489 53.936C175.019 54.1067 174.481 54.192 173.873 54.192ZM171.809 49.28L171.553 49.056H176.065L175.825 49.28C175.825 48.8427 175.729 48.4853 175.537 48.208C175.345 47.92 175.099 47.7067 174.801 47.568C174.513 47.4187 174.209 47.344 173.889 47.344C173.569 47.344 173.249 47.4187 172.929 47.568C172.609 47.7067 172.342 47.92 172.129 48.208C171.915 48.4853 171.809 48.8427 171.809 49.28ZM179.117 54V46H180.797L180.909 47.472V54H179.117ZM184.541 54V49.904H186.333V54H184.541ZM184.541 49.904C184.541 49.264 184.466 48.7733 184.317 48.432C184.178 48.08 183.976 47.8347 183.709 47.696C183.453 47.5573 183.149 47.488 182.797 47.488C182.2 47.4773 181.736 47.6747 181.405 48.08C181.074 48.4853 180.909 49.0667 180.909 49.824H180.237C180.237 48.9813 180.36 48.2613 180.605 47.664C180.85 47.056 181.202 46.5973 181.661 46.288C182.12 45.968 182.664 45.808 183.293 45.808C183.933 45.808 184.477 45.936 184.925 46.192C185.384 46.448 185.73 46.848 185.965 47.392C186.21 47.9253 186.333 48.624 186.333 49.488V49.904H184.541ZM197.784 54L197.704 52.512V42.8H199.48V54H197.784ZM195.176 54.192C194.45 54.192 193.816 54.0213 193.272 53.68C192.738 53.328 192.317 52.8373 192.008 52.208C191.709 51.5787 191.56 50.8427 191.56 50C191.56 49.1467 191.709 48.4107 192.008 47.792C192.317 47.1627 192.738 46.6773 193.272 46.336C193.816 45.984 194.45 45.808 195.176 45.808C195.848 45.808 196.424 45.984 196.904 46.336C197.394 46.6773 197.768 47.1627 198.024 47.792C198.28 48.4107 198.408 49.1467 198.408 50C198.408 50.8427 198.28 51.5787 198.024 52.208C197.768 52.8373 197.394 53.328 196.904 53.68C196.424 54.0213 195.848 54.192 195.176 54.192ZM195.624 52.56C196.029 52.56 196.386 52.4533 196.696 52.24C197.016 52.016 197.261 51.712 197.432 51.328C197.613 50.944 197.704 50.5013 197.704 50C197.704 49.4987 197.613 49.056 197.432 48.672C197.261 48.288 197.016 47.9893 196.696 47.776C196.386 47.5627 196.024 47.456 195.608 47.456C195.181 47.456 194.802 47.5627 194.472 47.776C194.141 47.9893 193.88 48.288 193.688 48.672C193.506 49.056 193.41 49.4987 193.4 50C193.41 50.5013 193.506 50.944 193.688 51.328C193.88 51.712 194.141 52.016 194.472 52.24C194.813 52.4533 195.197 52.56 195.624 52.56ZM205.029 54.192C204.25 54.192 203.557 54.016 202.949 53.664C202.351 53.3013 201.877 52.8053 201.525 52.176C201.183 51.5467 201.013 50.8213 201.013 50C201.013 49.1787 201.189 48.4533 201.541 47.824C201.893 47.1947 202.373 46.704 202.981 46.352C203.599 45.9893 204.303 45.808 205.093 45.808C205.807 45.808 206.453 45.9947 207.029 46.368C207.605 46.7307 208.058 47.2587 208.389 47.952C208.73 48.6453 208.901 49.472 208.901 50.432H202.613L202.853 50.208C202.853 50.6987 202.959 51.1253 203.173 51.488C203.386 51.84 203.669 52.112 204.021 52.304C204.373 52.496 204.762 52.592 205.189 52.592C205.679 52.592 206.085 52.4853 206.405 52.272C206.725 52.048 206.975 51.76 207.157 51.408L208.741 52.08C208.517 52.5067 208.229 52.88 207.877 53.2C207.535 53.52 207.125 53.7653 206.645 53.936C206.175 54.1067 205.637 54.192 205.029 54.192ZM202.965 49.28L202.709 49.056H207.221L206.981 49.28C206.981 48.8427 206.885 48.4853 206.693 48.208C206.501 47.92 206.255 47.7067 205.957 47.568C205.669 47.4187 205.365 47.344 205.045 47.344C204.725 47.344 204.405 47.4187 204.085 47.568C203.765 47.7067 203.498 47.92 203.285 48.208C203.071 48.4853 202.965 48.8427 202.965 49.28ZM210.273 54V42.8H212.065V54H210.273ZM214.167 54V46H215.943V54H214.167ZM215.062 44.48C214.775 44.48 214.524 44.3787 214.311 44.176C214.108 43.9627 214.007 43.712 214.007 43.424C214.007 43.136 214.108 42.8907 214.311 42.688C214.524 42.4853 214.775 42.384 215.062 42.384C215.351 42.384 215.596 42.4853 215.799 42.688C216.012 42.8907 216.119 43.136 216.119 43.424C216.119 43.712 216.012 43.9627 215.799 44.176C215.596 44.3787 215.351 44.48 215.062 44.48ZM220.631 54L223.751 46H225.607L222.311 54H220.631ZM220.503 54L217.191 46H219.031L222.167 54H220.503ZM230.076 54.192C229.297 54.192 228.604 54.016 227.996 53.664C227.398 53.3013 226.924 52.8053 226.572 52.176C226.23 51.5467 226.06 50.8213 226.06 50C226.06 49.1787 226.236 48.4533 226.588 47.824C226.94 47.1947 227.42 46.704 228.028 46.352C228.646 45.9893 229.35 45.808 230.14 45.808C230.854 45.808 231.5 45.9947 232.076 46.368C232.652 46.7307 233.105 47.2587 233.436 47.952C233.777 48.6453 233.948 49.472 233.948 50.432H227.66L227.9 50.208C227.9 50.6987 228.006 51.1253 228.22 51.488C228.433 51.84 228.716 52.112 229.068 52.304C229.42 52.496 229.809 52.592 230.236 52.592C230.726 52.592 231.132 52.4853 231.452 52.272C231.772 52.048 232.022 51.76 232.204 51.408L233.788 52.08C233.564 52.5067 233.276 52.88 232.924 53.2C232.582 53.52 232.172 53.7653 231.692 53.936C231.222 54.1067 230.684 54.192 230.076 54.192ZM228.012 49.28L227.756 49.056H232.268L232.028 49.28C232.028 48.8427 231.932 48.4853 231.74 48.208C231.548 47.92 231.302 47.7067 231.004 47.568C230.716 47.4187 230.412 47.344 230.092 47.344C229.772 47.344 229.452 47.4187 229.132 47.568C228.812 47.7067 228.545 47.92 228.332 48.208C228.118 48.4853 228.012 48.8427 228.012 49.28ZM236.504 49.744C236.504 48.88 236.669 48.1707 237 47.616C237.331 47.0613 237.757 46.6507 238.28 46.384C238.813 46.1067 239.368 45.968 239.944 45.968V47.68C239.453 47.68 238.989 47.7493 238.552 47.888C238.125 48.016 237.779 48.2293 237.512 48.528C237.245 48.8267 237.112 49.2213 237.112 49.712L236.504 49.744ZM235.32 54V46H237.112V54H235.32ZM244.701 54.192C243.922 54.192 243.229 54.016 242.621 53.664C242.023 53.3013 241.549 52.8053 241.197 52.176C240.855 51.5467 240.685 50.8213 240.685 50C240.685 49.1787 240.861 48.4533 241.213 47.824C241.565 47.1947 242.045 46.704 242.653 46.352C243.271 45.9893 243.975 45.808 244.765 45.808C245.479 45.808 246.125 45.9947 246.701 46.368C247.277 46.7307 247.73 47.2587 248.061 47.952C248.402 48.6453 248.573 49.472 248.573 50.432H242.285L242.525 50.208C242.525 50.6987 242.631 51.1253 242.845 51.488C243.058 51.84 243.341 52.112 243.693 52.304C244.045 52.496 244.434 52.592 244.861 52.592C245.351 52.592 245.757 52.4853 246.077 52.272C246.397 52.048 246.647 51.76 246.829 51.408L248.413 52.08C248.189 52.5067 247.901 52.88 247.549 53.2C247.207 53.52 246.797 53.7653 246.317 53.936C245.847 54.1067 245.309 54.192 244.701 54.192ZM242.637 49.28L242.381 49.056H246.893L246.653 49.28C246.653 48.8427 246.557 48.4853 246.365 48.208C246.173 47.92 245.927 47.7067 245.629 47.568C245.341 47.4187 245.037 47.344 244.717 47.344C244.397 47.344 244.077 47.4187 243.757 47.568C243.437 47.7067 243.17 47.92 242.957 48.208C242.743 48.4853 242.637 48.8427 242.637 49.28ZM255.721 54L255.641 52.512V42.8H257.417V54H255.721ZM253.113 54.192C252.388 54.192 251.753 54.0213 251.209 53.68C250.676 53.328 250.254 52.8373 249.945 52.208C249.646 51.5787 249.497 50.8427 249.497 50C249.497 49.1467 249.646 48.4107 249.945 47.792C250.254 47.1627 250.676 46.6773 251.209 46.336C251.753 45.984 252.388 45.808 253.113 45.808C253.785 45.808 254.361 45.984 254.841 46.336C255.332 46.6773 255.705 47.1627 255.961 47.792C256.217 48.4107 256.345 49.1467 256.345 50C256.345 50.8427 256.217 51.5787 255.961 52.208C255.705 52.8373 255.332 53.328 254.841 53.68C254.361 54.0213 253.785 54.192 253.113 54.192ZM253.561 52.56C253.966 52.56 254.324 52.4533 254.633 52.24C254.953 52.016 255.198 51.712 255.369 51.328C255.55 50.944 255.641 50.5013 255.641 50C255.641 49.4987 255.55 49.056 255.369 48.672C255.198 48.288 254.953 47.9893 254.633 47.776C254.324 47.5627 253.961 47.456 253.545 47.456C253.118 47.456 252.74 47.5627 252.409 47.776C252.078 47.9893 251.817 48.288 251.625 48.672C251.444 49.056 251.348 49.4987 251.337 50C251.348 50.5013 251.444 50.944 251.625 51.328C251.817 51.712 252.078 52.016 252.409 52.24C252.75 52.4533 253.134 52.56 253.561 52.56Z" fill="#1F1F1F"/>
<path d="M80.802 74.926L79.78 74.436L82.972 69.2H84.33L80.802 74.926ZM79.64 79V74.296H80.816V79H79.64ZM79.654 74.926L76.126 69.2H77.498L80.676 74.436L79.654 74.926ZM87.6892 79.168C87.0079 79.168 86.4012 79.014 85.8692 78.706C85.3466 78.3887 84.9359 77.9547 84.6372 77.404C84.3386 76.8533 84.1892 76.2187 84.1892 75.5C84.1892 74.7813 84.3339 74.1467 84.6232 73.596C84.9219 73.0453 85.3326 72.616 85.8552 72.308C86.3872 71.9907 86.9892 71.832 87.6612 71.832C88.3519 71.832 88.9586 71.9907 89.4812 72.308C90.0132 72.616 90.4239 73.0453 90.7132 73.596C91.0119 74.1467 91.1612 74.7813 91.1612 75.5C91.1612 76.2187 91.0119 76.8533 90.7132 77.404C90.4239 77.9547 90.0179 78.3887 89.4952 78.706C88.9726 79.014 88.3706 79.168 87.6892 79.168ZM87.6892 78.132C88.1559 78.132 88.5619 78.02 88.9072 77.796C89.2526 77.572 89.5232 77.264 89.7192 76.872C89.9246 76.48 90.0272 76.0227 90.0272 75.5C90.0272 74.9773 89.9246 74.52 89.7192 74.128C89.5232 73.736 89.2479 73.428 88.8932 73.204C88.5386 72.98 88.1279 72.868 87.6612 72.868C87.2039 72.868 86.7979 72.98 86.4432 73.204C86.0979 73.428 85.8226 73.736 85.6172 74.128C85.4212 74.52 85.3232 74.9773 85.3232 75.5C85.3232 76.0133 85.4212 76.4707 85.6172 76.872C85.8226 77.264 86.1026 77.572 86.4572 77.796C86.8212 78.02 87.2319 78.132 87.6892 78.132ZM97.5183 79L97.4483 77.712V72H98.5683V79H97.5183ZM92.5343 75.584V72H93.6543V75.584H92.5343ZM93.6543 75.584C93.6543 76.2747 93.7337 76.802 93.8923 77.166C94.051 77.53 94.2703 77.782 94.5503 77.922C94.8397 78.0527 95.1617 78.118 95.5163 78.118C96.123 78.118 96.5943 77.8987 96.9303 77.46C97.2757 77.0213 97.4483 76.41 97.4483 75.626H97.9943C97.9943 76.3633 97.887 76.998 97.6723 77.53C97.4577 78.062 97.145 78.468 96.7343 78.748C96.333 79.028 95.8383 79.168 95.2503 79.168C94.709 79.168 94.233 79.0607 93.8223 78.846C93.4117 78.622 93.0943 78.272 92.8703 77.796C92.6463 77.3107 92.5343 76.6853 92.5343 75.92V75.584H93.6543ZM101.139 75.206C101.139 74.45 101.284 73.8387 101.573 73.372C101.862 72.896 102.231 72.546 102.679 72.322C103.136 72.0887 103.617 71.972 104.121 71.972V73.022C103.71 73.022 103.314 73.092 102.931 73.232C102.558 73.3627 102.25 73.582 102.007 73.89C101.764 74.198 101.643 74.618 101.643 75.15L101.139 75.206ZM100.523 79V72H101.643V79H100.523ZM108.782 79V72H109.902V79H108.782ZM109.356 70.376C109.17 70.376 109.006 70.306 108.866 70.166C108.726 70.026 108.656 69.8627 108.656 69.676C108.656 69.48 108.726 69.3167 108.866 69.186C109.006 69.046 109.17 68.976 109.356 68.976C109.552 68.976 109.716 69.046 109.846 69.186C109.986 69.3167 110.056 69.48 110.056 69.676C110.056 69.8627 109.986 70.026 109.846 70.166C109.716 70.306 109.552 70.376 109.356 70.376ZM114.598 79.168C113.917 79.168 113.39 78.9907 113.016 78.636C112.643 78.2813 112.456 77.782 112.456 77.138V69.816H113.576V77.026C113.576 77.3807 113.67 77.656 113.856 77.852C114.052 78.0387 114.323 78.132 114.668 78.132C114.78 78.132 114.888 78.118 114.99 78.09C115.102 78.0527 115.247 77.9687 115.424 77.838L115.858 78.748C115.616 78.9067 115.396 79.014 115.2 79.07C115.004 79.1353 114.804 79.168 114.598 79.168ZM111.238 72.994V72H115.676V72.994H111.238ZM120.282 79.168C119.601 79.168 118.999 79.014 118.476 78.706C117.954 78.3887 117.543 77.9547 117.244 77.404C116.955 76.8533 116.81 76.2187 116.81 75.5C116.81 74.7813 116.955 74.1467 117.244 73.596C117.543 73.0453 117.949 72.616 118.462 72.308C118.985 71.9907 119.582 71.832 120.254 71.832C120.908 71.832 121.472 71.9953 121.948 72.322C122.424 72.6393 122.793 73.0873 123.054 73.666C123.316 74.2447 123.446 74.926 123.446 75.71H117.664L117.944 75.472C117.944 76.032 118.042 76.5127 118.238 76.914C118.444 77.3153 118.728 77.6233 119.092 77.838C119.456 78.0433 119.872 78.146 120.338 78.146C120.833 78.146 121.248 78.0293 121.584 77.796C121.93 77.5627 122.196 77.2547 122.382 76.872L123.348 77.362C123.171 77.726 122.933 78.0433 122.634 78.314C122.345 78.5847 122 78.7947 121.598 78.944C121.206 79.0933 120.768 79.168 120.282 79.168ZM118.014 74.996L117.72 74.772H122.55L122.256 75.01C122.256 74.562 122.168 74.1747 121.99 73.848C121.813 73.5213 121.575 73.2693 121.276 73.092C120.978 72.9147 120.632 72.826 120.24 72.826C119.858 72.826 119.494 72.9147 119.148 73.092C118.812 73.2693 118.537 73.5213 118.322 73.848C118.117 74.1653 118.014 74.548 118.014 74.996ZM124.859 79V72H125.909L125.965 72.98C126.18 72.6067 126.455 72.322 126.791 72.126C127.127 71.93 127.519 71.832 127.967 71.832C128.527 71.832 129.003 71.9627 129.395 72.224C129.796 72.4853 130.086 72.882 130.263 73.414C130.459 72.9007 130.744 72.5087 131.117 72.238C131.5 71.9673 131.952 71.832 132.475 71.832C133.259 71.832 133.875 72.0933 134.323 72.616C134.78 73.1387 135.004 73.932 134.995 74.996V79H133.875V75.416C133.875 74.7253 133.8 74.198 133.651 73.834C133.511 73.47 133.32 73.2227 133.077 73.092C132.834 72.952 132.554 72.882 132.237 72.882C131.686 72.882 131.257 73.1013 130.949 73.54C130.641 73.9693 130.487 74.5807 130.487 75.374V79H129.367V75.416C129.367 74.7253 129.292 74.198 129.143 73.834C129.003 73.47 128.807 73.2227 128.555 73.092C128.312 72.952 128.032 72.882 127.715 72.882C127.174 72.882 126.749 73.1013 126.441 73.54C126.133 73.9693 125.979 74.5807 125.979 75.374V79H124.859ZM140.226 79V69.2H141.346V79H140.226ZM145.154 79V75.416H146.274V79H145.154ZM145.154 75.416C145.154 74.7253 145.07 74.198 144.902 73.834C144.743 73.47 144.524 73.2227 144.244 73.092C143.964 72.952 143.647 72.882 143.292 72.882C142.676 72.882 142.195 73.1013 141.85 73.54C141.514 73.9693 141.346 74.5807 141.346 75.374H140.8C140.8 74.6367 140.907 74.002 141.122 73.47C141.346 72.938 141.663 72.532 142.074 72.252C142.485 71.972 142.979 71.832 143.558 71.832C144.099 71.832 144.575 71.944 144.986 72.168C145.397 72.3827 145.714 72.728 145.938 73.204C146.171 73.68 146.283 74.3053 146.274 75.08V75.416H145.154ZM152.345 79L152.289 77.852V75.304C152.289 74.7533 152.228 74.3007 152.107 73.946C151.985 73.582 151.794 73.3067 151.533 73.12C151.271 72.9333 150.931 72.84 150.511 72.84C150.128 72.84 149.797 72.9193 149.517 73.078C149.246 73.2273 149.022 73.47 148.845 73.806L147.837 73.414C148.014 73.0873 148.229 72.8073 148.481 72.574C148.733 72.3313 149.027 72.1493 149.363 72.028C149.699 71.8973 150.081 71.832 150.511 71.832C151.164 71.832 151.701 71.9627 152.121 72.224C152.55 72.476 152.872 72.854 153.087 73.358C153.301 73.8527 153.404 74.4687 153.395 75.206L153.381 79H152.345ZM150.245 79.168C149.423 79.168 148.779 78.9813 148.313 78.608C147.855 78.2253 147.627 77.698 147.627 77.026C147.627 76.3167 147.86 75.7753 148.327 75.402C148.803 75.0193 149.465 74.828 150.315 74.828H152.317V75.766H150.567C149.913 75.766 149.447 75.8733 149.167 76.088C148.896 76.3027 148.761 76.6107 148.761 77.012C148.761 77.376 148.896 77.6653 149.167 77.88C149.437 78.0853 149.815 78.188 150.301 78.188C150.702 78.188 151.052 78.104 151.351 77.936C151.649 77.7587 151.878 77.5113 152.037 77.194C152.205 76.8673 152.289 76.4847 152.289 76.046H152.765C152.765 76.998 152.55 77.7587 152.121 78.328C151.691 78.888 151.066 79.168 150.245 79.168ZM157.619 79.168C157.106 79.168 156.658 79.0933 156.275 78.944C155.893 78.7853 155.571 78.58 155.309 78.328C155.057 78.076 154.875 77.8007 154.763 77.502L155.743 77.096C155.902 77.4133 156.14 77.67 156.457 77.866C156.775 78.062 157.125 78.16 157.507 78.16C157.946 78.16 158.315 78.076 158.613 77.908C158.912 77.7307 159.061 77.4833 159.061 77.166C159.061 76.8767 158.949 76.6433 158.725 76.466C158.511 76.2887 158.189 76.144 157.759 76.032L157.087 75.85C156.453 75.682 155.958 75.43 155.603 75.094C155.249 74.7487 155.071 74.3613 155.071 73.932C155.071 73.2693 155.286 72.756 155.715 72.392C156.154 72.0187 156.803 71.832 157.661 71.832C158.072 71.832 158.445 71.8927 158.781 72.014C159.117 72.1353 159.407 72.308 159.649 72.532C159.892 72.7467 160.069 73.0033 160.181 73.302L159.201 73.736C159.08 73.4187 158.879 73.19 158.599 73.05C158.319 72.91 157.979 72.84 157.577 72.84C157.148 72.84 156.812 72.9333 156.569 73.12C156.327 73.2973 156.205 73.5493 156.205 73.876C156.205 74.0627 156.303 74.24 156.499 74.408C156.705 74.5667 157.003 74.6973 157.395 74.8L158.095 74.982C158.553 75.094 158.935 75.262 159.243 75.486C159.551 75.7007 159.785 75.948 159.943 76.228C160.102 76.508 160.181 76.8067 160.181 77.124C160.181 77.544 160.069 77.908 159.845 78.216C159.621 78.524 159.318 78.762 158.935 78.93C158.553 79.0887 158.114 79.168 157.619 79.168ZM165.15 79V69.2H166.27V77.698L166.214 79H165.15ZM168.636 79.168C168.048 79.168 167.53 79.014 167.082 78.706C166.643 78.398 166.303 77.9687 166.06 77.418C165.817 76.858 165.696 76.2187 165.696 75.5C165.696 74.772 165.817 74.1327 166.06 73.582C166.303 73.0313 166.643 72.602 167.082 72.294C167.53 71.986 168.048 71.832 168.636 71.832C169.261 71.832 169.812 71.986 170.288 72.294C170.764 72.602 171.133 73.0313 171.394 73.582C171.665 74.1327 171.8 74.772 171.8 75.5C171.8 76.2187 171.665 76.858 171.394 77.418C171.133 77.9687 170.764 78.398 170.288 78.706C169.812 79.014 169.261 79.168 168.636 79.168ZM168.384 78.146C168.823 78.146 169.21 78.034 169.546 77.81C169.891 77.586 170.162 77.2733 170.358 76.872C170.563 76.4707 170.666 76.0133 170.666 75.5C170.666 74.9867 170.568 74.5293 170.372 74.128C170.185 73.7267 169.919 73.414 169.574 73.19C169.229 72.966 168.837 72.854 168.398 72.854C167.987 72.854 167.619 72.966 167.292 73.19C166.975 73.414 166.723 73.7267 166.536 74.128C166.359 74.5293 166.27 74.9867 166.27 75.5C166.27 76.0133 166.359 76.4707 166.536 76.872C166.723 77.2733 166.975 77.586 167.292 77.81C167.609 78.034 167.973 78.146 168.384 78.146ZM176.419 79.168C175.738 79.168 175.136 79.014 174.613 78.706C174.09 78.3887 173.68 77.9547 173.381 77.404C173.092 76.8533 172.947 76.2187 172.947 75.5C172.947 74.7813 173.092 74.1467 173.381 73.596C173.68 73.0453 174.086 72.616 174.599 72.308C175.122 71.9907 175.719 71.832 176.391 71.832C177.044 71.832 177.609 71.9953 178.085 72.322C178.561 72.6393 178.93 73.0873 179.191 73.666C179.452 74.2447 179.583 74.926 179.583 75.71H173.801L174.081 75.472C174.081 76.032 174.179 76.5127 174.375 76.914C174.58 77.3153 174.865 77.6233 175.229 77.838C175.593 78.0433 176.008 78.146 176.475 78.146C176.97 78.146 177.385 78.0293 177.721 77.796C178.066 77.5627 178.332 77.2547 178.519 76.872L179.485 77.362C179.308 77.726 179.07 78.0433 178.771 78.314C178.482 78.5847 178.136 78.7947 177.735 78.944C177.343 79.0933 176.904 79.168 176.419 79.168ZM174.151 74.996L173.857 74.772H178.687L178.393 75.01C178.393 74.562 178.304 74.1747 178.127 73.848C177.95 73.5213 177.712 73.2693 177.413 73.092C177.114 72.9147 176.769 72.826 176.377 72.826C175.994 72.826 175.63 72.9147 175.285 73.092C174.949 73.2693 174.674 73.5213 174.459 73.848C174.254 74.1653 174.151 74.548 174.151 74.996ZM184.062 79.168C183.38 79.168 182.778 79.014 182.256 78.706C181.733 78.3887 181.322 77.9547 181.024 77.404C180.734 76.8533 180.59 76.2187 180.59 75.5C180.59 74.7813 180.734 74.1467 181.024 73.596C181.322 73.0453 181.728 72.616 182.242 72.308C182.764 71.9907 183.362 71.832 184.034 71.832C184.687 71.832 185.252 71.9953 185.728 72.322C186.204 72.6393 186.572 73.0873 186.834 73.666C187.095 74.2447 187.226 74.926 187.226 75.71H181.444L181.724 75.472C181.724 76.032 181.822 76.5127 182.018 76.914C182.223 77.3153 182.508 77.6233 182.872 77.838C183.236 78.0433 183.651 78.146 184.118 78.146C184.612 78.146 185.028 78.0293 185.364 77.796C185.709 77.5627 185.975 77.2547 186.162 76.872L187.128 77.362C186.95 77.726 186.712 78.0433 186.414 78.314C186.124 78.5847 185.779 78.7947 185.378 78.944C184.986 79.0933 184.547 79.168 184.062 79.168ZM181.794 74.996L181.5 74.772H186.33L186.036 75.01C186.036 74.562 185.947 74.1747 185.77 73.848C185.592 73.5213 185.354 73.2693 185.056 73.092C184.757 72.9147 184.412 72.826 184.02 72.826C183.637 72.826 183.273 72.9147 182.928 73.092C182.592 73.2693 182.316 73.5213 182.102 73.848C181.896 74.1653 181.794 74.548 181.794 74.996ZM188.638 79V72H189.688L189.758 73.288V79H188.638ZM193.552 79V75.416H194.672V79H193.552ZM193.552 75.416C193.552 74.7253 193.473 74.198 193.314 73.834C193.156 73.47 192.936 73.2227 192.656 73.092C192.376 72.952 192.059 72.882 191.704 72.882C191.088 72.882 190.608 73.1013 190.262 73.54C189.926 73.9693 189.758 74.5807 189.758 75.374H189.212C189.212 74.6367 189.32 74.002 189.534 73.47C189.749 72.938 190.062 72.532 190.472 72.252C190.883 71.972 191.378 71.832 191.956 71.832C192.507 71.832 192.983 71.944 193.384 72.168C193.795 72.3827 194.112 72.728 194.336 73.204C194.57 73.68 194.682 74.3053 194.672 75.08V75.416H193.552ZM205.084 79L205.028 77.698V69.2H206.148V79H205.084ZM202.662 79.168C202.036 79.168 201.486 79.014 201.01 78.706C200.534 78.398 200.16 77.9687 199.89 77.418C199.628 76.858 199.498 76.2187 199.498 75.5C199.498 74.772 199.628 74.1327 199.89 73.582C200.16 73.0313 200.534 72.602 201.01 72.294C201.486 71.986 202.036 71.832 202.662 71.832C203.25 71.832 203.763 71.986 204.202 72.294C204.65 72.602 204.995 73.0313 205.238 73.582C205.48 74.1327 205.602 74.772 205.602 75.5C205.602 76.2187 205.48 76.858 205.238 77.418C204.995 77.9687 204.65 78.398 204.202 78.706C203.763 79.014 203.25 79.168 202.662 79.168ZM202.914 78.146C203.324 78.146 203.688 78.034 204.006 77.81C204.323 77.586 204.57 77.2733 204.748 76.872C204.934 76.4707 205.028 76.0133 205.028 75.5C205.028 74.9867 204.934 74.5293 204.748 74.128C204.57 73.7267 204.323 73.414 204.006 73.19C203.688 72.966 203.32 72.854 202.9 72.854C202.461 72.854 202.069 72.966 201.724 73.19C201.388 73.414 201.122 73.7267 200.926 74.128C200.73 74.5293 200.632 74.9867 200.632 75.5C200.632 76.0133 200.73 76.4707 200.926 76.872C201.122 77.2733 201.392 77.586 201.738 77.81C202.083 78.034 202.475 78.146 202.914 78.146ZM211.173 79.168C210.492 79.168 209.89 79.014 209.367 78.706C208.844 78.3887 208.434 77.9547 208.135 77.404C207.846 76.8533 207.701 76.2187 207.701 75.5C207.701 74.7813 207.846 74.1467 208.135 73.596C208.434 73.0453 208.84 72.616 209.353 72.308C209.876 71.9907 210.473 71.832 211.145 71.832C211.798 71.832 212.363 71.9953 212.839 72.322C213.315 72.6393 213.684 73.0873 213.945 73.666C214.206 74.2447 214.337 74.926 214.337 75.71H208.555L208.835 75.472C208.835 76.032 208.933 76.5127 209.129 76.914C209.334 77.3153 209.619 77.6233 209.983 77.838C210.347 78.0433 210.762 78.146 211.229 78.146C211.724 78.146 212.139 78.0293 212.475 77.796C212.82 77.5627 213.086 77.2547 213.273 76.872L214.239 77.362C214.062 77.726 213.824 78.0433 213.525 78.314C213.236 78.5847 212.89 78.7947 212.489 78.944C212.097 79.0933 211.658 79.168 211.173 79.168ZM208.905 74.996L208.611 74.772H213.441L213.147 75.01C213.147 74.562 213.058 74.1747 212.881 73.848C212.704 73.5213 212.466 73.2693 212.167 73.092C211.868 72.9147 211.523 72.826 211.131 72.826C210.748 72.826 210.384 72.9147 210.039 73.092C209.703 73.2693 209.428 73.5213 209.213 73.848C209.008 74.1653 208.905 74.548 208.905 74.996ZM215.75 79V69.2H216.87V79H215.75ZM218.896 79V72H220.016V79H218.896ZM219.47 70.376C219.283 70.376 219.12 70.306 218.98 70.166C218.84 70.026 218.77 69.8627 218.77 69.676C218.77 69.48 218.84 69.3167 218.98 69.186C219.12 69.046 219.283 68.976 219.47 68.976C219.666 68.976 219.829 69.046 219.96 69.186C220.1 69.3167 220.17 69.48 220.17 69.676C220.17 69.8627 220.1 70.026 219.96 70.166C219.829 70.306 219.666 70.376 219.47 70.376ZM224.222 79L227.078 72H228.254L225.328 79H224.222ZM224.152 79L221.226 72H222.388L225.244 79H224.152ZM232.255 79.168C231.574 79.168 230.972 79.014 230.449 78.706C229.926 78.3887 229.516 77.9547 229.217 77.404C228.928 76.8533 228.783 76.2187 228.783 75.5C228.783 74.7813 228.928 74.1467 229.217 73.596C229.516 73.0453 229.922 72.616 230.435 72.308C230.958 71.9907 231.555 71.832 232.227 71.832C232.88 71.832 233.445 71.9953 233.921 72.322C234.397 72.6393 234.766 73.0873 235.027 73.666C235.288 74.2447 235.419 74.926 235.419 75.71H229.637L229.917 75.472C229.917 76.032 230.015 76.5127 230.211 76.914C230.416 77.3153 230.701 77.6233 231.065 77.838C231.429 78.0433 231.844 78.146 232.311 78.146C232.806 78.146 233.221 78.0293 233.557 77.796C233.902 77.5627 234.168 77.2547 234.355 76.872L235.321 77.362C235.144 77.726 234.906 78.0433 234.607 78.314C234.318 78.5847 233.972 78.7947 233.571 78.944C233.179 79.0933 232.74 79.168 232.255 79.168ZM229.987 74.996L229.693 74.772H234.523L234.229 75.01C234.229 74.562 234.14 74.1747 233.963 73.848C233.786 73.5213 233.548 73.2693 233.249 73.092C232.95 72.9147 232.605 72.826 232.213 72.826C231.83 72.826 231.466 72.9147 231.121 73.092C230.785 73.2693 230.51 73.5213 230.295 73.848C230.09 74.1653 229.987 74.548 229.987 74.996ZM237.448 75.206C237.448 74.45 237.592 73.8387 237.882 73.372C238.171 72.896 238.54 72.546 238.988 72.322C239.445 72.0887 239.926 71.972 240.43 71.972V73.022C240.019 73.022 239.622 73.092 239.24 73.232C238.866 73.3627 238.558 73.582 238.316 73.89C238.073 74.198 237.952 74.618 237.952 75.15L237.448 75.206ZM236.832 79V72H237.952V79H236.832ZM244.628 79.168C243.947 79.168 243.345 79.014 242.822 78.706C242.299 78.3887 241.889 77.9547 241.59 77.404C241.301 76.8533 241.156 76.2187 241.156 75.5C241.156 74.7813 241.301 74.1467 241.59 73.596C241.889 73.0453 242.295 72.616 242.808 72.308C243.331 71.9907 243.928 71.832 244.6 71.832C245.253 71.832 245.818 71.9953 246.294 72.322C246.77 72.6393 247.139 73.0873 247.4 73.666C247.661 74.2447 247.792 74.926 247.792 75.71H242.01L242.29 75.472C242.29 76.032 242.388 76.5127 242.584 76.914C242.789 77.3153 243.074 77.6233 243.438 77.838C243.802 78.0433 244.217 78.146 244.684 78.146C245.179 78.146 245.594 78.0293 245.93 77.796C246.275 77.5627 246.541 77.2547 246.728 76.872L247.694 77.362C247.517 77.726 247.279 78.0433 246.98 78.314C246.691 78.5847 246.345 78.7947 245.944 78.944C245.552 79.0933 245.113 79.168 244.628 79.168ZM242.36 74.996L242.066 74.772H246.896L246.602 75.01C246.602 74.562 246.513 74.1747 246.336 73.848C246.159 73.5213 245.921 73.2693 245.622 73.092C245.323 72.9147 244.978 72.826 244.586 72.826C244.203 72.826 243.839 72.9147 243.494 73.092C243.158 73.2693 242.883 73.5213 242.668 73.848C242.463 74.1653 242.36 74.548 242.36 74.996ZM254.385 79L254.329 77.698V69.2H255.449V79H254.385ZM251.963 79.168C251.337 79.168 250.787 79.014 250.311 78.706C249.835 78.398 249.461 77.9687 249.191 77.418C248.929 76.858 248.799 76.2187 248.799 75.5C248.799 74.772 248.929 74.1327 249.191 73.582C249.461 73.0313 249.835 72.602 250.311 72.294C250.787 71.986 251.337 71.832 251.963 71.832C252.551 71.832 253.064 71.986 253.503 72.294C253.951 72.602 254.296 73.0313 254.539 73.582C254.781 74.1327 254.903 74.772 254.903 75.5C254.903 76.2187 254.781 76.858 254.539 77.418C254.296 77.9687 253.951 78.398 253.503 78.706C253.064 79.014 252.551 79.168 251.963 79.168ZM252.215 78.146C252.625 78.146 252.989 78.034 253.307 77.81C253.624 77.586 253.871 77.2733 254.049 76.872C254.235 76.4707 254.329 76.0133 254.329 75.5C254.329 74.9867 254.235 74.5293 254.049 74.128C253.871 73.7267 253.624 73.414 253.307 73.19C252.989 72.966 252.621 72.854 252.201 72.854C251.762 72.854 251.37 72.966 251.025 73.19C250.689 73.414 250.423 73.7267 250.227 74.128C250.031 74.5293 249.933 74.9867 249.933 75.5C249.933 76.0133 250.031 76.4707 250.227 76.872C250.423 77.2733 250.693 77.586 251.039 77.81C251.384 78.034 251.776 78.146 252.215 78.146ZM257.884 79.196C257.669 79.196 257.482 79.1213 257.324 78.972C257.174 78.8133 257.1 78.6313 257.1 78.426C257.1 78.2113 257.174 78.0293 257.324 77.88C257.482 77.7213 257.669 77.642 257.884 77.642C258.098 77.642 258.28 77.7213 258.43 77.88C258.579 78.0293 258.654 78.2113 258.654 78.426C258.654 78.6313 258.579 78.8133 258.43 78.972C258.28 79.1213 258.098 79.196 257.884 79.196ZM267.601 74.926L266.579 74.436L269.771 69.2H271.129L267.601 74.926ZM266.439 79V74.296H267.615V79H266.439ZM266.453 74.926L262.925 69.2H264.297L267.475 74.436L266.453 74.926ZM274.488 79.168C273.807 79.168 273.2 79.014 272.668 78.706C272.145 78.3887 271.735 77.9547 271.436 77.404C271.137 76.8533 270.988 76.2187 270.988 75.5C270.988 74.7813 271.133 74.1467 271.422 73.596C271.721 73.0453 272.131 72.616 272.654 72.308C273.186 71.9907 273.788 71.832 274.46 71.832C275.151 71.832 275.757 71.9907 276.28 72.308C276.812 72.616 277.223 73.0453 277.512 73.596C277.811 74.1467 277.96 74.7813 277.96 75.5C277.96 76.2187 277.811 76.8533 277.512 77.404C277.223 77.9547 276.817 78.3887 276.294 78.706C275.771 79.014 275.169 79.168 274.488 79.168ZM274.488 78.132C274.955 78.132 275.361 78.02 275.706 77.796C276.051 77.572 276.322 77.264 276.518 76.872C276.723 76.48 276.826 76.0227 276.826 75.5C276.826 74.9773 276.723 74.52 276.518 74.128C276.322 73.736 276.047 73.428 275.692 73.204C275.337 72.98 274.927 72.868 274.46 72.868C274.003 72.868 273.597 72.98 273.242 73.204C272.897 73.428 272.621 73.736 272.416 74.128C272.22 74.52 272.122 74.9773 272.122 75.5C272.122 76.0133 272.22 76.4707 272.416 76.872C272.621 77.264 272.901 77.572 273.256 77.796C273.62 78.02 274.031 78.132 274.488 78.132ZM284.317 79L284.247 77.712V72H285.367V79H284.317ZM279.333 75.584V72H280.453V75.584H279.333ZM280.453 75.584C280.453 76.2747 280.532 76.802 280.691 77.166C280.85 77.53 281.069 77.782 281.349 77.922C281.638 78.0527 281.96 78.118 282.315 78.118C282.922 78.118 283.393 77.8987 283.729 77.46C284.074 77.0213 284.247 76.41 284.247 75.626H284.793C284.793 76.3633 284.686 76.998 284.471 77.53C284.256 78.062 283.944 78.468 283.533 78.748C283.132 79.028 282.637 79.168 282.049 79.168C281.508 79.168 281.032 79.0607 280.621 78.846C280.21 78.622 279.893 78.272 279.669 77.796C279.445 77.3107 279.333 76.6853 279.333 75.92V75.584H280.453ZM293.903 79.168C293.212 79.168 292.601 79.014 292.069 78.706C291.537 78.3887 291.121 77.9547 290.823 77.404C290.524 76.8533 290.375 76.2187 290.375 75.5C290.375 74.7813 290.519 74.1467 290.809 73.596C291.107 73.0453 291.523 72.616 292.055 72.308C292.587 71.9907 293.193 71.832 293.875 71.832C294.547 71.832 295.149 71.986 295.681 72.294C296.213 72.602 296.619 73.036 296.899 73.596L295.877 74.058C295.69 73.6847 295.419 73.3953 295.065 73.19C294.71 72.9753 294.304 72.868 293.847 72.868C293.389 72.868 292.983 72.98 292.629 73.204C292.283 73.428 292.008 73.7407 291.803 74.142C291.607 74.534 291.509 74.9867 291.509 75.5C291.509 76.0133 291.607 76.4707 291.803 76.872C292.008 77.264 292.288 77.572 292.643 77.796C293.007 78.02 293.417 78.132 293.875 78.132C294.332 78.132 294.738 78.0153 295.093 77.782C295.457 77.5487 295.732 77.222 295.919 76.802L296.941 77.264C296.661 77.8613 296.255 78.328 295.723 78.664C295.191 79 294.584 79.168 293.903 79.168ZM302.667 79L302.611 77.852V75.304C302.611 74.7533 302.55 74.3007 302.429 73.946C302.308 73.582 302.116 73.3067 301.855 73.12C301.594 72.9333 301.253 72.84 300.833 72.84C300.45 72.84 300.119 72.9193 299.839 73.078C299.568 73.2273 299.344 73.47 299.167 73.806L298.159 73.414C298.336 73.0873 298.551 72.8073 298.803 72.574C299.055 72.3313 299.349 72.1493 299.685 72.028C300.021 71.8973 300.404 71.832 300.833 71.832C301.486 71.832 302.023 71.9627 302.443 72.224C302.872 72.476 303.194 72.854 303.409 73.358C303.624 73.8527 303.726 74.4687 303.717 75.206L303.703 79H302.667ZM300.567 79.168C299.746 79.168 299.102 78.9813 298.635 78.608C298.178 78.2253 297.949 77.698 297.949 77.026C297.949 76.3167 298.182 75.7753 298.649 75.402C299.125 75.0193 299.788 74.828 300.637 74.828H302.639V75.766H300.889C300.236 75.766 299.769 75.8733 299.489 76.088C299.218 76.3027 299.083 76.6107 299.083 77.012C299.083 77.376 299.218 77.6653 299.489 77.88C299.76 78.0853 300.138 78.188 300.623 78.188C301.024 78.188 301.374 78.104 301.673 77.936C301.972 77.7587 302.2 77.5113 302.359 77.194C302.527 76.8673 302.611 76.4847 302.611 76.046H303.087C303.087 76.998 302.872 77.7587 302.443 78.328C302.014 78.888 301.388 79.168 300.567 79.168ZM305.492 79V72H306.542L306.612 73.288V79H305.492ZM310.406 79V75.416H311.526V79H310.406ZM310.406 75.416C310.406 74.7253 310.326 74.198 310.168 73.834C310.009 73.47 309.79 73.2227 309.51 73.092C309.23 72.952 308.912 72.882 308.558 72.882C307.942 72.882 307.461 73.1013 307.116 73.54C306.78 73.9693 306.612 74.5807 306.612 75.374H306.066C306.066 74.6367 306.173 74.002 306.388 73.47C306.602 72.938 306.915 72.532 307.326 72.252C307.736 71.972 308.231 71.832 308.81 71.832C309.36 71.832 309.836 71.944 310.238 72.168C310.648 72.3827 310.966 72.728 311.19 73.204C311.423 73.68 311.535 74.3053 311.526 75.08V75.416H310.406ZM76.98 99V92H78.03L78.1 93.288V99H76.98ZM81.894 99V95.416H83.014V99H81.894ZM81.894 95.416C81.894 94.7253 81.8147 94.198 81.656 93.834C81.4973 93.47 81.278 93.2227 80.998 93.092C80.718 92.952 80.4007 92.882 80.046 92.882C79.43 92.882 78.9493 93.1013 78.604 93.54C78.268 93.9693 78.1 94.5807 78.1 95.374H77.554C77.554 94.6367 77.6613 94.002 77.876 93.47C78.0907 92.938 78.4033 92.532 78.814 92.252C79.2247 91.972 79.7193 91.832 80.298 91.832C80.8487 91.832 81.3247 91.944 81.726 92.168C82.1367 92.3827 82.454 92.728 82.678 93.204C82.9113 93.68 83.0233 94.3053 83.014 95.08V95.416H81.894ZM87.8806 99.168C87.1993 99.168 86.5926 99.014 86.0606 98.706C85.538 98.3887 85.1273 97.9547 84.8286 97.404C84.53 96.8533 84.3806 96.2187 84.3806 95.5C84.3806 94.7813 84.5253 94.1467 84.8146 93.596C85.1133 93.0453 85.524 92.616 86.0466 92.308C86.5786 91.9907 87.1806 91.832 87.8526 91.832C88.5433 91.832 89.15 91.9907 89.6726 92.308C90.2046 92.616 90.6153 93.0453 90.9046 93.596C91.2033 94.1467 91.3526 94.7813 91.3526 95.5C91.3526 96.2187 91.2033 96.8533 90.9046 97.404C90.6153 97.9547 90.2093 98.3887 89.6866 98.706C89.164 99.014 88.562 99.168 87.8806 99.168ZM87.8806 98.132C88.3473 98.132 88.7533 98.02 89.0986 97.796C89.444 97.572 89.7146 97.264 89.9106 96.872C90.116 96.48 90.2186 96.0227 90.2186 95.5C90.2186 94.9773 90.116 94.52 89.9106 94.128C89.7146 93.736 89.4393 93.428 89.0846 93.204C88.73 92.98 88.3193 92.868 87.8526 92.868C87.3953 92.868 86.9893 92.98 86.6346 93.204C86.2893 93.428 86.014 93.736 85.8086 94.128C85.6126 94.52 85.5146 94.9773 85.5146 95.5C85.5146 96.0133 85.6126 96.4707 85.8086 96.872C86.014 97.264 86.294 97.572 86.6486 97.796C87.0126 98.02 87.4233 98.132 87.8806 98.132ZM99.086 99L101.452 92H102.586L100.206 99H99.086ZM94.326 99L96.692 92H97.742L95.404 99H94.326ZM94.27 99L91.89 92H93.024L95.362 99H94.27ZM99.086 99L96.748 92H97.812L100.15 99H99.086ZM110.29 99.168C109.599 99.168 108.988 99.014 108.456 98.706C107.924 98.3887 107.508 97.9547 107.21 97.404C106.911 96.8533 106.762 96.2187 106.762 95.5C106.762 94.7813 106.906 94.1467 107.196 93.596C107.494 93.0453 107.91 92.616 108.442 92.308C108.974 91.9907 109.58 91.832 110.262 91.832C110.934 91.832 111.536 91.986 112.068 92.294C112.6 92.602 113.006 93.036 113.286 93.596L112.264 94.058C112.077 93.6847 111.806 93.3953 111.452 93.19C111.097 92.9753 110.691 92.868 110.234 92.868C109.776 92.868 109.37 92.98 109.016 93.204C108.67 93.428 108.395 93.7407 108.19 94.142C107.994 94.534 107.896 94.9867 107.896 95.5C107.896 96.0133 107.994 96.4707 108.19 96.872C108.395 97.264 108.675 97.572 109.03 97.796C109.394 98.02 109.804 98.132 110.262 98.132C110.719 98.132 111.125 98.0153 111.48 97.782C111.844 97.5487 112.119 97.222 112.306 96.802L113.328 97.264C113.048 97.8613 112.642 98.328 112.11 98.664C111.578 99 110.971 99.168 110.29 99.168ZM117.836 99.168C117.154 99.168 116.548 99.014 116.016 98.706C115.493 98.3887 115.082 97.9547 114.784 97.404C114.485 96.8533 114.336 96.2187 114.336 95.5C114.336 94.7813 114.48 94.1467 114.77 93.596C115.068 93.0453 115.479 92.616 116.002 92.308C116.534 91.9907 117.136 91.832 117.808 91.832C118.498 91.832 119.105 91.9907 119.628 92.308C120.16 92.616 120.57 93.0453 120.86 93.596C121.158 94.1467 121.308 94.7813 121.308 95.5C121.308 96.2187 121.158 96.8533 120.86 97.404C120.57 97.9547 120.164 98.3887 119.642 98.706C119.119 99.014 118.517 99.168 117.836 99.168ZM117.836 98.132C118.302 98.132 118.708 98.02 119.054 97.796C119.399 97.572 119.67 97.264 119.866 96.872C120.071 96.48 120.174 96.0227 120.174 95.5C120.174 94.9773 120.071 94.52 119.866 94.128C119.67 93.736 119.394 93.428 119.04 93.204C118.685 92.98 118.274 92.868 117.808 92.868C117.35 92.868 116.944 92.98 116.59 93.204C116.244 93.428 115.969 93.736 115.764 94.128C115.568 94.52 115.47 94.9773 115.47 95.5C115.47 96.0133 115.568 96.4707 115.764 96.872C115.969 97.264 116.249 97.572 116.604 97.796C116.968 98.02 117.378 98.132 117.836 98.132ZM122.863 99V92H123.913L123.983 93.288V99H122.863ZM127.777 99V95.416H128.897V99H127.777ZM127.777 95.416C127.777 94.7253 127.697 94.198 127.539 93.834C127.38 93.47 127.161 93.2227 126.881 93.092C126.601 92.952 126.283 92.882 125.929 92.882C125.313 92.882 124.832 93.1013 124.487 93.54C124.151 93.9693 123.983 94.5807 123.983 95.374H123.437C123.437 94.6367 123.544 94.002 123.759 93.47C123.973 92.938 124.286 92.532 124.697 92.252C125.107 91.972 125.602 91.832 126.181 91.832C126.731 91.832 127.207 91.944 127.609 92.168C128.019 92.3827 128.337 92.728 128.561 93.204C128.794 93.68 128.906 94.3053 128.897 95.08V95.416H127.777ZM131.369 99V91.202C131.369 90.474 131.537 89.928 131.873 89.564C132.219 89.1907 132.741 89.004 133.441 89.004C133.628 89.004 133.838 89.0367 134.071 89.102C134.305 89.1673 134.552 89.2607 134.813 89.382L134.393 90.264C134.179 90.18 133.997 90.1147 133.847 90.068C133.698 90.0213 133.572 89.998 133.469 89.998C133.143 89.998 132.895 90.1053 132.727 90.32C132.569 90.5253 132.489 90.8473 132.489 91.286V99H131.369ZM130.081 92.966V92H134.519V92.966H130.081ZM135.907 99V92H137.027V99H135.907ZM136.481 90.376C136.295 90.376 136.131 90.306 135.991 90.166C135.851 90.026 135.781 89.8627 135.781 89.676C135.781 89.48 135.851 89.3167 135.991 89.186C136.131 89.046 136.295 88.976 136.481 88.976C136.677 88.976 136.841 89.046 136.971 89.186C137.111 89.3167 137.181 89.48 137.181 89.676C137.181 89.8627 137.111 90.026 136.971 90.166C136.841 90.306 136.677 90.376 136.481 90.376ZM139.707 95.206C139.707 94.45 139.852 93.8387 140.141 93.372C140.431 92.896 140.799 92.546 141.247 92.322C141.705 92.0887 142.185 91.972 142.689 91.972V93.022C142.279 93.022 141.882 93.092 141.499 93.232C141.126 93.3627 140.818 93.582 140.575 93.89C140.333 94.198 140.211 94.618 140.211 95.15L139.707 95.206ZM139.091 99V92H140.211V99H139.091ZM143.822 99V92H144.872L144.928 92.98C145.142 92.6067 145.418 92.322 145.754 92.126C146.09 91.93 146.482 91.832 146.93 91.832C147.49 91.832 147.966 91.9627 148.358 92.224C148.759 92.4853 149.048 92.882 149.226 93.414C149.422 92.9007 149.706 92.5087 150.08 92.238C150.462 91.9673 150.915 91.832 151.438 91.832C152.222 91.832 152.838 92.0933 153.286 92.616C153.743 93.1387 153.967 93.932 153.958 94.996V99H152.838V95.416C152.838 94.7253 152.763 94.198 152.614 93.834C152.474 93.47 152.282 93.2227 152.04 93.092C151.797 92.952 151.517 92.882 151.2 92.882C150.649 92.882 150.22 93.1013 149.912 93.54C149.604 93.9693 149.45 94.5807 149.45 95.374V99H148.33V95.416C148.33 94.7253 148.255 94.198 148.106 93.834C147.966 93.47 147.77 93.2227 147.518 93.092C147.275 92.952 146.995 92.882 146.678 92.882C146.136 92.882 145.712 93.1013 145.404 93.54C145.096 93.9693 144.942 94.5807 144.942 95.374V99H143.822ZM161.821 99.168C161.14 99.168 160.612 98.9907 160.239 98.636C159.866 98.2813 159.679 97.782 159.679 97.138V89.816H160.799V97.026C160.799 97.3807 160.892 97.656 161.079 97.852C161.275 98.0387 161.546 98.132 161.891 98.132C162.003 98.132 162.11 98.118 162.213 98.09C162.325 98.0527 162.47 97.9687 162.647 97.838L163.081 98.748C162.838 98.9067 162.619 99.014 162.423 99.07C162.227 99.1353 162.026 99.168 161.821 99.168ZM158.461 92.994V92H162.899V92.994H158.461ZM164.48 99V89.2H165.6V99H164.48ZM169.408 99V95.416H170.528V99H169.408ZM169.408 95.416C169.408 94.7253 169.324 94.198 169.156 93.834C168.997 93.47 168.778 93.2227 168.498 93.092C168.218 92.952 167.901 92.882 167.546 92.882C166.93 92.882 166.449 93.1013 166.104 93.54C165.768 93.9693 165.6 94.5807 165.6 95.374H165.054C165.054 94.6367 165.161 94.002 165.376 93.47C165.6 92.938 165.917 92.532 166.328 92.252C166.739 91.972 167.233 91.832 167.812 91.832C168.353 91.832 168.829 91.944 169.24 92.168C169.651 92.3827 169.968 92.728 170.192 93.204C170.425 93.68 170.537 94.3053 170.528 95.08V95.416H169.408ZM176.599 99L176.543 97.852V95.304C176.543 94.7533 176.482 94.3007 176.361 93.946C176.239 93.582 176.048 93.3067 175.787 93.12C175.525 92.9333 175.185 92.84 174.765 92.84C174.382 92.84 174.051 92.9193 173.771 93.078C173.5 93.2273 173.276 93.47 173.099 93.806L172.091 93.414C172.268 93.0873 172.483 92.8073 172.735 92.574C172.987 92.3313 173.281 92.1493 173.617 92.028C173.953 91.8973 174.335 91.832 174.765 91.832C175.418 91.832 175.955 91.9627 176.375 92.224C176.804 92.476 177.126 92.854 177.341 93.358C177.555 93.8527 177.658 94.4687 177.649 95.206L177.635 99H176.599ZM174.499 99.168C173.677 99.168 173.033 98.9813 172.567 98.608C172.109 98.2253 171.881 97.698 171.881 97.026C171.881 96.3167 172.114 95.7753 172.581 95.402C173.057 95.0193 173.719 94.828 174.569 94.828H176.571V95.766H174.821C174.167 95.766 173.701 95.8733 173.421 96.088C173.15 96.3027 173.015 96.6107 173.015 97.012C173.015 97.376 173.15 97.6653 173.421 97.88C173.691 98.0853 174.069 98.188 174.555 98.188C174.956 98.188 175.306 98.104 175.605 97.936C175.903 97.7587 176.132 97.5113 176.291 97.194C176.459 96.8673 176.543 96.4847 176.543 96.046H177.019C177.019 96.998 176.804 97.7587 176.375 98.328C175.945 98.888 175.32 99.168 174.499 99.168ZM182.055 99.168C181.374 99.168 180.847 98.9907 180.473 98.636C180.1 98.2813 179.913 97.782 179.913 97.138V89.816H181.033V97.026C181.033 97.3807 181.127 97.656 181.313 97.852C181.509 98.0387 181.78 98.132 182.125 98.132C182.237 98.132 182.345 98.118 182.447 98.09C182.559 98.0527 182.704 97.9687 182.881 97.838L183.315 98.748C183.073 98.9067 182.853 99.014 182.657 99.07C182.461 99.1353 182.261 99.168 182.055 99.168ZM178.695 92.994V92H183.133V92.994H178.695ZM188.803 101.968C188.626 101.968 188.421 101.931 188.187 101.856C187.954 101.791 187.707 101.702 187.445 101.59L187.865 100.652C188.08 100.745 188.267 100.815 188.425 100.862C188.593 100.909 188.724 100.932 188.817 100.932C189.069 100.932 189.275 100.862 189.433 100.722C189.601 100.591 189.741 100.4 189.853 100.148L190.651 98.244L193.241 92H194.445L191.085 99.98C190.908 100.391 190.721 100.745 190.525 101.044C190.339 101.343 190.11 101.571 189.839 101.73C189.569 101.889 189.223 101.968 188.803 101.968ZM190.343 99L187.319 92H188.509L191.113 98.23L191.449 99H190.343ZM198.472 99.168C197.791 99.168 197.184 99.014 196.652 98.706C196.13 98.3887 195.719 97.9547 195.42 97.404C195.122 96.8533 194.972 96.2187 194.972 95.5C194.972 94.7813 195.117 94.1467 195.406 93.596C195.705 93.0453 196.116 92.616 196.638 92.308C197.17 91.9907 197.772 91.832 198.444 91.832C199.135 91.832 199.742 91.9907 200.264 92.308C200.796 92.616 201.207 93.0453 201.496 93.596C201.795 94.1467 201.944 94.7813 201.944 95.5C201.944 96.2187 201.795 96.8533 201.496 97.404C201.207 97.9547 200.801 98.3887 200.278 98.706C199.756 99.014 199.154 99.168 198.472 99.168ZM198.472 98.132C198.939 98.132 199.345 98.02 199.69 97.796C200.036 97.572 200.306 97.264 200.502 96.872C200.708 96.48 200.81 96.0227 200.81 95.5C200.81 94.9773 200.708 94.52 200.502 94.128C200.306 93.736 200.031 93.428 199.676 93.204C199.322 92.98 198.911 92.868 198.444 92.868C197.987 92.868 197.581 92.98 197.226 93.204C196.881 93.428 196.606 93.736 196.4 94.128C196.204 94.52 196.106 94.9773 196.106 95.5C196.106 96.0133 196.204 96.4707 196.4 96.872C196.606 97.264 196.886 97.572 197.24 97.796C197.604 98.02 198.015 98.132 198.472 98.132ZM208.302 99L208.232 97.712V92H209.352V99H208.302ZM203.318 95.584V92H204.438V95.584H203.318ZM204.438 95.584C204.438 96.2747 204.517 96.802 204.676 97.166C204.834 97.53 205.054 97.782 205.334 97.922C205.623 98.0527 205.945 98.118 206.3 98.118C206.906 98.118 207.378 97.8987 207.714 97.46C208.059 97.0213 208.232 96.41 208.232 95.626H208.778C208.778 96.3633 208.67 96.998 208.456 97.53C208.241 98.062 207.928 98.468 207.518 98.748C207.116 99.028 206.622 99.168 206.034 99.168C205.492 99.168 205.016 99.0607 204.606 98.846C204.195 98.622 203.878 98.272 203.654 97.796C203.43 97.3107 203.318 96.6853 203.318 95.92V95.584H204.438ZM214.765 99V89.2H215.885V99H214.765ZM219.693 99V95.416H220.813V99H219.693ZM219.693 95.416C219.693 94.7253 219.609 94.198 219.441 93.834C219.282 93.47 219.063 93.2227 218.783 93.092C218.503 92.952 218.186 92.882 217.831 92.882C217.215 92.882 216.734 93.1013 216.389 93.54C216.053 93.9693 215.885 94.5807 215.885 95.374H215.339C215.339 94.6367 215.446 94.002 215.661 93.47C215.885 92.938 216.202 92.532 216.613 92.252C217.024 91.972 217.518 91.832 218.097 91.832C218.638 91.832 219.114 91.944 219.525 92.168C219.936 92.3827 220.253 92.728 220.477 93.204C220.71 93.68 220.822 94.3053 220.813 95.08V95.416H219.693ZM226.884 99L226.828 97.852V95.304C226.828 94.7533 226.767 94.3007 226.646 93.946C226.524 93.582 226.333 93.3067 226.072 93.12C225.81 92.9333 225.47 92.84 225.05 92.84C224.667 92.84 224.336 92.9193 224.056 93.078C223.785 93.2273 223.561 93.47 223.384 93.806L222.376 93.414C222.553 93.0873 222.768 92.8073 223.02 92.574C223.272 92.3313 223.566 92.1493 223.902 92.028C224.238 91.8973 224.62 91.832 225.05 91.832C225.703 91.832 226.24 91.9627 226.66 92.224C227.089 92.476 227.411 92.854 227.626 93.358C227.84 93.8527 227.943 94.4687 227.934 95.206L227.92 99H226.884ZM224.784 99.168C223.962 99.168 223.318 98.9813 222.852 98.608C222.394 98.2253 222.166 97.698 222.166 97.026C222.166 96.3167 222.399 95.7753 222.866 95.402C223.342 95.0193 224.004 94.828 224.854 94.828H226.856V95.766H225.106C224.452 95.766 223.986 95.8733 223.706 96.088C223.435 96.3027 223.3 96.6107 223.3 97.012C223.3 97.376 223.435 97.6653 223.706 97.88C223.976 98.0853 224.354 98.188 224.84 98.188C225.241 98.188 225.591 98.104 225.89 97.936C226.188 97.7587 226.417 97.5113 226.576 97.194C226.744 96.8673 226.828 96.4847 226.828 96.046H227.304C227.304 96.998 227.089 97.7587 226.66 98.328C226.23 98.888 225.605 99.168 224.784 99.168ZM231.741 99L234.597 92H235.773L232.847 99H231.741ZM231.671 99L228.745 92H229.907L232.763 99H231.671ZM239.775 99.168C239.093 99.168 238.491 99.014 237.969 98.706C237.446 98.3887 237.035 97.9547 236.737 97.404C236.447 96.8533 236.303 96.2187 236.303 95.5C236.303 94.7813 236.447 94.1467 236.737 93.596C237.035 93.0453 237.441 92.616 237.955 92.308C238.477 91.9907 239.075 91.832 239.747 91.832C240.4 91.832 240.965 91.9953 241.441 92.322C241.917 92.6393 242.285 93.0873 242.547 93.666C242.808 94.2447 242.939 94.926 242.939 95.71H237.157L237.437 95.472C237.437 96.032 237.535 96.5127 237.731 96.914C237.936 97.3153 238.221 97.6233 238.585 97.838C238.949 98.0433 239.364 98.146 239.831 98.146C240.325 98.146 240.741 98.0293 241.077 97.796C241.422 97.5627 241.688 97.2547 241.875 96.872L242.841 97.362C242.663 97.726 242.425 98.0433 242.127 98.314C241.837 98.5847 241.492 98.7947 241.091 98.944C240.699 99.0933 240.26 99.168 239.775 99.168ZM237.507 94.996L237.213 94.772H242.043L241.749 95.01C241.749 94.562 241.66 94.1747 241.483 93.848C241.305 93.5213 241.067 93.2693 240.769 93.092C240.47 92.9147 240.125 92.826 239.733 92.826C239.35 92.826 238.986 92.9147 238.641 93.092C238.305 93.2693 238.029 93.5213 237.815 93.848C237.609 94.1653 237.507 94.548 237.507 94.996ZM248.426 95.206C248.426 94.45 248.571 93.8387 248.86 93.372C249.149 92.896 249.518 92.546 249.966 92.322C250.423 92.0887 250.904 91.972 251.408 91.972V93.022C250.997 93.022 250.601 93.092 250.218 93.232C249.845 93.3627 249.537 93.582 249.294 93.89C249.051 94.198 248.93 94.618 248.93 95.15L248.426 95.206ZM247.81 99V92H248.93V99H247.81ZM255.607 99.168C254.925 99.168 254.323 99.014 253.801 98.706C253.278 98.3887 252.867 97.9547 252.569 97.404C252.279 96.8533 252.135 96.2187 252.135 95.5C252.135 94.7813 252.279 94.1467 252.569 93.596C252.867 93.0453 253.273 92.616 253.787 92.308C254.309 91.9907 254.907 91.832 255.579 91.832C256.232 91.832 256.797 91.9953 257.273 92.322C257.749 92.6393 258.117 93.0873 258.379 93.666C258.64 94.2447 258.771 94.926 258.771 95.71H252.989L253.269 95.472C253.269 96.032 253.367 96.5127 253.563 96.914C253.768 97.3153 254.053 97.6233 254.417 97.838C254.781 98.0433 255.196 98.146 255.663 98.146C256.157 98.146 256.573 98.0293 256.909 97.796C257.254 97.5627 257.52 97.2547 257.707 96.872L258.673 97.362C258.495 97.726 258.257 98.0433 257.959 98.314C257.669 98.5847 257.324 98.7947 256.923 98.944C256.531 99.0933 256.092 99.168 255.607 99.168ZM253.339 94.996L253.045 94.772H257.875L257.581 95.01C257.581 94.562 257.492 94.1747 257.315 93.848C257.137 93.5213 256.899 93.2693 256.601 93.092C256.302 92.9147 255.957 92.826 255.565 92.826C255.182 92.826 254.818 92.9147 254.473 93.092C254.137 93.2693 253.861 93.5213 253.647 93.848C253.441 94.1653 253.339 94.548 253.339 94.996ZM263.305 99.168C262.614 99.168 262.003 99.014 261.471 98.706C260.939 98.3887 260.524 97.9547 260.225 97.404C259.926 96.8533 259.777 96.2187 259.777 95.5C259.777 94.7813 259.922 94.1467 260.211 93.596C260.51 93.0453 260.925 92.616 261.457 92.308C261.989 91.9907 262.596 91.832 263.277 91.832C263.949 91.832 264.551 91.986 265.083 92.294C265.615 92.602 266.021 93.036 266.301 93.596L265.279 94.058C265.092 93.6847 264.822 93.3953 264.467 93.19C264.112 92.9753 263.706 92.868 263.249 92.868C262.792 92.868 262.386 92.98 262.031 93.204C261.686 93.428 261.41 93.7407 261.205 94.142C261.009 94.534 260.911 94.9867 260.911 95.5C260.911 96.0133 261.009 96.4707 261.205 96.872C261.41 97.264 261.69 97.572 262.045 97.796C262.409 98.02 262.82 98.132 263.277 98.132C263.734 98.132 264.14 98.0153 264.495 97.782C264.859 97.5487 265.134 97.222 265.321 96.802L266.343 97.264C266.063 97.8613 265.657 98.328 265.125 98.664C264.593 99 263.986 99.168 263.305 99.168ZM270.823 99.168C270.142 99.168 269.54 99.014 269.017 98.706C268.495 98.3887 268.084 97.9547 267.785 97.404C267.496 96.8533 267.351 96.2187 267.351 95.5C267.351 94.7813 267.496 94.1467 267.785 93.596C268.084 93.0453 268.49 92.616 269.003 92.308C269.526 91.9907 270.123 91.832 270.795 91.832C271.449 91.832 272.013 91.9953 272.489 92.322C272.965 92.6393 273.334 93.0873 273.595 93.666C273.857 94.2447 273.987 94.926 273.987 95.71H268.205L268.485 95.472C268.485 96.032 268.583 96.5127 268.779 96.914C268.985 97.3153 269.269 97.6233 269.633 97.838C269.997 98.0433 270.413 98.146 270.879 98.146C271.374 98.146 271.789 98.0293 272.125 97.796C272.471 97.5627 272.737 97.2547 272.923 96.872L273.889 97.362C273.712 97.726 273.474 98.0433 273.175 98.314C272.886 98.5847 272.541 98.7947 272.139 98.944C271.747 99.0933 271.309 99.168 270.823 99.168ZM268.555 94.996L268.261 94.772H273.091L272.797 95.01C272.797 94.562 272.709 94.1747 272.531 93.848C272.354 93.5213 272.116 93.2693 271.817 93.092C271.519 92.9147 271.173 92.826 270.781 92.826C270.399 92.826 270.035 92.9147 269.689 93.092C269.353 93.2693 269.078 93.5213 268.863 93.848C268.658 94.1653 268.555 94.548 268.555 94.996ZM275.47 99V92H276.59V99H275.47ZM276.044 90.376C275.857 90.376 275.694 90.306 275.554 90.166C275.414 90.026 275.344 89.8627 275.344 89.676C275.344 89.48 275.414 89.3167 275.554 89.186C275.694 89.046 275.857 88.976 276.044 88.976C276.24 88.976 276.403 89.046 276.534 89.186C276.674 89.3167 276.744 89.48 276.744 89.676C276.744 89.8627 276.674 90.026 276.534 90.166C276.403 90.306 276.24 90.376 276.044 90.376ZM280.796 99L283.652 92H284.828L281.902 99H280.796ZM280.726 99L277.8 92H278.962L281.818 99H280.726ZM288.829 99.168C288.148 99.168 287.546 99.014 287.023 98.706C286.501 98.3887 286.09 97.9547 285.791 97.404C285.502 96.8533 285.357 96.2187 285.357 95.5C285.357 94.7813 285.502 94.1467 285.791 93.596C286.09 93.0453 286.496 92.616 287.009 92.308C287.532 91.9907 288.129 91.832 288.801 91.832C289.455 91.832 290.019 91.9953 290.495 92.322C290.971 92.6393 291.34 93.0873 291.601 93.666C291.863 94.2447 291.993 94.926 291.993 95.71H286.211L286.491 95.472C286.491 96.032 286.589 96.5127 286.785 96.914C286.991 97.3153 287.275 97.6233 287.639 97.838C288.003 98.0433 288.419 98.146 288.885 98.146C289.38 98.146 289.795 98.0293 290.131 97.796C290.477 97.5627 290.743 97.2547 290.929 96.872L291.895 97.362C291.718 97.726 291.48 98.0433 291.181 98.314C290.892 98.5847 290.547 98.7947 290.145 98.944C289.753 99.0933 289.315 99.168 288.829 99.168ZM286.561 94.996L286.267 94.772H291.097L290.803 95.01C290.803 94.562 290.715 94.1747 290.537 93.848C290.36 93.5213 290.122 93.2693 289.823 93.092C289.525 92.9147 289.179 92.826 288.787 92.826C288.405 92.826 288.041 92.9147 287.695 93.092C287.359 93.2693 287.084 93.5213 286.869 93.848C286.664 94.1653 286.561 94.548 286.561 94.996ZM298.586 99L298.53 97.698V89.2H299.65V99H298.586ZM296.164 99.168C295.538 99.168 294.988 99.014 294.512 98.706C294.036 98.398 293.662 97.9687 293.392 97.418C293.13 96.858 293 96.2187 293 95.5C293 94.772 293.13 94.1327 293.392 93.582C293.662 93.0313 294.036 92.602 294.512 92.294C294.988 91.986 295.538 91.832 296.164 91.832C296.752 91.832 297.265 91.986 297.704 92.294C298.152 92.602 298.497 93.0313 298.74 93.582C298.982 94.1327 299.104 94.772 299.104 95.5C299.104 96.2187 298.982 96.858 298.74 97.418C298.497 97.9687 298.152 98.398 297.704 98.706C297.265 99.014 296.752 99.168 296.164 99.168ZM296.416 98.146C296.826 98.146 297.19 98.034 297.508 97.81C297.825 97.586 298.072 97.2733 298.25 96.872C298.436 96.4707 298.53 96.0133 298.53 95.5C298.53 94.9867 298.436 94.5293 298.25 94.128C298.072 93.7267 297.825 93.414 297.508 93.19C297.19 92.966 296.822 92.854 296.402 92.854C295.963 92.854 295.571 92.966 295.226 93.19C294.89 93.414 294.624 93.7267 294.428 94.128C294.232 94.5293 294.134 94.9867 294.134 95.5C294.134 96.0133 294.232 96.4707 294.428 96.872C294.624 97.2733 294.894 97.586 295.24 97.81C295.585 98.034 295.977 98.146 296.416 98.146ZM305.138 99V92H306.258V99H305.138ZM305.712 90.376C305.525 90.376 305.362 90.306 305.222 90.166C305.082 90.026 305.012 89.8627 305.012 89.676C305.012 89.48 305.082 89.3167 305.222 89.186C305.362 89.046 305.525 88.976 305.712 88.976C305.908 88.976 306.071 89.046 306.202 89.186C306.342 89.3167 306.412 89.48 306.412 89.676C306.412 89.8627 306.342 90.026 306.202 90.166C306.071 90.306 305.908 90.376 305.712 90.376ZM310.954 99.168C310.272 99.168 309.745 98.9907 309.372 98.636C308.998 98.2813 308.812 97.782 308.812 97.138V89.816H309.932V97.026C309.932 97.3807 310.025 97.656 310.212 97.852C310.408 98.0387 310.678 98.132 311.024 98.132C311.136 98.132 311.243 98.118 311.346 98.09C311.458 98.0527 311.602 97.9687 311.78 97.838L312.214 98.748C311.971 98.9067 311.752 99.014 311.556 99.07C311.36 99.1353 311.159 99.168 310.954 99.168ZM307.594 92.994V92H312.032V92.994H307.594ZM314.089 99.196C313.874 99.196 313.687 99.1213 313.529 98.972C313.379 98.8133 313.305 98.6313 313.305 98.426C313.305 98.2113 313.379 98.0293 313.529 97.88C313.687 97.7213 313.874 97.642 314.089 97.642C314.303 97.642 314.485 97.7213 314.635 97.88C314.784 98.0293 314.859 98.2113 314.859 98.426C314.859 98.6313 314.784 98.8133 314.635 98.972C314.485 99.1213 314.303 99.196 314.089 99.196Z" fill="#1D2939"/>
<rect x="32" y="128" width="52.6" height="6" rx="3" fill="#25A774"/>
<rect x="92.6" y="128" width="52.6" height="6" rx="3" fill="#25A774"/>
<rect x="153.2" y="128" width="52.6" height="6" rx="3" fill="#25A774"/>
<rect x="213.8" y="128" width="52.6" height="6" rx="3" fill="#25A774"/>
<rect x="274.4" y="128" width="52.6" height="6" rx="3" fill="#25A774"/>
</g>
<defs>
<filter id="filter0_dddd_1656_19673" x="0" y="0" width="359" height="170" filterUnits="userSpaceOnUse" color-interpolation-filters="sRGB">
<feFlood flood-opacity="0" result="BackgroundImageFix"/>
<feColorMatrix in="SourceAlpha" type="matrix" values="0 0 0 0 0 0 0 0 0 0 0 0 0 0 0 0 0 0 127 0" result="hardAlpha"/>
<feOffset dy="8"/>
<feGaussianBlur stdDeviation="8"/>
<feColorMatrix type="matrix" values="0 0 0 0 0 0 0 0 0 0 0 0 0 0 0 0 0 0 0.08 0"/>
<feBlend mode="normal" in2="BackgroundImageFix" result="effect1_dropShadow_1656_19673"/>
<feColorMatrix in="SourceAlpha" type="matrix" values="0 0 0 0 0 0 0 0 0 0 0 0 0 0 0 0 0 0 127 0" result="hardAlpha"/>
<feOffset/>
<feGaussianBlur stdDeviation="2"/>
<feColorMatrix type="matrix" values="0 0 0 0 0 0 0 0 0 0 0 0 0 0 0 0 0 0 0.04 0"/>
<feBlend mode="normal" in2="effect1_dropShadow_1656_19673" result="effect2_dropShadow_1656_19673"/>
<feColorMatrix in="SourceAlpha" type="matrix" values="0 0 0 0 0 0 0 0 0 0 0 0 0 0 0 0 0 0 127 0" result="hardAlpha"/>
<feOffset dy="-8"/>
<feGaussianBlur stdDeviation="8"/>
<feColorMatrix type="matrix" values="0 0 0 0 0 0 0 0 0 0 0 0 0 0 0 0 0 0 0.08 0"/>
<feBlend mode="normal" in2="effect2_dropShadow_1656_19673" result="effect3_dropShadow_1656_19673"/>
<feColorMatrix in="SourceAlpha" type="matrix" values="0 0 0 0 0 0 0 0 0 0 0 0 0 0 0 0 0 0 127 0" result="hardAlpha"/>
<feOffset/>
<feGaussianBlur stdDeviation="2"/>
<feColorMatrix type="matrix" values="0 0 0 0 0 0 0 0 0 0 0 0 0 0 0 0 0 0 0.04 0"/>
<feBlend mode="normal" in2="effect3_dropShadow_1656_19673" result="effect4_dropShadow_1656_19673"/>
<feBlend mode="normal" in="SourceGraphic" in2="effect4_dropShadow_1656_19673" result="shape"/>
</filter>
</defs>
</svg>
