<svg width="407" height="116" viewBox="0 0 407 116" fill="none" xmlns="http://www.w3.org/2000/svg">
<g filter="url(#filter0_dd_1774_6410)">
<path d="M16 20C16 13.3726 21.3726 8 28 8H379C385.627 8 391 13.3726 391 20V80C391 86.6274 385.627 92 379 92H28C21.3726 92 16 86.6274 16 80V20Z" fill="white"/>
<rect x="40.5" y="38.5" width="34" height="23" rx="3.5" fill="white" stroke="#EBEBEB"/>
<path fill-rule="evenodd" clip-rule="evenodd" d="M57.75 55.1569C56.5584 56.1852 55.0128 56.806 53.3238 56.806C49.5551 56.806 46.5 53.7154 46.5 49.903C46.5 46.0906 49.5551 43 53.3238 43C55.0128 43 56.5584 43.6208 57.75 44.649C58.9416 43.6208 60.4872 43 62.1762 43C65.9449 43 69 46.0906 69 49.903C69 53.7154 65.9449 56.806 62.1762 56.806C60.4872 56.806 58.9416 56.1852 57.75 55.1569Z" fill="#ED0006"/>
<path fill-rule="evenodd" clip-rule="evenodd" d="M57.75 55.1569C59.2172 53.8908 60.1475 52.0068 60.1475 49.903C60.1475 47.7992 59.2172 45.9152 57.75 44.649C58.9416 43.6208 60.4872 43 62.1762 43C65.9449 43 69 46.0906 69 49.903C69 53.7154 65.9449 56.806 62.1762 56.806C60.4872 56.806 58.9416 56.1852 57.75 55.1569Z" fill="#F9A000"/>
<path fill-rule="evenodd" clip-rule="evenodd" d="M57.75 44.6484C59.2172 45.9146 60.1476 47.7986 60.1476 49.9024C60.1476 52.0062 59.2172 53.8902 57.75 55.1563C56.2829 53.8902 55.3525 52.0062 55.3525 49.9024C55.3525 47.7986 56.2829 45.9146 57.75 44.6484Z" fill="#FF5E00"/>
<path d="M88.424 46V34.8H90.088L93.8 40.288L97.496 34.8H99.16V46H97.592V37.328L93.784 42.944L89.992 37.344V46H88.424ZM106.546 46L106.482 44.608V41.824C106.482 41.2373 106.413 40.7467 106.274 40.352C106.146 39.9573 105.943 39.6587 105.666 39.456C105.399 39.2533 105.042 39.152 104.594 39.152C104.178 39.152 103.815 39.2373 103.506 39.408C103.207 39.5787 102.957 39.8453 102.754 40.208L101.41 39.696C101.602 39.3333 101.842 39.0133 102.13 38.736C102.418 38.448 102.765 38.224 103.17 38.064C103.575 37.8933 104.05 37.808 104.594 37.808C105.351 37.808 105.981 37.9573 106.482 38.256C106.983 38.5547 107.357 38.9867 107.602 39.552C107.858 40.1173 107.981 40.816 107.97 41.648L107.954 46H106.546ZM104.194 46.192C103.245 46.192 102.503 45.9787 101.97 45.552C101.447 45.1147 101.186 44.512 101.186 43.744C101.186 42.9227 101.458 42.2987 102.002 41.872C102.557 41.4347 103.325 41.216 104.306 41.216H106.53V42.416H104.722C103.986 42.416 103.469 42.5333 103.17 42.768C102.871 42.992 102.722 43.3067 102.722 43.712C102.722 44.0853 102.861 44.3787 103.138 44.592C103.426 44.7947 103.821 44.896 104.322 44.896C104.759 44.896 105.138 44.8053 105.458 44.624C105.778 44.432 106.029 44.1653 106.21 43.824C106.391 43.4827 106.482 43.0933 106.482 42.656H107.01C107.01 43.744 106.775 44.608 106.306 45.248C105.847 45.8773 105.143 46.192 104.194 46.192ZM112.748 46.192C112.183 46.192 111.676 46.1067 111.228 45.936C110.791 45.7653 110.417 45.536 110.108 45.248C109.809 44.96 109.585 44.6347 109.436 44.272L110.748 43.696C110.919 44.0267 111.175 44.2987 111.516 44.512C111.857 44.7253 112.236 44.832 112.652 44.832C113.111 44.832 113.489 44.7467 113.788 44.576C114.087 44.4053 114.236 44.1653 114.236 43.856C114.236 43.5573 114.124 43.3227 113.9 43.152C113.676 42.9813 113.351 42.8427 112.924 42.736L112.172 42.544C111.425 42.3413 110.844 42.0373 110.428 41.632C110.023 41.2267 109.82 40.768 109.82 40.256C109.82 39.4773 110.071 38.8747 110.572 38.448C111.073 38.0213 111.815 37.808 112.796 37.808C113.276 37.808 113.713 37.8773 114.108 38.016C114.513 38.1547 114.855 38.352 115.132 38.608C115.42 38.864 115.623 39.168 115.74 39.52L114.46 40.096C114.332 39.776 114.113 39.5413 113.804 39.392C113.495 39.232 113.132 39.152 112.716 39.152C112.289 39.152 111.953 39.248 111.708 39.44C111.463 39.6213 111.34 39.8773 111.34 40.208C111.34 40.3893 111.441 40.5653 111.644 40.736C111.857 40.896 112.167 41.0293 112.572 41.136L113.436 41.344C113.959 41.472 114.391 41.6693 114.732 41.936C115.073 42.192 115.329 42.4853 115.5 42.816C115.671 43.136 115.756 43.472 115.756 43.824C115.756 44.304 115.623 44.7253 115.356 45.088C115.1 45.44 114.743 45.712 114.284 45.904C113.836 46.096 113.324 46.192 112.748 46.192ZM120.425 46.192C119.625 46.192 119.007 45.9893 118.569 45.584C118.132 45.168 117.913 44.576 117.913 43.808V35.504H119.433V43.584C119.433 43.9787 119.529 44.2827 119.721 44.496C119.924 44.6987 120.212 44.8 120.585 44.8C120.692 44.8 120.809 44.7787 120.937 44.736C121.065 44.6933 121.22 44.608 121.401 44.48L121.977 45.664C121.7 45.8453 121.433 45.9787 121.177 46.064C120.932 46.1493 120.681 46.192 120.425 46.192ZM116.553 39.312V38H121.705V39.312H116.553ZM126.951 46.192C126.173 46.192 125.485 46.016 124.887 45.664C124.29 45.3013 123.821 44.8053 123.479 44.176C123.138 43.5467 122.967 42.8213 122.967 42C122.967 41.1787 123.138 40.4533 123.479 39.824C123.821 39.1947 124.29 38.704 124.887 38.352C125.495 37.9893 126.189 37.808 126.967 37.808C127.703 37.808 128.349 37.9947 128.903 38.368C129.458 38.7307 129.89 39.2533 130.199 39.936C130.519 40.608 130.679 41.4027 130.679 42.32H124.215L124.503 42.08C124.503 42.6453 124.615 43.136 124.839 43.552C125.063 43.968 125.367 44.288 125.751 44.512C126.135 44.7253 126.573 44.832 127.063 44.832C127.597 44.832 128.039 44.7093 128.391 44.464C128.754 44.208 129.037 43.888 129.239 43.504L130.551 44.112C130.338 44.528 130.061 44.896 129.719 45.216C129.378 45.5253 128.973 45.7653 128.503 45.936C128.045 46.1067 127.527 46.192 126.951 46.192ZM124.599 41.36L124.295 41.12H129.351L129.063 41.36C129.063 40.8907 128.967 40.4907 128.775 40.16C128.583 39.8187 128.327 39.5627 128.007 39.392C127.687 39.2107 127.33 39.12 126.935 39.12C126.551 39.12 126.178 39.2107 125.815 39.392C125.463 39.5627 125.17 39.8133 124.935 40.144C124.711 40.4747 124.599 40.88 124.599 41.36ZM133.109 41.696C133.109 40.832 133.274 40.128 133.605 39.584C133.936 39.04 134.362 38.6347 134.885 38.368C135.408 38.1013 135.957 37.968 136.533 37.968V39.408C136.053 39.408 135.594 39.4827 135.157 39.632C134.73 39.7707 134.378 40.0053 134.101 40.336C133.834 40.656 133.701 41.0933 133.701 41.648L133.109 41.696ZM132.181 46V38H133.701V46H132.181ZM141.407 46.192C140.607 46.192 139.898 46.016 139.279 45.664C138.66 45.3013 138.175 44.8053 137.823 44.176C137.482 43.5467 137.311 42.8213 137.311 42C137.311 41.1787 137.482 40.4533 137.823 39.824C138.175 39.1947 138.655 38.704 139.263 38.352C139.882 37.9893 140.586 37.808 141.375 37.808C142.154 37.808 142.852 37.9893 143.471 38.352C144.1 38.7147 144.57 39.232 144.879 39.904L143.503 40.48C143.3 40.0853 143.007 39.776 142.623 39.552C142.25 39.328 141.818 39.216 141.327 39.216C140.847 39.216 140.42 39.3333 140.047 39.568C139.674 39.8027 139.38 40.1333 139.167 40.56C138.954 40.976 138.847 41.456 138.847 42C138.847 42.544 138.954 43.024 139.167 43.44C139.38 43.856 139.679 44.1867 140.063 44.432C140.447 44.6667 140.879 44.784 141.359 44.784C141.85 44.784 142.287 44.6613 142.671 44.416C143.055 44.16 143.343 43.8187 143.535 43.392L144.927 43.952C144.618 44.656 144.148 45.2053 143.519 45.6C142.9 45.9947 142.196 46.192 141.407 46.192ZM151.343 46L151.279 44.608V41.824C151.279 41.2373 151.21 40.7467 151.071 40.352C150.943 39.9573 150.74 39.6587 150.463 39.456C150.196 39.2533 149.839 39.152 149.391 39.152C148.975 39.152 148.612 39.2373 148.303 39.408C148.004 39.5787 147.754 39.8453 147.551 40.208L146.207 39.696C146.399 39.3333 146.639 39.0133 146.927 38.736C147.215 38.448 147.562 38.224 147.967 38.064C148.372 37.8933 148.847 37.808 149.391 37.808C150.148 37.808 150.778 37.9573 151.279 38.256C151.78 38.5547 152.154 38.9867 152.399 39.552C152.655 40.1173 152.778 40.816 152.767 41.648L152.751 46H151.343ZM148.991 46.192C148.042 46.192 147.3 45.9787 146.767 45.552C146.244 45.1147 145.983 44.512 145.983 43.744C145.983 42.9227 146.255 42.2987 146.799 41.872C147.354 41.4347 148.122 41.216 149.103 41.216H151.327V42.416H149.519C148.783 42.416 148.266 42.5333 147.967 42.768C147.668 42.992 147.519 43.3067 147.519 43.712C147.519 44.0853 147.658 44.3787 147.935 44.592C148.223 44.7947 148.618 44.896 149.119 44.896C149.556 44.896 149.935 44.8053 150.255 44.624C150.575 44.432 150.826 44.1653 151.007 43.824C151.188 43.4827 151.279 43.0933 151.279 42.656H151.807C151.807 43.744 151.572 44.608 151.103 45.248C150.644 45.8773 149.94 46.192 148.991 46.192ZM155.609 41.696C155.609 40.832 155.774 40.128 156.105 39.584C156.436 39.04 156.862 38.6347 157.385 38.368C157.908 38.1013 158.457 37.968 159.033 37.968V39.408C158.553 39.408 158.094 39.4827 157.657 39.632C157.23 39.7707 156.878 40.0053 156.601 40.336C156.334 40.656 156.201 41.0933 156.201 41.648L155.609 41.696ZM154.681 46V38H156.201V46H154.681ZM166.115 46L166.051 44.512V34.8H167.555V46H166.115ZM163.427 46.192C162.702 46.192 162.067 46.016 161.523 45.664C160.99 45.312 160.568 44.8213 160.259 44.192C159.96 43.5627 159.811 42.832 159.811 42C159.811 41.1573 159.96 40.4267 160.259 39.808C160.568 39.1787 160.99 38.688 161.523 38.336C162.067 37.984 162.702 37.808 163.427 37.808C164.099 37.808 164.68 37.984 165.171 38.336C165.672 38.688 166.056 39.1787 166.323 39.808C166.59 40.4267 166.723 41.1573 166.723 42C166.723 42.832 166.59 43.5627 166.323 44.192C166.056 44.8213 165.672 45.312 165.171 45.664C164.68 46.016 164.099 46.192 163.427 46.192ZM163.779 44.816C164.227 44.816 164.622 44.6987 164.963 44.464C165.304 44.2187 165.571 43.888 165.763 43.472C165.955 43.0453 166.051 42.5547 166.051 42C166.051 41.4453 165.955 40.96 165.763 40.544C165.571 40.1173 165.304 39.7867 164.963 39.552C164.622 39.3067 164.222 39.184 163.763 39.184C163.294 39.184 162.878 39.3067 162.515 39.552C162.152 39.7867 161.87 40.1173 161.667 40.544C161.464 40.96 161.363 41.4453 161.363 42C161.363 42.5547 161.464 43.0453 161.667 43.472C161.88 43.888 162.168 44.2187 162.531 44.464C162.894 44.6987 163.31 44.816 163.779 44.816ZM177.572 39.984L176.052 37.6L176.804 37.056L178.58 39.264L177.572 39.984ZM175.22 40.016L174.228 39.296L176.02 37.104L176.756 37.648L175.22 40.016ZM176.228 37.792L173.492 37.072L173.892 35.888L176.516 36.928L176.228 37.792ZM175.924 37.376L175.764 34.544H176.996L176.836 37.376H175.924ZM176.516 37.808L176.244 36.928L178.884 35.92L179.252 37.088L176.516 37.808ZM185.306 39.984L183.786 37.6L184.538 37.056L186.314 39.264L185.306 39.984ZM182.954 40.016L181.962 39.296L183.754 37.104L184.49 37.648L182.954 40.016ZM183.962 37.792L181.226 37.072L181.626 35.888L184.25 36.928L183.962 37.792ZM183.658 37.376L183.498 34.544H184.73L184.57 37.376H183.658ZM184.25 37.808L183.978 36.928L186.618 35.92L186.986 37.088L184.25 37.808ZM193.04 39.984L191.52 37.6L192.272 37.056L194.048 39.264L193.04 39.984ZM190.688 40.016L189.696 39.296L191.488 37.104L192.224 37.648L190.688 40.016ZM191.696 37.792L188.96 37.072L189.36 35.888L191.984 36.928L191.696 37.792ZM191.392 37.376L191.232 34.544H192.464L192.304 37.376H191.392ZM191.984 37.808L191.712 36.928L194.352 35.92L194.72 37.088L191.984 37.808ZM200.775 39.984L199.255 37.6L200.007 37.056L201.783 39.264L200.775 39.984ZM198.423 40.016L197.431 39.296L199.223 37.104L199.959 37.648L198.423 40.016ZM199.431 37.792L196.695 37.072L197.095 35.888L199.719 36.928L199.431 37.792ZM199.127 37.376L198.967 34.544H200.199L200.039 37.376H199.127ZM199.719 37.808L199.447 36.928L202.087 35.92L202.455 37.088L199.719 37.808ZM211.711 46.192C211.135 46.192 210.613 46.1067 210.143 45.936C209.674 45.7653 209.279 45.5307 208.959 45.232C208.639 44.9333 208.394 44.608 208.223 44.256L209.583 43.632C209.69 43.7813 209.823 43.952 209.983 44.144C210.143 44.3253 210.357 44.48 210.623 44.608C210.89 44.736 211.221 44.8 211.615 44.8C212.287 44.8 212.821 44.608 213.215 44.224C213.621 43.84 213.823 43.3547 213.823 42.768C213.823 42.3307 213.706 41.9627 213.471 41.664C213.237 41.3547 212.89 41.12 212.431 40.96C211.983 40.8 211.434 40.72 210.783 40.72H210.383V39.536H210.751C211.413 39.536 212.021 39.6107 212.575 39.76C213.141 39.9093 213.637 40.1333 214.063 40.432C214.49 40.72 214.821 41.072 215.055 41.488C215.29 41.904 215.407 42.3787 215.407 42.912C215.407 43.5733 215.237 44.1547 214.895 44.656C214.565 45.1467 214.117 45.5253 213.551 45.792C212.997 46.0587 212.383 46.192 211.711 46.192ZM210.383 40.528V39.392H210.783C211.658 39.392 212.341 39.2427 212.831 38.944C213.322 38.6453 213.567 38.224 213.567 37.68C213.567 37.3707 213.482 37.0933 213.311 36.848C213.151 36.592 212.922 36.3893 212.623 36.24C212.335 36.08 211.989 36 211.583 36C211.327 36 211.077 36.0427 210.831 36.128C210.597 36.2027 210.378 36.32 210.175 36.48C209.973 36.6293 209.797 36.8267 209.647 37.072L208.335 36.48C208.517 36.0853 208.773 35.7493 209.103 35.472C209.434 35.1947 209.818 34.9813 210.255 34.832C210.693 34.6827 211.157 34.608 211.647 34.608C212.319 34.608 212.917 34.736 213.439 34.992C213.962 35.248 214.373 35.6 214.671 36.048C214.981 36.496 215.135 37.0027 215.135 37.568C215.135 38.048 215.018 38.4747 214.783 38.848C214.559 39.2107 214.245 39.52 213.839 39.776C213.434 40.0213 212.965 40.208 212.431 40.336C211.909 40.464 211.343 40.528 210.735 40.528H210.383ZM220.877 46.192C220.109 46.192 219.464 46.048 218.941 45.76C218.419 45.472 217.997 45.0827 217.677 44.592C217.368 44.0907 217.144 43.5147 217.005 42.864C216.867 42.2133 216.797 41.52 216.797 40.784C216.797 39.856 216.893 39.0133 217.085 38.256C217.277 37.4987 217.56 36.848 217.933 36.304C218.307 35.76 218.765 35.344 219.309 35.056C219.853 34.7573 220.477 34.608 221.181 34.608C221.747 34.608 222.307 34.6987 222.861 34.88C223.416 35.0507 223.912 35.2907 224.349 35.6L223.501 36.736C223.16 36.5013 222.792 36.3253 222.397 36.208C222.003 36.08 221.635 36.016 221.293 36.016C220.28 36.016 219.501 36.448 218.957 37.312C218.413 38.1653 218.168 39.4827 218.221 41.264L217.901 40.992C218.157 40.3627 218.557 39.8613 219.101 39.488C219.656 39.104 220.307 38.912 221.053 38.912C221.779 38.912 222.419 39.072 222.973 39.392C223.528 39.712 223.96 40.1493 224.269 40.704C224.579 41.248 224.733 41.8773 224.733 42.592C224.733 43.2853 224.573 43.904 224.253 44.448C223.933 44.992 223.48 45.4187 222.893 45.728C222.317 46.0373 221.645 46.192 220.877 46.192ZM220.893 44.816C221.331 44.816 221.72 44.72 222.061 44.528C222.403 44.336 222.669 44.0693 222.861 43.728C223.064 43.376 223.165 42.9813 223.165 42.544C223.165 42.096 223.064 41.7013 222.861 41.36C222.669 41.008 222.403 40.736 222.061 40.544C221.72 40.352 221.331 40.256 220.893 40.256C220.445 40.256 220.045 40.352 219.693 40.544C219.352 40.736 219.08 41.008 218.877 41.36C218.685 41.7013 218.589 42.096 218.589 42.544C218.589 42.9813 218.685 43.376 218.877 43.728C219.08 44.0693 219.352 44.336 219.693 44.528C220.045 44.72 220.445 44.816 220.893 44.816ZM226.579 46L231.859 35.904L233.411 36.064L228.323 46H226.579ZM225.843 36.24V34.8H233.411V36.064L232.051 36.24H225.843ZM239.683 46V43.424H234.515V42.192L239.571 34.8H241.203V42.032H243.395V43.424H241.203V46H239.683ZM236.243 42.032H239.683V36.992L236.243 42.032Z" fill="#1F1F1F"/>
<path d="M88.116 68V59.6H93.084V60.524H89.136V63.236H92.736V64.148H89.136V67.076H93.108V68H88.116ZM94.2216 68L96.6696 64.556L98.3976 62H99.5376L97.2576 65.24L95.3856 68H94.2216ZM98.5296 68L96.6816 65.24L94.3776 62H95.5176L97.2576 64.556L99.6816 68H98.5296ZM100.697 70.4V62H101.597L101.657 63.104V70.4H100.697ZM103.685 68.144C103.181 68.144 102.737 68.012 102.353 67.748C101.977 67.484 101.685 67.116 101.477 66.644C101.269 66.164 101.165 65.616 101.165 65C101.165 64.376 101.269 63.828 101.477 63.356C101.685 62.884 101.977 62.516 102.353 62.252C102.737 61.988 103.181 61.856 103.685 61.856C104.221 61.856 104.693 61.988 105.101 62.252C105.509 62.516 105.825 62.884 106.049 63.356C106.281 63.828 106.397 64.376 106.397 65C106.397 65.616 106.281 66.164 106.049 66.644C105.825 67.116 105.509 67.484 105.101 67.748C104.693 68.012 104.221 68.144 103.685 68.144ZM103.469 67.268C103.845 67.268 104.177 67.172 104.465 66.98C104.761 66.788 104.993 66.52 105.161 66.176C105.337 65.832 105.425 65.44 105.425 65C105.425 64.56 105.341 64.168 105.173 63.824C105.013 63.48 104.785 63.212 104.489 63.02C104.193 62.828 103.857 62.732 103.481 62.732C103.129 62.732 102.813 62.828 102.533 63.02C102.261 63.212 102.045 63.48 101.885 63.824C101.733 64.168 101.657 64.56 101.657 65C101.657 65.44 101.733 65.832 101.885 66.176C102.045 66.52 102.261 66.788 102.533 66.98C102.805 67.172 103.117 67.268 103.469 67.268ZM107.787 68V62H108.747V68H107.787ZM108.279 60.608C108.119 60.608 107.979 60.548 107.859 60.428C107.739 60.308 107.679 60.168 107.679 60.008C107.679 59.84 107.739 59.7 107.859 59.588C107.979 59.468 108.119 59.408 108.279 59.408C108.447 59.408 108.587 59.468 108.699 59.588C108.819 59.7 108.879 59.84 108.879 60.008C108.879 60.168 108.819 60.308 108.699 60.428C108.587 60.548 108.447 60.608 108.279 60.608ZM111.044 64.748C111.044 64.1 111.168 63.576 111.416 63.176C111.664 62.768 111.98 62.468 112.364 62.276C112.756 62.076 113.168 61.976 113.6 61.976V62.876C113.248 62.876 112.908 62.936 112.58 63.056C112.26 63.168 111.996 63.356 111.788 63.62C111.58 63.884 111.476 64.244 111.476 64.7L111.044 64.748ZM110.516 68V62H111.476V68H110.516ZM115.11 70.544C114.958 70.544 114.782 70.512 114.582 70.448C114.382 70.392 114.17 70.316 113.946 70.22L114.306 69.416C114.49 69.496 114.65 69.556 114.786 69.596C114.93 69.636 115.042 69.656 115.122 69.656C115.338 69.656 115.514 69.596 115.65 69.476C115.794 69.364 115.914 69.2 116.01 68.984L116.694 67.352L118.914 62H119.946L117.066 68.84C116.914 69.192 116.754 69.496 116.586 69.752C116.426 70.008 116.23 70.204 115.998 70.34C115.766 70.476 115.47 70.544 115.11 70.544ZM116.43 68L113.838 62H114.858L117.09 67.34L117.378 68H116.43ZM128.292 68L128.244 66.884V59.6H129.204V68H128.292ZM126.216 68.144C125.68 68.144 125.208 68.012 124.8 67.748C124.392 67.484 124.072 67.116 123.84 66.644C123.616 66.164 123.504 65.616 123.504 65C123.504 64.376 123.616 63.828 123.84 63.356C124.072 62.884 124.392 62.516 124.8 62.252C125.208 61.988 125.68 61.856 126.216 61.856C126.72 61.856 127.16 61.988 127.536 62.252C127.92 62.516 128.216 62.884 128.424 63.356C128.632 63.828 128.736 64.376 128.736 65C128.736 65.616 128.632 66.164 128.424 66.644C128.216 67.116 127.92 67.484 127.536 67.748C127.16 68.012 126.72 68.144 126.216 68.144ZM126.432 67.268C126.784 67.268 127.096 67.172 127.368 66.98C127.64 66.788 127.852 66.52 128.004 66.176C128.164 65.832 128.244 65.44 128.244 65C128.244 64.56 128.164 64.168 128.004 63.824C127.852 63.48 127.64 63.212 127.368 63.02C127.096 62.828 126.78 62.732 126.42 62.732C126.044 62.732 125.708 62.828 125.412 63.02C125.124 63.212 124.896 63.48 124.728 63.824C124.56 64.168 124.476 64.56 124.476 65C124.476 65.44 124.56 65.832 124.728 66.176C124.896 66.52 125.128 66.788 125.424 66.98C125.72 67.172 126.056 67.268 126.432 67.268ZM134.579 68L134.531 67.016V64.832C134.531 64.36 134.479 63.972 134.375 63.668C134.271 63.356 134.107 63.12 133.883 62.96C133.659 62.8 133.367 62.72 133.007 62.72C132.679 62.72 132.395 62.788 132.155 62.924C131.923 63.052 131.731 63.26 131.579 63.548L130.715 63.212C130.867 62.932 131.051 62.692 131.267 62.492C131.483 62.284 131.735 62.128 132.023 62.024C132.311 61.912 132.639 61.856 133.007 61.856C133.567 61.856 134.027 61.968 134.387 62.192C134.755 62.408 135.031 62.732 135.215 63.164C135.399 63.588 135.487 64.116 135.479 64.748L135.467 68H134.579ZM132.779 68.144C132.075 68.144 131.523 67.984 131.123 67.664C130.731 67.336 130.535 66.884 130.535 66.308C130.535 65.7 130.735 65.236 131.135 64.916C131.543 64.588 132.111 64.424 132.839 64.424H134.555V65.228H133.055C132.495 65.228 132.095 65.32 131.855 65.504C131.623 65.688 131.507 65.952 131.507 66.296C131.507 66.608 131.623 66.856 131.855 67.04C132.087 67.216 132.411 67.304 132.827 67.304C133.171 67.304 133.471 67.232 133.727 67.088C133.983 66.936 134.179 66.724 134.315 66.452C134.459 66.172 134.531 65.844 134.531 65.468H134.939C134.939 66.284 134.755 66.936 134.387 67.424C134.019 67.904 133.483 68.144 132.779 68.144ZM139.256 68.144C138.672 68.144 138.22 67.992 137.9 67.688C137.58 67.384 137.42 66.956 137.42 66.404V60.128H138.38V66.308C138.38 66.612 138.46 66.848 138.62 67.016C138.788 67.176 139.02 67.256 139.316 67.256C139.412 67.256 139.504 67.244 139.592 67.22C139.688 67.188 139.812 67.116 139.964 67.004L140.336 67.784C140.128 67.92 139.94 68.012 139.772 68.06C139.604 68.116 139.432 68.144 139.256 68.144ZM136.376 62.852V62H140.18V62.852H136.376ZM144.128 68.144C143.544 68.144 143.028 68.012 142.58 67.748C142.132 67.476 141.78 67.104 141.524 66.632C141.276 66.16 141.152 65.616 141.152 65C141.152 64.384 141.276 63.84 141.524 63.368C141.78 62.896 142.128 62.528 142.568 62.264C143.016 61.992 143.528 61.856 144.104 61.856C144.664 61.856 145.148 61.996 145.556 62.276C145.964 62.548 146.28 62.932 146.504 63.428C146.728 63.924 146.84 64.508 146.84 65.18H141.884L142.124 64.976C142.124 65.456 142.208 65.868 142.376 66.212C142.552 66.556 142.796 66.82 143.108 67.004C143.42 67.18 143.776 67.268 144.176 67.268C144.6 67.268 144.956 67.168 145.244 66.968C145.54 66.768 145.768 66.504 145.928 66.176L146.756 66.596C146.604 66.908 146.4 67.18 146.144 67.412C145.896 67.644 145.6 67.824 145.256 67.952C144.92 68.08 144.544 68.144 144.128 68.144ZM142.184 64.568L141.932 64.376H146.072L145.82 64.58C145.82 64.196 145.744 63.864 145.592 63.584C145.44 63.304 145.236 63.088 144.98 62.936C144.724 62.784 144.428 62.708 144.092 62.708C143.764 62.708 143.452 62.784 143.156 62.936C142.868 63.088 142.632 63.304 142.448 63.584C142.272 63.856 142.184 64.184 142.184 64.568ZM148.723 63.308C148.539 63.308 148.379 63.244 148.243 63.116C148.115 62.988 148.051 62.832 148.051 62.648C148.051 62.464 148.115 62.308 148.243 62.18C148.379 62.044 148.539 61.976 148.723 61.976C148.899 61.976 149.051 62.044 149.179 62.18C149.315 62.308 149.383 62.464 149.383 62.648C149.383 62.832 149.315 62.988 149.179 63.116C149.051 63.244 148.899 63.308 148.723 63.308ZM148.735 68.024C148.551 68.024 148.395 67.96 148.267 67.832C148.139 67.696 148.075 67.536 148.075 67.352C148.075 67.168 148.139 67.012 148.267 66.884C148.395 66.756 148.551 66.692 148.735 66.692C148.919 66.692 149.075 66.756 149.203 66.884C149.339 67.012 149.407 67.168 149.407 67.352C149.407 67.536 149.339 67.696 149.203 67.832C149.075 67.96 148.919 68.024 148.735 68.024ZM155.815 68V60.14L155.899 59.6H156.811V68H155.815ZM153.931 61.76V60.836C154.099 60.844 154.299 60.788 154.531 60.668C154.763 60.548 155.003 60.392 155.251 60.2C155.499 60.008 155.715 59.808 155.899 59.6L156.523 60.284C156.259 60.564 155.983 60.816 155.695 61.04C155.407 61.264 155.115 61.444 154.819 61.58C154.523 61.708 154.227 61.768 153.931 61.76ZM162.008 68.144C161.368 68.144 160.8 67.96 160.304 67.592C159.808 67.216 159.42 66.704 159.14 66.056C158.86 65.4 158.72 64.648 158.72 63.8C158.72 62.952 158.86 62.204 159.14 61.556C159.42 60.9 159.804 60.388 160.292 60.02C160.788 59.644 161.36 59.456 162.008 59.456C162.656 59.456 163.224 59.644 163.712 60.02C164.208 60.388 164.596 60.9 164.876 61.556C165.164 62.204 165.308 62.952 165.308 63.8C165.308 64.648 165.168 65.4 164.888 66.056C164.608 66.704 164.22 67.216 163.724 67.592C163.228 67.96 162.656 68.144 162.008 68.144ZM162.008 67.232C162.456 67.232 162.852 67.084 163.196 66.788C163.548 66.492 163.82 66.088 164.012 65.576C164.212 65.064 164.312 64.472 164.312 63.8C164.312 63.128 164.212 62.536 164.012 62.024C163.82 61.504 163.548 61.1 163.196 60.812C162.852 60.516 162.456 60.368 162.008 60.368C161.56 60.368 161.164 60.516 160.82 60.812C160.476 61.1 160.204 61.504 160.004 62.024C159.812 62.536 159.716 63.128 159.716 63.8C159.716 64.472 159.812 65.064 160.004 65.576C160.204 66.088 160.476 66.492 160.82 66.788C161.172 67.084 161.568 67.232 162.008 67.232ZM166.035 69.008L169.347 59.036H170.343L167.055 69.008H166.035ZM171.204 68V67.16C171.204 66.896 171.256 66.636 171.36 66.38C171.472 66.116 171.628 65.856 171.828 65.6C172.036 65.344 172.288 65.104 172.584 64.88L174.324 63.572C174.532 63.428 174.712 63.264 174.864 63.08C175.024 62.888 175.148 62.692 175.236 62.492C175.324 62.284 175.368 62.084 175.368 61.892C175.368 61.612 175.3 61.36 175.164 61.136C175.028 60.904 174.836 60.72 174.588 60.584C174.34 60.448 174.048 60.38 173.712 60.38C173.384 60.38 173.096 60.444 172.848 60.572C172.6 60.692 172.396 60.856 172.236 61.064C172.076 61.264 171.96 61.48 171.888 61.712L170.856 61.508C170.952 61.148 171.124 60.812 171.372 60.5C171.628 60.188 171.952 59.936 172.344 59.744C172.736 59.552 173.172 59.456 173.652 59.456C174.212 59.456 174.696 59.564 175.104 59.78C175.512 59.988 175.828 60.276 176.052 60.644C176.284 61.004 176.4 61.416 176.4 61.88C176.4 62.32 176.28 62.736 176.04 63.128C175.8 63.52 175.452 63.9 174.996 64.268L173.352 65.516C173.032 65.756 172.784 66.008 172.608 66.272C172.44 66.536 172.344 66.812 172.32 67.1H176.52V68H171.204ZM181.063 68.144C180.423 68.144 179.855 67.96 179.359 67.592C178.863 67.216 178.475 66.704 178.195 66.056C177.915 65.4 177.775 64.648 177.775 63.8C177.775 62.952 177.915 62.204 178.195 61.556C178.475 60.9 178.859 60.388 179.347 60.02C179.843 59.644 180.415 59.456 181.063 59.456C181.711 59.456 182.279 59.644 182.767 60.02C183.263 60.388 183.651 60.9 183.931 61.556C184.219 62.204 184.363 62.952 184.363 63.8C184.363 64.648 184.223 65.4 183.943 66.056C183.663 66.704 183.275 67.216 182.779 67.592C182.283 67.96 181.711 68.144 181.063 68.144ZM181.063 67.232C181.511 67.232 181.907 67.084 182.251 66.788C182.603 66.492 182.875 66.088 183.067 65.576C183.267 65.064 183.367 64.472 183.367 63.8C183.367 63.128 183.267 62.536 183.067 62.024C182.875 61.504 182.603 61.1 182.251 60.812C181.907 60.516 181.511 60.368 181.063 60.368C180.615 60.368 180.219 60.516 179.875 60.812C179.531 61.1 179.259 61.504 179.059 62.024C178.867 62.536 178.771 63.128 178.771 63.8C178.771 64.472 178.867 65.064 179.059 65.576C179.259 66.088 179.531 66.492 179.875 66.788C180.227 67.084 180.623 67.232 181.063 67.232ZM185.594 68V67.16C185.594 66.896 185.646 66.636 185.75 66.38C185.862 66.116 186.018 65.856 186.218 65.6C186.426 65.344 186.678 65.104 186.974 64.88L188.714 63.572C188.922 63.428 189.102 63.264 189.254 63.08C189.414 62.888 189.538 62.692 189.626 62.492C189.714 62.284 189.758 62.084 189.758 61.892C189.758 61.612 189.69 61.36 189.554 61.136C189.418 60.904 189.226 60.72 188.978 60.584C188.73 60.448 188.438 60.38 188.102 60.38C187.774 60.38 187.486 60.444 187.238 60.572C186.99 60.692 186.786 60.856 186.626 61.064C186.466 61.264 186.35 61.48 186.278 61.712L185.246 61.508C185.342 61.148 185.514 60.812 185.762 60.5C186.018 60.188 186.342 59.936 186.734 59.744C187.126 59.552 187.562 59.456 188.042 59.456C188.602 59.456 189.086 59.564 189.494 59.78C189.902 59.988 190.218 60.276 190.442 60.644C190.674 61.004 190.79 61.416 190.79 61.88C190.79 62.32 190.67 62.736 190.43 63.128C190.19 63.52 189.842 63.9 189.386 64.268L187.742 65.516C187.422 65.756 187.174 66.008 186.998 66.272C186.83 66.536 186.734 66.812 186.71 67.1H190.91V68H185.594ZM196.005 68V65.96H192.129V65.18L195.957 59.6H196.989V65.06H198.705V65.96H196.989V68H196.005ZM193.293 65.06H196.005V61.076L193.293 65.06Z" fill="#1F1F1F"/>
</g>
<defs>
<filter id="filter0_dd_1774_6410" x="0" y="0" width="407" height="116" filterUnits="userSpaceOnUse" color-interpolation-filters="sRGB">
<feFlood flood-opacity="0" result="BackgroundImageFix"/>
<feColorMatrix in="SourceAlpha" type="matrix" values="0 0 0 0 0 0 0 0 0 0 0 0 0 0 0 0 0 0 127 0" result="hardAlpha"/>
<feOffset dy="8"/>
<feGaussianBlur stdDeviation="8"/>
<feColorMatrix type="matrix" values="0 0 0 0 0 0 0 0 0 0 0 0 0 0 0 0 0 0 0.08 0"/>
<feBlend mode="normal" in2="BackgroundImageFix" result="effect1_dropShadow_1774_6410"/>
<feColorMatrix in="SourceAlpha" type="matrix" values="0 0 0 0 0 0 0 0 0 0 0 0 0 0 0 0 0 0 127 0" result="hardAlpha"/>
<feOffset/>
<feGaussianBlur stdDeviation="2"/>
<feColorMatrix type="matrix" values="0 0 0 0 0 0 0 0 0 0 0 0 0 0 0 0 0 0 0.04 0"/>
<feBlend mode="normal" in2="effect1_dropShadow_1774_6410" result="effect2_dropShadow_1774_6410"/>
<feBlend mode="normal" in="SourceGraphic" in2="effect2_dropShadow_1774_6410" result="shape"/>
</filter>
</defs>
</svg>
