<svg width="407" height="116" viewBox="0 0 407 116" fill="none" xmlns="http://www.w3.org/2000/svg">
<g filter="url(#filter0_dd_1774_6416)">
<path d="M16 20C16 13.3726 21.3726 8 28 8H379C385.627 8 391 13.3726 391 20V80C391 86.6274 385.627 92 379 92H28C21.3726 92 16 86.6274 16 80V20Z" fill="white"/>
<rect x="40.5" y="38.5" width="34" height="23" rx="3.5" fill="white" stroke="#EBEBEB"/>
<path fill-rule="evenodd" clip-rule="evenodd" d="M50.6253 54.2582H48.5049L46.915 48.1924C46.8395 47.9133 46.6792 47.6667 46.4435 47.5504C45.8553 47.2582 45.2071 47.0257 44.5 46.9084V46.6749H47.9157C48.3871 46.6749 48.7406 47.0257 48.7996 47.4331L49.6245 51.8086L51.7438 46.6749H53.8052L50.6253 54.2582ZM54.9838 54.2582H52.9813L54.6302 46.6749H56.6327L54.9838 54.2582ZM59.2234 48.7757C59.2823 48.3673 59.6359 48.1337 60.0483 48.1337C60.6965 48.0751 61.4026 48.1924 61.9919 48.4835L62.3454 46.8508C61.7562 46.6173 61.108 46.5 60.5198 46.5C58.5762 46.5 57.162 47.5504 57.162 49.0082C57.162 50.1173 58.1637 50.6996 58.8708 51.0504C59.6359 51.4002 59.9305 51.6338 59.8716 51.9835C59.8716 52.5082 59.2823 52.7418 58.6941 52.7418C57.9869 52.7418 57.2798 52.5669 56.6327 52.2747L56.2791 53.9085C56.9862 54.1996 57.7512 54.3169 58.4584 54.3169C60.6376 54.3745 61.9919 53.3251 61.9919 51.75C61.9919 49.7665 59.2234 49.6502 59.2234 48.7757ZM69 54.2582L67.41 46.6749H65.7022C65.3486 46.6749 64.9951 46.9084 64.8772 47.2582L61.9329 54.2582H63.9943L64.4058 53.1502H66.9386L67.1743 54.2582H69ZM65.9968 48.7171L66.585 51.5751H64.9361L65.9968 48.7171Z" fill="#172B85"/>
<path d="M91.896 46L96.392 34.8H98.072L93.48 46H91.896ZM91.736 46L87.144 34.8H88.824L93.304 46H91.736ZM99.3708 46V38H100.891V46H99.3708ZM100.139 36.304C99.8934 36.304 99.6801 36.2133 99.4988 36.032C99.3174 35.84 99.2268 35.6213 99.2268 35.376C99.2268 35.12 99.3174 34.9067 99.4988 34.736C99.6801 34.5547 99.8934 34.464 100.139 34.464C100.395 34.464 100.608 34.5547 100.779 34.736C100.96 34.9067 101.051 35.12 101.051 35.376C101.051 35.6213 100.96 35.84 100.779 36.032C100.608 36.2133 100.395 36.304 100.139 36.304ZM105.983 46.192C105.417 46.192 104.911 46.1067 104.463 45.936C104.025 45.7653 103.652 45.536 103.343 45.248C103.044 44.96 102.82 44.6347 102.671 44.272L103.983 43.696C104.153 44.0267 104.409 44.2987 104.751 44.512C105.092 44.7253 105.471 44.832 105.887 44.832C106.345 44.832 106.724 44.7467 107.023 44.576C107.321 44.4053 107.471 44.1653 107.471 43.856C107.471 43.5573 107.359 43.3227 107.135 43.152C106.911 42.9813 106.585 42.8427 106.159 42.736L105.407 42.544C104.66 42.3413 104.079 42.0373 103.663 41.632C103.257 41.2267 103.055 40.768 103.055 40.256C103.055 39.4773 103.305 38.8747 103.807 38.448C104.308 38.0213 105.049 37.808 106.031 37.808C106.511 37.808 106.948 37.8773 107.343 38.016C107.748 38.1547 108.089 38.352 108.367 38.608C108.655 38.864 108.857 39.168 108.975 39.52L107.695 40.096C107.567 39.776 107.348 39.5413 107.039 39.392C106.729 39.232 106.367 39.152 105.951 39.152C105.524 39.152 105.188 39.248 104.943 39.44C104.697 39.6213 104.575 39.8773 104.575 40.208C104.575 40.3893 104.676 40.5653 104.879 40.736C105.092 40.896 105.401 41.0293 105.807 41.136L106.671 41.344C107.193 41.472 107.625 41.6693 107.967 41.936C108.308 42.192 108.564 42.4853 108.735 42.816C108.905 43.136 108.991 43.472 108.991 43.824C108.991 44.304 108.857 44.7253 108.591 45.088C108.335 45.44 107.977 45.712 107.519 45.904C107.071 46.096 106.559 46.192 105.983 46.192ZM115.484 46L115.42 44.608V41.824C115.42 41.2373 115.35 40.7467 115.212 40.352C115.084 39.9573 114.881 39.6587 114.604 39.456C114.337 39.2533 113.98 39.152 113.532 39.152C113.116 39.152 112.753 39.2373 112.444 39.408C112.145 39.5787 111.894 39.8453 111.692 40.208L110.348 39.696C110.54 39.3333 110.78 39.0133 111.068 38.736C111.356 38.448 111.702 38.224 112.108 38.064C112.513 37.8933 112.988 37.808 113.532 37.808C114.289 37.808 114.918 37.9573 115.42 38.256C115.921 38.5547 116.294 38.9867 116.54 39.552C116.796 40.1173 116.918 40.816 116.908 41.648L116.892 46H115.484ZM113.132 46.192C112.182 46.192 111.441 45.9787 110.908 45.552C110.385 45.1147 110.124 44.512 110.124 43.744C110.124 42.9227 110.396 42.2987 110.94 41.872C111.494 41.4347 112.262 41.216 113.244 41.216H115.468V42.416H113.66C112.924 42.416 112.406 42.5333 112.108 42.768C111.809 42.992 111.66 43.3067 111.66 43.712C111.66 44.0853 111.798 44.3787 112.076 44.592C112.364 44.7947 112.758 44.896 113.26 44.896C113.697 44.896 114.076 44.8053 114.396 44.624C114.716 44.432 114.966 44.1653 115.148 43.824C115.329 43.4827 115.42 43.0933 115.42 42.656H115.948C115.948 43.744 115.713 44.608 115.244 45.248C114.785 45.8773 114.081 46.192 113.132 46.192ZM126.728 39.984L125.208 37.6L125.96 37.056L127.736 39.264L126.728 39.984ZM124.376 40.016L123.384 39.296L125.176 37.104L125.912 37.648L124.376 40.016ZM125.384 37.792L122.648 37.072L123.048 35.888L125.672 36.928L125.384 37.792ZM125.08 37.376L124.92 34.544H126.152L125.992 37.376H125.08ZM125.672 37.808L125.4 36.928L128.04 35.92L128.408 37.088L125.672 37.808ZM134.462 39.984L132.942 37.6L133.694 37.056L135.47 39.264L134.462 39.984ZM132.11 40.016L131.118 39.296L132.91 37.104L133.646 37.648L132.11 40.016ZM133.118 37.792L130.382 37.072L130.782 35.888L133.406 36.928L133.118 37.792ZM132.814 37.376L132.654 34.544H133.886L133.726 37.376H132.814ZM133.406 37.808L133.134 36.928L135.774 35.92L136.142 37.088L133.406 37.808ZM142.197 39.984L140.677 37.6L141.429 37.056L143.205 39.264L142.197 39.984ZM139.845 40.016L138.853 39.296L140.645 37.104L141.381 37.648L139.845 40.016ZM140.853 37.792L138.117 37.072L138.517 35.888L141.141 36.928L140.853 37.792ZM140.549 37.376L140.389 34.544H141.621L141.461 37.376H140.549ZM141.141 37.808L140.869 36.928L143.509 35.92L143.877 37.088L141.141 37.808ZM149.931 39.984L148.411 37.6L149.163 37.056L150.939 39.264L149.931 39.984ZM147.579 40.016L146.587 39.296L148.379 37.104L149.115 37.648L147.579 40.016ZM148.587 37.792L145.851 37.072L146.251 35.888L148.875 36.928L148.587 37.792ZM148.283 37.376L148.123 34.544H149.355L149.195 37.376H148.283ZM148.875 37.808L148.603 36.928L151.243 35.92L151.611 37.088L148.875 37.808ZM157.876 46L163.156 35.904L164.708 36.064L159.62 46H157.876ZM157.14 36.24V34.8H164.708V36.064L163.348 36.24H157.14ZM169.54 46.192C168.964 46.192 168.441 46.1067 167.972 45.936C167.502 45.7653 167.108 45.5307 166.788 45.232C166.468 44.9333 166.222 44.608 166.052 44.256L167.412 43.632C167.518 43.7813 167.652 43.952 167.812 44.144C167.972 44.3253 168.185 44.48 168.452 44.608C168.718 44.736 169.049 44.8 169.444 44.8C170.116 44.8 170.649 44.608 171.044 44.224C171.449 43.84 171.652 43.3547 171.652 42.768C171.652 42.3307 171.534 41.9627 171.3 41.664C171.065 41.3547 170.718 41.12 170.26 40.96C169.812 40.8 169.262 40.72 168.612 40.72H168.212V39.536H168.58C169.241 39.536 169.849 39.6107 170.404 39.76C170.969 39.9093 171.465 40.1333 171.892 40.432C172.318 40.72 172.649 41.072 172.884 41.488C173.118 41.904 173.236 42.3787 173.236 42.912C173.236 43.5733 173.065 44.1547 172.724 44.656C172.393 45.1467 171.945 45.5253 171.38 45.792C170.825 46.0587 170.212 46.192 169.54 46.192ZM168.212 40.528V39.392H168.612C169.486 39.392 170.169 39.2427 170.66 38.944C171.15 38.6453 171.396 38.224 171.396 37.68C171.396 37.3707 171.31 37.0933 171.14 36.848C170.98 36.592 170.75 36.3893 170.452 36.24C170.164 36.08 169.817 36 169.411 36C169.156 36 168.905 36.0427 168.66 36.128C168.425 36.2027 168.206 36.32 168.004 36.48C167.801 36.6293 167.625 36.8267 167.476 37.072L166.164 36.48C166.345 36.0853 166.601 35.7493 166.932 35.472C167.262 35.1947 167.646 34.9813 168.084 34.832C168.521 34.6827 168.985 34.608 169.476 34.608C170.148 34.608 170.745 34.736 171.268 34.992C171.79 35.248 172.201 35.6 172.5 36.048C172.809 36.496 172.964 37.0027 172.964 37.568C172.964 38.048 172.846 38.4747 172.612 38.848C172.388 39.2107 172.073 39.52 171.668 39.776C171.262 40.0213 170.793 40.208 170.26 40.336C169.737 40.464 169.172 40.528 168.564 40.528H168.212ZM178.834 46.192C178.002 46.192 177.282 46.064 176.674 45.808C176.066 45.5413 175.591 45.1787 175.25 44.72C174.919 44.2507 174.754 43.7067 174.754 43.088C174.754 42.4373 174.919 41.8667 175.25 41.376C175.591 40.8747 176.066 40.4853 176.674 40.208C177.282 39.9307 178.002 39.7973 178.834 39.808C179.676 39.7973 180.402 39.9307 181.01 40.208C181.618 40.4853 182.087 40.8747 182.418 41.376C182.759 41.8667 182.93 42.4373 182.93 43.088C182.93 43.7067 182.759 44.2507 182.418 44.72C182.087 45.1787 181.618 45.5413 181.01 45.808C180.402 46.064 179.676 46.192 178.834 46.192ZM178.834 44.832C179.57 44.832 180.167 44.656 180.626 44.304C181.095 43.9413 181.33 43.4773 181.33 42.912C181.33 42.3253 181.095 41.8507 180.626 41.488C180.167 41.1253 179.57 40.944 178.834 40.944C178.354 40.944 177.927 41.024 177.554 41.184C177.18 41.344 176.887 41.5787 176.674 41.888C176.471 42.1867 176.37 42.528 176.37 42.912C176.37 43.2853 176.471 43.6213 176.674 43.92C176.887 44.208 177.18 44.432 177.554 44.592C177.927 44.752 178.354 44.832 178.834 44.832ZM178.834 40.608C178.098 40.608 177.452 40.4853 176.898 40.24C176.343 39.984 175.911 39.6373 175.602 39.2C175.303 38.752 175.154 38.2347 175.154 37.648C175.154 37.0507 175.303 36.5227 175.602 36.064C175.911 35.6053 176.343 35.248 176.898 34.992C177.452 34.736 178.098 34.608 178.834 34.608C179.58 34.608 180.231 34.736 180.786 34.992C181.34 35.248 181.767 35.6053 182.066 36.064C182.375 36.5227 182.53 37.0507 182.53 37.648C182.53 38.2347 182.375 38.752 182.066 39.2C181.767 39.6373 181.34 39.984 180.786 40.24C180.231 40.4853 179.58 40.608 178.834 40.608ZM178.834 39.552C179.463 39.552 179.975 39.392 180.37 39.072C180.775 38.7413 180.978 38.32 180.978 37.808C180.978 37.2533 180.775 36.8053 180.37 36.464C179.975 36.112 179.463 35.936 178.834 35.936C178.215 35.936 177.708 36.112 177.314 36.464C176.919 36.8053 176.722 37.2533 176.722 37.808C176.722 38.32 176.919 38.7413 177.314 39.072C177.708 39.392 178.215 39.552 178.834 39.552ZM188.118 46.192C187.542 46.192 187.019 46.1067 186.55 45.936C186.08 45.7653 185.686 45.5307 185.366 45.232C185.046 44.9333 184.8 44.608 184.63 44.256L185.99 43.632C186.096 43.7813 186.23 43.952 186.39 44.144C186.55 44.3253 186.763 44.48 187.03 44.608C187.296 44.736 187.627 44.8 188.022 44.8C188.694 44.8 189.227 44.608 189.622 44.224C190.027 43.84 190.23 43.3547 190.23 42.768C190.23 42.3307 190.112 41.9627 189.878 41.664C189.643 41.3547 189.296 41.12 188.838 40.96C188.39 40.8 187.84 40.72 187.19 40.72H186.79V39.536H187.158C187.819 39.536 188.427 39.6107 188.982 39.76C189.547 39.9093 190.043 40.1333 190.47 40.432C190.896 40.72 191.227 41.072 191.462 41.488C191.696 41.904 191.814 42.3787 191.814 42.912C191.814 43.5733 191.643 44.1547 191.302 44.656C190.971 45.1467 190.523 45.5253 189.958 45.792C189.403 46.0587 188.79 46.192 188.118 46.192ZM186.79 40.528V39.392H187.19C188.064 39.392 188.747 39.2427 189.238 38.944C189.728 38.6453 189.974 38.224 189.974 37.68C189.974 37.3707 189.888 37.0933 189.718 36.848C189.558 36.592 189.328 36.3893 189.03 36.24C188.742 36.08 188.395 36 187.99 36C187.734 36 187.483 36.0427 187.238 36.128C187.003 36.2027 186.784 36.32 186.582 36.48C186.379 36.6293 186.203 36.8267 186.054 37.072L184.742 36.48C184.923 36.0853 185.179 35.7493 185.51 35.472C185.84 35.1947 186.224 34.9813 186.662 34.832C187.099 34.6827 187.563 34.608 188.054 34.608C188.726 34.608 189.323 34.736 189.846 34.992C190.368 35.248 190.779 35.6 191.078 36.048C191.387 36.496 191.542 37.0027 191.542 37.568C191.542 38.048 191.424 38.4747 191.19 38.848C190.966 39.2107 190.651 39.52 190.246 39.776C189.84 40.0213 189.371 40.208 188.838 40.336C188.315 40.464 187.75 40.528 187.142 40.528H186.79Z" fill="#1F1F1F"/>
<path d="M88.116 68V59.6H93.084V60.524H89.136V63.236H92.736V64.148H89.136V67.076H93.108V68H88.116ZM94.2216 68L96.6696 64.556L98.3976 62H99.5376L97.2576 65.24L95.3856 68H94.2216ZM98.5296 68L96.6816 65.24L94.3776 62H95.5176L97.2576 64.556L99.6816 68H98.5296ZM100.697 70.4V62H101.597L101.657 63.104V70.4H100.697ZM103.685 68.144C103.181 68.144 102.737 68.012 102.353 67.748C101.977 67.484 101.685 67.116 101.477 66.644C101.269 66.164 101.165 65.616 101.165 65C101.165 64.376 101.269 63.828 101.477 63.356C101.685 62.884 101.977 62.516 102.353 62.252C102.737 61.988 103.181 61.856 103.685 61.856C104.221 61.856 104.693 61.988 105.101 62.252C105.509 62.516 105.825 62.884 106.049 63.356C106.281 63.828 106.397 64.376 106.397 65C106.397 65.616 106.281 66.164 106.049 66.644C105.825 67.116 105.509 67.484 105.101 67.748C104.693 68.012 104.221 68.144 103.685 68.144ZM103.469 67.268C103.845 67.268 104.177 67.172 104.465 66.98C104.761 66.788 104.993 66.52 105.161 66.176C105.337 65.832 105.425 65.44 105.425 65C105.425 64.56 105.341 64.168 105.173 63.824C105.013 63.48 104.785 63.212 104.489 63.02C104.193 62.828 103.857 62.732 103.481 62.732C103.129 62.732 102.813 62.828 102.533 63.02C102.261 63.212 102.045 63.48 101.885 63.824C101.733 64.168 101.657 64.56 101.657 65C101.657 65.44 101.733 65.832 101.885 66.176C102.045 66.52 102.261 66.788 102.533 66.98C102.805 67.172 103.117 67.268 103.469 67.268ZM107.787 68V62H108.747V68H107.787ZM108.279 60.608C108.119 60.608 107.979 60.548 107.859 60.428C107.739 60.308 107.679 60.168 107.679 60.008C107.679 59.84 107.739 59.7 107.859 59.588C107.979 59.468 108.119 59.408 108.279 59.408C108.447 59.408 108.587 59.468 108.699 59.588C108.819 59.7 108.879 59.84 108.879 60.008C108.879 60.168 108.819 60.308 108.699 60.428C108.587 60.548 108.447 60.608 108.279 60.608ZM111.044 64.748C111.044 64.1 111.168 63.576 111.416 63.176C111.664 62.768 111.98 62.468 112.364 62.276C112.756 62.076 113.168 61.976 113.6 61.976V62.876C113.248 62.876 112.908 62.936 112.58 63.056C112.26 63.168 111.996 63.356 111.788 63.62C111.58 63.884 111.476 64.244 111.476 64.7L111.044 64.748ZM110.516 68V62H111.476V68H110.516ZM115.11 70.544C114.958 70.544 114.782 70.512 114.582 70.448C114.382 70.392 114.17 70.316 113.946 70.22L114.306 69.416C114.49 69.496 114.65 69.556 114.786 69.596C114.93 69.636 115.042 69.656 115.122 69.656C115.338 69.656 115.514 69.596 115.65 69.476C115.794 69.364 115.914 69.2 116.01 68.984L116.694 67.352L118.914 62H119.946L117.066 68.84C116.914 69.192 116.754 69.496 116.586 69.752C116.426 70.008 116.23 70.204 115.998 70.34C115.766 70.476 115.47 70.544 115.11 70.544ZM116.43 68L113.838 62H114.858L117.09 67.34L117.378 68H116.43ZM128.292 68L128.244 66.884V59.6H129.204V68H128.292ZM126.216 68.144C125.68 68.144 125.208 68.012 124.8 67.748C124.392 67.484 124.072 67.116 123.84 66.644C123.616 66.164 123.504 65.616 123.504 65C123.504 64.376 123.616 63.828 123.84 63.356C124.072 62.884 124.392 62.516 124.8 62.252C125.208 61.988 125.68 61.856 126.216 61.856C126.72 61.856 127.16 61.988 127.536 62.252C127.92 62.516 128.216 62.884 128.424 63.356C128.632 63.828 128.736 64.376 128.736 65C128.736 65.616 128.632 66.164 128.424 66.644C128.216 67.116 127.92 67.484 127.536 67.748C127.16 68.012 126.72 68.144 126.216 68.144ZM126.432 67.268C126.784 67.268 127.096 67.172 127.368 66.98C127.64 66.788 127.852 66.52 128.004 66.176C128.164 65.832 128.244 65.44 128.244 65C128.244 64.56 128.164 64.168 128.004 63.824C127.852 63.48 127.64 63.212 127.368 63.02C127.096 62.828 126.78 62.732 126.42 62.732C126.044 62.732 125.708 62.828 125.412 63.02C125.124 63.212 124.896 63.48 124.728 63.824C124.56 64.168 124.476 64.56 124.476 65C124.476 65.44 124.56 65.832 124.728 66.176C124.896 66.52 125.128 66.788 125.424 66.98C125.72 67.172 126.056 67.268 126.432 67.268ZM134.579 68L134.531 67.016V64.832C134.531 64.36 134.479 63.972 134.375 63.668C134.271 63.356 134.107 63.12 133.883 62.96C133.659 62.8 133.367 62.72 133.007 62.72C132.679 62.72 132.395 62.788 132.155 62.924C131.923 63.052 131.731 63.26 131.579 63.548L130.715 63.212C130.867 62.932 131.051 62.692 131.267 62.492C131.483 62.284 131.735 62.128 132.023 62.024C132.311 61.912 132.639 61.856 133.007 61.856C133.567 61.856 134.027 61.968 134.387 62.192C134.755 62.408 135.031 62.732 135.215 63.164C135.399 63.588 135.487 64.116 135.479 64.748L135.467 68H134.579ZM132.779 68.144C132.075 68.144 131.523 67.984 131.123 67.664C130.731 67.336 130.535 66.884 130.535 66.308C130.535 65.7 130.735 65.236 131.135 64.916C131.543 64.588 132.111 64.424 132.839 64.424H134.555V65.228H133.055C132.495 65.228 132.095 65.32 131.855 65.504C131.623 65.688 131.507 65.952 131.507 66.296C131.507 66.608 131.623 66.856 131.855 67.04C132.087 67.216 132.411 67.304 132.827 67.304C133.171 67.304 133.471 67.232 133.727 67.088C133.983 66.936 134.179 66.724 134.315 66.452C134.459 66.172 134.531 65.844 134.531 65.468H134.939C134.939 66.284 134.755 66.936 134.387 67.424C134.019 67.904 133.483 68.144 132.779 68.144ZM139.256 68.144C138.672 68.144 138.22 67.992 137.9 67.688C137.58 67.384 137.42 66.956 137.42 66.404V60.128H138.38V66.308C138.38 66.612 138.46 66.848 138.62 67.016C138.788 67.176 139.02 67.256 139.316 67.256C139.412 67.256 139.504 67.244 139.592 67.22C139.688 67.188 139.812 67.116 139.964 67.004L140.336 67.784C140.128 67.92 139.94 68.012 139.772 68.06C139.604 68.116 139.432 68.144 139.256 68.144ZM136.376 62.852V62H140.18V62.852H136.376ZM144.128 68.144C143.544 68.144 143.028 68.012 142.58 67.748C142.132 67.476 141.78 67.104 141.524 66.632C141.276 66.16 141.152 65.616 141.152 65C141.152 64.384 141.276 63.84 141.524 63.368C141.78 62.896 142.128 62.528 142.568 62.264C143.016 61.992 143.528 61.856 144.104 61.856C144.664 61.856 145.148 61.996 145.556 62.276C145.964 62.548 146.28 62.932 146.504 63.428C146.728 63.924 146.84 64.508 146.84 65.18H141.884L142.124 64.976C142.124 65.456 142.208 65.868 142.376 66.212C142.552 66.556 142.796 66.82 143.108 67.004C143.42 67.18 143.776 67.268 144.176 67.268C144.6 67.268 144.956 67.168 145.244 66.968C145.54 66.768 145.768 66.504 145.928 66.176L146.756 66.596C146.604 66.908 146.4 67.18 146.144 67.412C145.896 67.644 145.6 67.824 145.256 67.952C144.92 68.08 144.544 68.144 144.128 68.144ZM142.184 64.568L141.932 64.376H146.072L145.82 64.58C145.82 64.196 145.744 63.864 145.592 63.584C145.44 63.304 145.236 63.088 144.98 62.936C144.724 62.784 144.428 62.708 144.092 62.708C143.764 62.708 143.452 62.784 143.156 62.936C142.868 63.088 142.632 63.304 142.448 63.584C142.272 63.856 142.184 64.184 142.184 64.568ZM148.723 63.308C148.539 63.308 148.379 63.244 148.243 63.116C148.115 62.988 148.051 62.832 148.051 62.648C148.051 62.464 148.115 62.308 148.243 62.18C148.379 62.044 148.539 61.976 148.723 61.976C148.899 61.976 149.051 62.044 149.179 62.18C149.315 62.308 149.383 62.464 149.383 62.648C149.383 62.832 149.315 62.988 149.179 63.116C149.051 63.244 148.899 63.308 148.723 63.308ZM148.735 68.024C148.551 68.024 148.395 67.96 148.267 67.832C148.139 67.696 148.075 67.536 148.075 67.352C148.075 67.168 148.139 67.012 148.267 66.884C148.395 66.756 148.551 66.692 148.735 66.692C148.919 66.692 149.075 66.756 149.203 66.884C149.339 67.012 149.407 67.168 149.407 67.352C149.407 67.536 149.339 67.696 149.203 67.832C149.075 67.96 148.919 68.024 148.735 68.024ZM155.815 68V60.14L155.899 59.6H156.811V68H155.815ZM153.931 61.76V60.836C154.099 60.844 154.299 60.788 154.531 60.668C154.763 60.548 155.003 60.392 155.251 60.2C155.499 60.008 155.715 59.808 155.899 59.6L156.523 60.284C156.259 60.564 155.983 60.816 155.695 61.04C155.407 61.264 155.115 61.444 154.819 61.58C154.523 61.708 154.227 61.768 153.931 61.76ZM160.772 68V60.14L160.856 59.6H161.768V68H160.772ZM158.888 61.76V60.836C159.056 60.844 159.256 60.788 159.488 60.668C159.72 60.548 159.96 60.392 160.208 60.2C160.456 60.008 160.672 59.808 160.856 59.6L161.48 60.284C161.216 60.564 160.94 60.816 160.652 61.04C160.364 61.264 160.072 61.444 159.776 61.58C159.48 61.708 159.184 61.768 158.888 61.76ZM163.305 69.008L166.617 59.036H167.613L164.325 69.008H163.305ZM168.473 68V67.16C168.473 66.896 168.525 66.636 168.629 66.38C168.741 66.116 168.897 65.856 169.097 65.6C169.305 65.344 169.557 65.104 169.853 64.88L171.593 63.572C171.801 63.428 171.981 63.264 172.133 63.08C172.293 62.888 172.417 62.692 172.505 62.492C172.593 62.284 172.637 62.084 172.637 61.892C172.637 61.612 172.569 61.36 172.433 61.136C172.297 60.904 172.105 60.72 171.857 60.584C171.609 60.448 171.317 60.38 170.981 60.38C170.653 60.38 170.365 60.444 170.117 60.572C169.869 60.692 169.665 60.856 169.505 61.064C169.345 61.264 169.229 61.48 169.157 61.712L168.125 61.508C168.221 61.148 168.393 60.812 168.641 60.5C168.897 60.188 169.221 59.936 169.613 59.744C170.005 59.552 170.441 59.456 170.921 59.456C171.481 59.456 171.965 59.564 172.373 59.78C172.781 59.988 173.097 60.276 173.321 60.644C173.553 61.004 173.669 61.416 173.669 61.88C173.669 62.32 173.549 62.736 173.309 63.128C173.069 63.52 172.721 63.9 172.265 64.268L170.621 65.516C170.301 65.756 170.053 66.008 169.877 66.272C169.709 66.536 169.613 66.812 169.589 67.1H173.789V68H168.473ZM178.332 68.144C177.692 68.144 177.124 67.96 176.628 67.592C176.132 67.216 175.744 66.704 175.464 66.056C175.184 65.4 175.044 64.648 175.044 63.8C175.044 62.952 175.184 62.204 175.464 61.556C175.744 60.9 176.128 60.388 176.616 60.02C177.112 59.644 177.684 59.456 178.332 59.456C178.98 59.456 179.548 59.644 180.036 60.02C180.532 60.388 180.92 60.9 181.2 61.556C181.488 62.204 181.632 62.952 181.632 63.8C181.632 64.648 181.492 65.4 181.212 66.056C180.932 66.704 180.544 67.216 180.048 67.592C179.552 67.96 178.98 68.144 178.332 68.144ZM178.332 67.232C178.78 67.232 179.176 67.084 179.52 66.788C179.872 66.492 180.144 66.088 180.336 65.576C180.536 65.064 180.636 64.472 180.636 63.8C180.636 63.128 180.536 62.536 180.336 62.024C180.144 61.504 179.872 61.1 179.52 60.812C179.176 60.516 178.78 60.368 178.332 60.368C177.884 60.368 177.488 60.516 177.144 60.812C176.8 61.1 176.528 61.504 176.328 62.024C176.136 62.536 176.04 63.128 176.04 63.8C176.04 64.472 176.136 65.064 176.328 65.576C176.528 66.088 176.8 66.492 177.144 66.788C177.496 67.084 177.892 67.232 178.332 67.232ZM182.864 68V67.16C182.864 66.896 182.916 66.636 183.02 66.38C183.132 66.116 183.288 65.856 183.488 65.6C183.696 65.344 183.948 65.104 184.244 64.88L185.984 63.572C186.192 63.428 186.372 63.264 186.524 63.08C186.684 62.888 186.808 62.692 186.896 62.492C186.984 62.284 187.028 62.084 187.028 61.892C187.028 61.612 186.96 61.36 186.824 61.136C186.688 60.904 186.496 60.72 186.248 60.584C186 60.448 185.708 60.38 185.372 60.38C185.044 60.38 184.756 60.444 184.508 60.572C184.26 60.692 184.056 60.856 183.896 61.064C183.736 61.264 183.62 61.48 183.548 61.712L182.516 61.508C182.612 61.148 182.784 60.812 183.032 60.5C183.288 60.188 183.612 59.936 184.004 59.744C184.396 59.552 184.832 59.456 185.312 59.456C185.872 59.456 186.356 59.564 186.764 59.78C187.172 59.988 187.488 60.276 187.712 60.644C187.944 61.004 188.06 61.416 188.06 61.88C188.06 62.32 187.94 62.736 187.7 63.128C187.46 63.52 187.112 63.9 186.656 64.268L185.012 65.516C184.692 65.756 184.444 66.008 184.268 66.272C184.1 66.536 184.004 66.812 183.98 67.1H188.18V68H182.864ZM192.459 68.144C191.883 68.144 191.399 68.036 191.007 67.82C190.615 67.596 190.303 67.296 190.071 66.92C189.839 66.544 189.671 66.112 189.567 65.624C189.471 65.128 189.423 64.604 189.423 64.052C189.423 63.332 189.495 62.688 189.639 62.12C189.791 61.552 190.007 61.072 190.287 60.68C190.567 60.28 190.907 59.976 191.307 59.768C191.707 59.56 192.159 59.456 192.663 59.456C193.079 59.456 193.491 59.524 193.899 59.66C194.315 59.788 194.683 59.968 195.003 60.2L194.439 60.92C194.183 60.744 193.907 60.608 193.611 60.512C193.315 60.408 193.031 60.356 192.759 60.356C191.943 60.356 191.323 60.7 190.899 61.388C190.475 62.076 190.287 63.12 190.335 64.52L190.119 64.304C190.311 63.816 190.619 63.432 191.043 63.152C191.467 62.864 191.967 62.72 192.543 62.72C193.079 62.72 193.555 62.836 193.971 63.068C194.395 63.3 194.723 63.624 194.955 64.04C195.195 64.448 195.315 64.916 195.315 65.444C195.315 65.964 195.195 66.432 194.955 66.848C194.715 67.256 194.379 67.576 193.947 67.808C193.523 68.032 193.027 68.144 192.459 68.144ZM192.459 67.256C192.819 67.256 193.135 67.18 193.407 67.028C193.687 66.868 193.903 66.652 194.055 66.38C194.215 66.1 194.295 65.78 194.295 65.42C194.295 65.06 194.215 64.744 194.055 64.472C193.903 64.192 193.687 63.976 193.407 63.824C193.135 63.672 192.819 63.596 192.459 63.596C192.107 63.596 191.791 63.672 191.511 63.824C191.231 63.976 191.011 64.192 190.851 64.472C190.691 64.744 190.611 65.06 190.611 65.42C190.611 65.78 190.691 66.1 190.851 66.38C191.011 66.652 191.231 66.868 191.511 67.028C191.791 67.18 192.107 67.256 192.459 67.256Z" fill="#1F1F1F"/>
</g>
<defs>
<filter id="filter0_dd_1774_6416" x="0" y="0" width="407" height="116" filterUnits="userSpaceOnUse" color-interpolation-filters="sRGB">
<feFlood flood-opacity="0" result="BackgroundImageFix"/>
<feColorMatrix in="SourceAlpha" type="matrix" values="0 0 0 0 0 0 0 0 0 0 0 0 0 0 0 0 0 0 127 0" result="hardAlpha"/>
<feOffset dy="8"/>
<feGaussianBlur stdDeviation="8"/>
<feColorMatrix type="matrix" values="0 0 0 0 0 0 0 0 0 0 0 0 0 0 0 0 0 0 0.08 0"/>
<feBlend mode="normal" in2="BackgroundImageFix" result="effect1_dropShadow_1774_6416"/>
<feColorMatrix in="SourceAlpha" type="matrix" values="0 0 0 0 0 0 0 0 0 0 0 0 0 0 0 0 0 0 127 0" result="hardAlpha"/>
<feOffset/>
<feGaussianBlur stdDeviation="2"/>
<feColorMatrix type="matrix" values="0 0 0 0 0 0 0 0 0 0 0 0 0 0 0 0 0 0 0.04 0"/>
<feBlend mode="normal" in2="effect1_dropShadow_1774_6416" result="effect2_dropShadow_1774_6416"/>
<feBlend mode="normal" in="SourceGraphic" in2="effect2_dropShadow_1774_6416" result="shape"/>
</filter>
</defs>
</svg>
